<svg xmlns="http://www.w3.org/2000/svg" viewBox="0 0 16 16" style="enable-background:new 0 0 16 16" xml:space="preserve"><style>.st0{display:none}.st11{fill:#33383d}</style><g id="Genesys"><path class="st11" d="M8 16c-4.41 0-8-3.59-8-8s3.59-8 8-8 8 3.59 8 8-3.59 8-8 8zM8 1.5C4.42 1.5 1.5 4.41 1.5 8s2.92 6.5 6.5 6.5 6.5-2.92 6.5-6.5S11.58 1.5 8 1.5z"/><path class="st11" d="M8 12c-.41 0-.75-.34-.75-.75V6.74c0-.41.34-.75.75-.75s.75.34.75.75v4.51c0 .41-.34.75-.75.75z"/><circle class="st11" cx="8" cy="4" r="1"/></g></svg>