<svg xmlns="http://www.w3.org/2000/svg" viewBox="0 0 16 16" style="enable-background:new 0 0 16 16" xml:space="preserve"><style>.st0{display:none}.st4{display:inline;fill:none;stroke:#33383d;stroke-width:1.5;stroke-linecap:round;stroke-linejoin:round;stroke-miterlimit:10}.st8{fill:#33383d}</style><g id="Genesys"><path class="st8" d="M13.56 16H2.44c-.85 0-1.63-.43-2.08-1.16-.45-.73-.49-1.61-.11-2.38L5.82 1.35C6.23.52 7.07 0 8 0s1.77.52 2.18 1.35l5.56 11.11c.38.76.34 1.65-.11 2.37-.44.74-1.22 1.17-2.07 1.17zM8 1.5c-.36 0-.68.19-.84.52L1.6 13.14a.944.944 0 0 0 .84 1.37h11.11c.33 0 .62-.16.8-.45.17-.28.19-.62.04-.92L8.84 2.02A.933.933 0 0 0 8 1.5z"/><path class="st8" d="M8 10c-.41 0-.75-.34-.75-.75v-4.5c0-.41.34-.75.75-.75s.75.34.75.75v4.5c0 .41-.34.75-.75.75z"/><circle class="st8" cx="8" cy="12" r="1"/></g></svg>