<svg xmlns="http://www.w3.org/2000/svg" viewBox="0 0 16 16" style="enable-background:new 0 0 16 16" xml:space="preserve"><style>.st0{display:none}.st4{display:inline;fill:none;stroke:#33383d;stroke-width:1.5;stroke-linecap:round;stroke-linejoin:round;stroke-miterlimit:10}.st8{fill:#33383d}</style><g id="Genesys"><path class="st8" d="M8 9c-.41 0-.75-.34-.75-.75v-4.5c0-.41.34-.75.75-.75s.75.34.75.75v4.5c0 .41-.34.75-.75.75z"/><circle class="st8" cx="8" cy="11" r="1"/><path class="st8" d="M11 16H5a.75.75 0 0 1-.53-.22L.22 11.53A.75.75 0 0 1 0 11V5c0-.2.08-.39.22-.53L4.47.22A.75.75 0 0 1 5 0h6c.2 0 .39.08.53.22l4.25 4.25c.14.14.22.33.22.53v6c0 .2-.08.39-.22.53l-4.25 4.25A.75.75 0 0 1 11 16zm-5.69-1.5h5.38l3.81-3.81V5.31L10.69 1.5H5.31L1.5 5.31v5.38l3.81 3.81z"/></g></svg>