<svg xmlns="http://www.w3.org/2000/svg" viewBox="0 0 16 16" style="enable-background:new 0 0 16 16" xml:space="preserve"><style>.st0{display:none}.st4{fill:none;stroke:#33383d;stroke-width:1.5;stroke-linecap:round;stroke-linejoin:round;stroke-miterlimit:10}.st4,.st6{display:inline}.st6,.st8{fill:#33383d}</style><g id="Genesys"><path class="st8" d="M8 16c-4.41 0-8-3.59-8-8s3.59-8 8-8 8 3.59 8 8-3.59 8-8 8zM8 1.5C4.42 1.5 1.5 4.41 1.5 8s2.92 6.5 6.5 6.5 6.5-2.92 6.5-6.5S11.58 1.5 8 1.5z"/><path class="st8" d="M6.75 11.02a.75.75 0 0 1-.53-.22L4.17 8.75a.754.754 0 0 1 0-1.06c.29-.29.77-.29 1.06 0l1.52 1.52 4.01-4.01c.29-.29.77-.29 1.06 0s.29.77 0 1.06L7.28 10.8a.75.75 0 0 1-.53.22z"/></g></svg>