<svg xmlns="http://www.w3.org/2000/svg" viewBox="0 0 16 16" style="enable-background:new 0 0 16 16" xml:space="preserve"><style>.st0{display:none}.st2{display:inline;fill:none;stroke:#33383d;stroke-width:1.5;stroke-linecap:round;stroke-linejoin:round;stroke-miterlimit:10}.st10{fill:#33383d}</style><g id="Genesys"><path class="st10" d="M3.5 9.75c-.41 0-.75.34-.75.75v2c0 .41.34.75.75.75s.75-.34.75-.75v-2c0-.42-.34-.75-.75-.75zM6.5 5.75c-.41 0-.75.34-.75.75v6c0 .41.34.75.75.75s.75-.34.75-.75v-6c0-.41-.34-.75-.75-.75zM9.5 8.75c-.41 0-.75.34-.75.75v3c0 .41.34.75.75.75s.75-.34.75-.75v-3c0-.42-.33-.75-.75-.75zM12.5 6.75c-.41 0-.75.34-.75.75v5c0 .41.34.75.75.75s.75-.34.75-.75v-5c0-.41-.33-.75-.75-.75z"/><path class="st10" d="M14 0H2C.9 0 0 .9 0 2v12c0 1.1.9 2 2 2h12c1.1 0 2-.9 2-2V2c0-1.1-.9-2-2-2zm0 14.5H2c-.28 0-.5-.22-.5-.5V2c0-.28.22-.5.5-.5h12c.28 0 .5.22.5.5v.75H3.25c-.41 0-.75.34-.75.75s.34.75.75.75H14.5V14c0 .27-.22.5-.5.5z"/></g></svg>