<svg xmlns="http://www.w3.org/2000/svg" viewBox="0 0 16 16" style="enable-background:new 0 0 16 16" xml:space="preserve"><style>.st0{display:none}.st2{display:inline;fill:none;stroke:#33383d;stroke-width:1.5;stroke-linecap:round;stroke-linejoin:round;stroke-miterlimit:10}</style><path d="M14 0H2C.9 0 0 .9 0 2v12c0 1.1.9 2 2 2h12c1.1 0 2-.9 2-2V2c0-1.1-.9-2-2-2zM5.25 4.25h9.25v5.5H5.25v-5.5zM1.5 14V2c0-.28.22-.5.5-.5h12c.28 0 .5.22.5.5v.75H3.25c-.41 0-.75.34-.75.75s.34.75.75.75h.5V14.5H2c-.28 0-.5-.23-.5-.5zm12.5.5H5.25v-3.25h9.25V14c0 .27-.22.5-.5.5z" style="fill:#33383d" id="Genesys"/></svg>