<svg version="1.1" id="FNL_OL" xmlns="http://www.w3.org/2000/svg" x="0" y="0" viewBox="0 0 16 16" style="enable-background:new 0 0 16 16" xml:space="preserve"><style>.st0{fill:#33383d}</style><path class="st0" d="M8 11.71c-.41 0-.75-.34-.75-.75V1.5c0-.41.34-.75.75-.75s.75.34.75.75v9.46c0 .42-.33.75-.75.75z"/><path class="st0" d="M8 15.25a.75.75 0 0 1-.53-.22l-4.55-4.55c-.29-.29-.29-.77 0-1.06s.77-.29 1.06 0L8 13.44l4.02-4.02c.29-.29.77-.29 1.06 0s.29.77 0 1.06l-4.55 4.55a.75.75 0 0 1-.53.22z"/></svg>