<svg version="1.1" id="FNL_OL" xmlns="http://www.w3.org/2000/svg" x="0" y="0" viewBox="0 0 16 16" style="enable-background:new 0 0 16 16" xml:space="preserve"><style>.st0{fill:#33383d}</style><path class="st0" d="M12.75 13.5c-.19 0-.38-.07-.53-.22L5.31 6.36c-.29-.29-.29-.77 0-1.06s.77-.29 1.06 0l6.92 6.92c.29.29.29.77 0 1.06-.15.15-.34.22-.54.22z"/><path class="st0" d="M3.25 10.65c-.41 0-.75-.34-.75-.75V3.25c0-.41.34-.75.75-.75H9.9c.41 0 .75.34.75.75s-.33.75-.74.75H4v5.9c0 .42-.33.75-.75.75z"/></svg>