<svg version="1.1" id="FNL_OL" xmlns="http://www.w3.org/2000/svg" x="0" y="0" viewBox="0 0 16 16" style="enable-background:new 0 0 16 16" xml:space="preserve"><style>.st0{fill:#33383d}</style><path class="st0" d="M8 15.25c-.41 0-.75-.34-.75-.75V5.04c0-.41.34-.75.75-.75s.75.34.75.75v9.46c0 .41-.33.75-.75.75z"/><path class="st0" d="M3.45 6.8c-.19 0-.38-.07-.53-.22a.754.754 0 0 1 0-1.06L7.47.97c.28-.28.78-.28 1.06 0l4.55 4.55c.29.29.29.77 0 1.06s-.77.29-1.06 0L8 2.56 3.98 6.58a.71.71 0 0 1-.53.22z"/></svg>