<svg version="1.1" id="FNL_OL" xmlns="http://www.w3.org/2000/svg" x="0" y="0" viewBox="0 0 16 16" style="enable-background:new 0 0 16 16" xml:space="preserve"><style>.st0{fill:#33383d}</style><path class="st0" d="M3.25 13.5c-.19 0-.38-.07-.53-.22a.754.754 0 0 1 0-1.06L9.64 5.3c.29-.29.77-.29 1.06 0s.29.77 0 1.06l-6.92 6.92a.71.71 0 0 1-.53.22z"/><path class="st0" d="M12.75 10.65c-.41 0-.75-.34-.75-.75V4H6.1c-.41 0-.75-.34-.75-.75s.34-.75.75-.75h6.65c.41 0 .75.34.75.75V9.9c0 .42-.33.75-.75.75z"/></svg>