<svg version="1.1" id="FNL_OL" xmlns="http://www.w3.org/2000/svg" x="0" y="0" viewBox="0 0 16 16" style="enable-background:new 0 0 16 16" xml:space="preserve"><style>.st0{fill:#33383d}</style><path class="st0" d="M14.5 8.75H5.04c-.41 0-.75-.34-.75-.75s.34-.75.75-.75h9.46a.749.749 0 1 1 0 1.5z"/><path class="st0" d="M6.06 13.3c-.19 0-.38-.07-.53-.22L.98 8.53C.83 8.39.76 8.2.76 8s.08-.39.22-.53l4.55-4.55c.29-.29.77-.29 1.06 0s.29.77 0 1.06L2.57 8l4.02 4.02c.29.29.29.77 0 1.06-.15.15-.34.22-.53.22z"/></svg>