<svg version="1.1" id="FNL_OL" xmlns="http://www.w3.org/2000/svg" x="0" y="0" viewBox="0 0 16 16" style="enable-background:new 0 0 16 16" xml:space="preserve"><style></style><path d="M5.55 16c-1.24 0-2.48-.47-3.42-1.41a4.853 4.853 0 0 1 0-6.84l6.62-6.62c1.45-1.45 3.97-1.45 5.41 0 .72.72 1.12 1.68 1.12 2.71s-.4 1.98-1.12 2.71L8.82 11.9c-1.1 1.1-2.89 1.1-3.99 0s-1.1-2.89 0-3.99l3.95-3.95c.29-.29.77-.29 1.06 0s.29.77 0 1.06L5.9 8.95c-.51.51-.51 1.35 0 1.87.52.51 1.35.51 1.87 0l5.34-5.35c.44-.44.68-1.02.68-1.65s-.24-1.21-.68-1.65c-.91-.91-2.38-.91-3.29 0L3.19 8.81c-1.3 1.3-1.3 3.42 0 4.72 1.3 1.3 3.42 1.3 4.72 0l5.23-5.23a.745.745 0 1 1 1.06 1.05l-5.23 5.23A4.79 4.79 0 0 1 5.55 16z" style="fill:#33383d"/></svg>