<svg xmlns="http://www.w3.org/2000/svg" viewBox="0 0 16 16" style="enable-background:new 0 0 16 16" xml:space="preserve"><style>.st0{display:none}.st11{fill:#33383d}</style><g id="Genesys"><path class="st11" d="M15.25 12.25H.75c-.41 0-.75-.34-.75-.75v-1.33c0-.24.12-.47.32-.61.59-.42 1.35-1.24 1.67-2.28L3.13 3.6C3.8 1.41 5.72 0 8 0c2.28 0 4.2 1.41 4.87 3.59l1.14 3.68c.32 1.04 1.07 1.86 1.67 2.28.2.15.32.38.32.62v1.33c0 .41-.34.75-.75.75zM1.5 10.75h13v-.21c-.88-.73-1.59-1.76-1.92-2.82l-1.14-3.68C10.86 2.17 9.28 1.5 8 1.5c-1.28 0-2.86.67-3.44 2.53L3.42 7.72c-.33 1.07-1.04 2.1-1.92 2.82v.21zM8 16c-.22 0-.44-.02-.65-.06-.21-.04-.41-.11-.61-.19-.19-.08-.38-.18-.55-.3-.17-.12-.33-.25-.48-.39-.15-.15-.28-.31-.39-.48a.753.753 0 0 1 .2-1.04c.34-.23.81-.14 1.04.2.06.09.13.18.21.25.08.08.16.15.26.21.09.06.19.11.29.16a1.701 1.701 0 0 0 1.62-.16 1.709 1.709 0 0 0 .46-.47c.23-.34.7-.43 1.04-.2.34.23.43.7.2 1.04-.12.17-.25.33-.39.48-.14.15-.3.28-.48.39-.17.12-.36.22-.55.3-.19.08-.4.15-.6.19-.18.05-.4.07-.62.07z"/></g></svg>