<svg xmlns="http://www.w3.org/2000/svg" viewBox="0 0 16 16" style="enable-background:new 0 0 16 16" xml:space="preserve"><style>.st0{display:none}.st8{display:inline;fill:none;stroke:#33383d;stroke-width:1.5;stroke-linecap:round;stroke-linejoin:round;stroke-miterlimit:10}</style><path d="M8 16c-.08 0-.16-.01-.24-.04a.741.741 0 0 1-.51-.71v-4H.75a.76.76 0 0 1-.67-.41c-.13-.25-.1-.56.07-.78L7.4.31c.19-.26.53-.37.84-.26.31.1.51.39.51.71V5.5c0 .41-.34.75-.75.75s-.75-.34-.75-.75V3.02l-5 6.73h5.76c.41 0 .75.34.75.75v2.48l5-6.74H10.5c-.41 0-.75-.34-.75-.75s.34-.75.75-.75h4.75c.28 0 .54.16.67.41.13.25.1.56-.07.78L8.6 15.7c-.14.19-.37.3-.6.3z" style="fill:#33383d" id="Genesys"/></svg>