<svg xmlns="http://www.w3.org/2000/svg" viewBox="0 0 16 16" style="enable-background:new 0 0 16 16" xml:space="preserve"><style>.st0{display:none}.st2{fill:none;stroke:#33383d;stroke-width:1.5;stroke-linecap:round;stroke-linejoin:round;stroke-miterlimit:10}.st2,.st5{display:inline}.st10,.st5{fill:#33383d}</style><g id="Genesys"><path class="st10" d="M15.25 6.75H14v-1c0-1.65-1.35-3-3-3h-.69c-.41 0-.75.34-.75.75s.34.75.75.75H11c.83 0 1.5.67 1.5 1.5V13c0 .83-.67 1.5-1.5 1.5H5c-.83 0-1.5-.67-1.5-1.5V5.75c0-.83.67-1.5 1.5-1.5h3a.75.75 0 0 0 .75-.75V.75a.749.749 0 1 0-1.5 0v2H5c-1.65 0-3 1.35-3 3v1H.75c-.41 0-.75.33-.75.75v4c0 .41.34.75.75.75H2V13c0 1.65 1.35 3 3 3h6c1.65 0 3-1.35 3-3v-.75h1.25c.41 0 .75-.34.75-.75v-4c0-.42-.34-.75-.75-.75zm-13.75 4v-2.5H2v2.5h-.5zm13 0H14v-2.5h.5v2.5z"/><circle class="st10" cx="6" cy="8" r="1"/><circle class="st10" cx="10" cy="8" r="1"/><path class="st10" d="M4.75 11.5c0 .41.34.75.75.75h5c.41 0 .75-.34.75-.75s-.34-.75-.75-.75h-5c-.42 0-.75.34-.75.75z"/></g></svg>