<svg xmlns="http://www.w3.org/2000/svg" viewBox="0 0 16 16" style="enable-background:new 0 0 16 16" xml:space="preserve"><style>.st0{display:none}.st3{display:inline;fill:none;stroke:#33383d;stroke-width:1.5;stroke-linecap:round;stroke-linejoin:round;stroke-miterlimit:10}</style><path d="M15.25 9.25h-1.6c.03-.3.05-.61.05-.92 0-.72-.08-1.42-.22-2.08h1.77c.41 0 .75-.34.75-.75s-.34-.75-.75-.75h-2.22c-.48-1.22-1.19-2.23-2.06-2.95l.34-.72c.18-.37.02-.82-.36-1a.748.748 0 0 0-1 .36L9.68 1C9.15.78 8.59.66 8 .66c-.59 0-1.15.12-1.68.34L6.05.44a.745.745 0 0 0-1-.36c-.38.18-.54.62-.36 1l.34.72c-.86.72-1.58 1.73-2.06 2.95H.75a.749.749 0 1 0 0 1.5h1.77c-.13.66-.21 1.36-.21 2.08 0 .31.02.62.05.92H.76c-.42 0-.76.34-.76.75s.34.75.75.75H2.6c.23.93.59 1.78 1.05 2.52L2.2 14.72c-.29.29-.29.77 0 1.06.15.15.34.22.53.22s.38-.07.53-.22l1.33-1.33C5.54 15.42 6.72 16 8 16c1.28 0 2.46-.58 3.41-1.54l1.33 1.33c.15.15.34.22.53.22s.38-.07.53-.22c.29-.29.29-.77 0-1.06l-1.45-1.45c.46-.73.82-1.59 1.05-2.52h1.85c.41 0 .75-.34.75-.75s-.34-.76-.75-.76zM3.81 8.33c0-3.4 1.88-6.17 4.19-6.17 1.4 0 2.65 1.02 3.41 2.59H6.06c-.41 0-.75.34-.75.75s.34.75.75.75h1.19v8.14c-1.95-.52-3.44-3.04-3.44-6.06zm4.94 6.06V6.25h3.19c.16.65.25 1.35.25 2.08 0 3.02-1.49 5.54-3.44 6.06z" style="fill:#33383d" id="Genesys"/></svg>