<svg xmlns="http://www.w3.org/2000/svg" viewBox="0 0 16 16" style="enable-background:new 0 0 16 16" xml:space="preserve"><style>.st0{display:none}.st3{fill:none;stroke:#33383d;stroke-width:1.5;stroke-linecap:round;stroke-linejoin:round;stroke-miterlimit:10}.st3,.st4{display:inline}.st11,.st4{fill:#33383d}</style><g id="Genesys"><path class="st11" d="M15.25 4.61c-.23 0-.43.11-.57.28V2.73c0-1.5-1.22-2.73-2.73-2.73h-7.9c-1.5 0-2.73 1.22-2.73 2.73V4.9a.745.745 0 0 0-.57-.29c-.41 0-.75.34-.75.75v1.31c0 .41.34.75.75.75.23 0 .43-.11.57-.28v6.78c0 1.14.93 2.07 2.07 2.07h.66c1.03 0 1.89-.76 2.04-1.75H9.9c.15.99 1.01 1.75 2.04 1.75h.66c1.14 0 2.07-.93 2.07-2.07V7.15c.14.17.34.28.57.28.41 0 .75-.34.75-.75V5.36a.74.74 0 0 0-.74-.75zm-2.64 9.89h-.66a.57.57 0 0 1-.57-.57v-.43c0-.41-.34-.75-.75-.75H5.37c-.41 0-.75.34-.75.75v.43c0 .31-.25.57-.57.57h-.66a.57.57 0 0 1-.57-.57V2.73c0-.68.55-1.23 1.23-1.23h7.91c.68 0 1.23.55 1.23 1.23v.02H4.57c-.41 0-.75.34-.75.75s.34.75.75.75h8.61v3.5H4.57c-.41 0-.75.34-.75.75s.34.75.75.75h8.61v4.68c0 .31-.25.57-.57.57z"/><circle class="st11" cx="5" cy="11" r="1"/><circle class="st11" cx="11" cy="11" r="1"/></g></svg>