<svg xmlns="http://www.w3.org/2000/svg" viewBox="0 0 16 16" style="enable-background:new 0 0 16 16" xml:space="preserve"><style>.st0{display:none}.st1{display:inline;fill:none;stroke:#33383d;stroke-width:1.5;stroke-linecap:round;stroke-linejoin:round;stroke-miterlimit:10}</style><path d="M13.5 1.25h-1.25v-.5a.749.749 0 1 0-1.5 0v.5h-5.5v-.5a.749.749 0 1 0-1.5 0v.5H2.5A2.5 2.5 0 0 0 0 3.75v9.75A2.5 2.5 0 0 0 2.5 16h11a2.5 2.5 0 0 0 2.5-2.5V3.75a2.5 2.5 0 0 0-2.5-2.5zm0 13.25h-11c-.55 0-1-.45-1-1V3.75c0-.55.45-1 1-1h1.25v.5a.749.749 0 1 0 1.5 0v-.5h5.5v.5a.749.749 0 1 0 1.5 0v-.5h1.25c.55 0 1 .45 1 1v1H3.25c-.41 0-.75.34-.75.75s.34.75.75.75H14.5v7.25c0 .55-.45 1-1 1z" style="fill:#33383d" id="Genesys"/></svg>