<svg xmlns="http://www.w3.org/2000/svg" viewBox="0 0 16 16" style="enable-background:new 0 0 16 16" xml:space="preserve"><style>.st0{display:none}.st3{display:inline;fill:none;stroke:#33383d;stroke-width:1.5;stroke-linecap:round;stroke-linejoin:round;stroke-miterlimit:10}</style><path d="M15.25 5.6V.75c0-.25-.13-.49-.34-.63a.748.748 0 0 0-.71-.06L7.35 3H2C.9 3 0 3.9 0 5v4c0 1.1.9 2 2 2h.18l.57 4.35c.05.37.37.65.75.65h3.75c.41 0 .75-.34.75-.75s-.34-.75-.75-.75h-.43L6.36 11h.99l6.85 2.96a.765.765 0 0 0 .71-.06c.21-.14.34-.37.34-.63V8.42c.41 0 .75-.34.75-.75V6.35c0-.41-.34-.75-.75-.75zm-9.94 8.9H4.16L3.69 11h1.15l.47 3.5zm8.44-2.37-5.5-2.37V6.25c0-.41-.34-.75-.75-.75s-.75.34-.75.75V9.5H2c-.27 0-.5-.22-.5-.5V5c0-.28.22-.5.5-.5h5.5c.1 0 .2-.02.3-.06l5.95-2.55v10.24z" style="fill:#33383d" id="Genesys"/></svg>