<svg xmlns="http://www.w3.org/2000/svg" viewBox="0 0 16 16" style="enable-background:new 0 0 16 16" xml:space="preserve"><style>.st0{display:none}.st4{display:inline;fill:none;stroke:#33383d;stroke-width:1.5;stroke-linecap:round;stroke-linejoin:round;stroke-miterlimit:10}.st8{fill:#33383d}</style><g id="Genesys"><path class="st8" d="M15.25 0H.75C.34 0 0 .34 0 .75V12.5c0 .41.34.75.75.75h4.77c.41 0 .75-.34.75-.75s-.34-.75-.75-.75H1.5V1.5h13v10.25h-1.77V8.01c.41-.56.66-1.24.66-1.99 0-1.87-1.52-3.39-3.39-3.39S6.61 4.15 6.61 6.02c0 .75.25 1.43.66 1.99v7.24c0 .28.15.53.4.66s.54.12.77-.04L10 14.83l1.56 1.04a.73.73 0 0 0 .77.04c.24-.13.4-.38.4-.66v-2h2.52c.41 0 .75-.34.75-.75V.75c0-.41-.34-.75-.75-.75zM10 4.14c1.04 0 1.89.85 1.89 1.89S11.04 7.92 10 7.92s-1.89-.86-1.89-1.9.85-1.88 1.89-1.88zm.42 9.17a.74.74 0 0 0-.83 0l-.81.54V9.17c.37.15.79.24 1.22.24s.84-.09 1.23-.24v4.68l-.81-.54z"/><path class="st8" d="M4.5 2.75h-1a.749.749 0 1 0 0 1.5h1a.749.749 0 1 0 0-1.5zM4.5 5.75h-1a.749.749 0 1 0 0 1.5h1a.749.749 0 1 0 0-1.5zM4.5 8.75h-1c-.41 0-.75.34-.75.75s.34.75.75.75h1a.749.749 0 1 0 0-1.5z"/></g></svg>