<svg version="1.1" id="FNL_OL" xmlns="http://www.w3.org/2000/svg" x="0" y="0" viewBox="0 0 16 16" style="enable-background:new 0 0 16 16" xml:space="preserve"><style>.st0{fill:#33383d}</style><path class="st0" d="M7.39 16c-.19 0-.38-.07-.53-.22a.754.754 0 0 1 0-1.06l2.5-2.5a.75.75 0 0 1 .53-.22H12a2.5 2.5 0 0 0 2.5-2.5v-.75c0-.42.33-.75.75-.75s.75.33.75.75v.75c0 2.21-1.79 4-4 4h-1.8l-2.28 2.28c-.15.14-.34.22-.53.22zM6.63 13.5H4c-2.21 0-4-1.79-4-4V4c0-2.21 1.8-4 4-4h3.25c.41 0 .75.34.75.75s-.34.75-.75.75H4A2.5 2.5 0 0 0 1.5 4v5.5A2.5 2.5 0 0 0 4 12h2.62c.41 0 .75.34.75.75s-.33.75-.74.75z"/><path class="st0" d="M15.25 6.58H8.34c-.41 0-.75-.34-.75-.75v-.11c0-.29.17-.55.43-.68.31-.15.55-.42.66-.76l.8-2.57C9.79.67 10.71 0 11.79 0s2 .67 2.32 1.71l.8 2.57c.1.33.34.61.66.76.26.13.43.39.43.68v.11c0 .41-.34.75-.75.75zm-5.28-1.5h3.64c-.05-.11-.1-.23-.13-.35l-.8-2.57c-.15-.48-.56-.66-.89-.66s-.74.17-.89.66l-.8 2.57c-.03.12-.07.24-.13.35zM12.33 8.75h-1.06c-.41 0-.75-.34-.75-.75s.34-.75.75-.75h1.06c.41 0 .75.34.75.75s-.34.75-.75.75z"/></svg>