<svg version="1.1" id="FNL_OL" xmlns="http://www.w3.org/2000/svg" x="0" y="0" viewBox="0 0 16 16" style="enable-background:new 0 0 16 16" xml:space="preserve"><style>.st0{fill:#33383d}</style><path class="st0" d="M11.7 9c-.19 0-.38-.07-.53-.22L9.75 7.43C8.23 7.43 7 6.2 7 4.68V2.75C7 1.24 8.23 0 9.75 0h3.5C14.76 0 16 1.24 16 2.75v1.93c0 1.52-1.23 2.75-2.75 2.75a.749.749 0 1 1 0-1.5c.69 0 1.25-.56 1.25-1.25V2.75c0-.69-.56-1.25-1.25-1.25h-3.5c-.69 0-1.25.56-1.25 1.25v1.93c0 .69.56 1.25 1.25 1.25h.38c.2 0 .39.08.53.22l1.57 1.57c.29.29.29.77 0 1.06a.71.71 0 0 1-.53.22zM7.39 16c-.19 0-.38-.07-.53-.22a.754.754 0 0 1 0-1.06l2.5-2.5a.75.75 0 0 1 .53-.22H12a2.5 2.5 0 0 0 2.5-2.5v-.75c0-.42.33-.75.75-.75s.75.33.75.75v.75c0 2.21-1.79 4-4 4h-1.8l-2.28 2.28c-.15.14-.34.22-.53.22zM6.63 13.5H4c-2.21 0-4-1.79-4-4V4c0-2.21 1.8-4 4-4h1.5c.41 0 .75.34.75.75s-.34.75-.75.75H4A2.5 2.5 0 0 0 1.5 4v5.5A2.5 2.5 0 0 0 4 12h2.62c.41 0 .75.34.75.75s-.33.75-.74.75z"/></svg>