<svg version="1.1" id="FNL_OL" xmlns="http://www.w3.org/2000/svg" x="0" y="0" viewBox="0 0 16 16" style="enable-background:new 0 0 16 16" xml:space="preserve"><style>.st0{fill:#33383d}</style><path class="st0" d="m15.31 1.75.47-.47c.29-.29.29-.77 0-1.06s-.77-.29-1.06 0L.22 14.72c-.29.29-.29.77 0 1.06.15.14.34.22.53.22s.38-.07.53-.22l2.32-2.32c.14.01.27.04.4.04h2.62c.41 0 .75-.34.75-.75S7.04 12 6.63 12H5.06l9.14-9.14c.19.34.3.73.3 1.14v5.5A2.5 2.5 0 0 1 12 12H9.89c-.2 0-.39.08-.53.22l-2.5 2.5c-.29.29-.29.77 0 1.06.15.14.34.22.53.22s.38-.07.53-.22l2.28-2.28H12c2.21 0 4-1.79 4-4V4c0-.81-.25-1.59-.69-2.25zM1.25 11.97c.14 0 .27-.04.4-.11.35-.22.46-.68.24-1.03-.26-.41-.39-.87-.39-1.33V4A2.5 2.5 0 0 1 4 1.5h7.71c.41 0 .75-.34.75-.75S12.12 0 11.71 0H4C1.8 0 0 1.79 0 4v5.5c0 .75.21 1.48.61 2.12.14.22.39.35.64.35z"/></svg>