<svg xmlns="http://www.w3.org/2000/svg" viewBox="0 0 16 16" style="enable-background:new 0 0 16 16" xml:space="preserve"><style>.st0{display:none}.st1{display:inline;fill:none;stroke:#33383d;stroke-width:1.5;stroke-linecap:round;stroke-linejoin:round;stroke-miterlimit:10}.st10{fill:#33383d}</style><g id="Genesys"><path class="st10" d="M15.25 16H.75c-.41 0-.75-.34-.75-.75V.75C0 .34.34 0 .75 0h14.5c.41 0 .75.34.75.75v14.5c0 .41-.34.75-.75.75zM1.5 14.5h13v-13h-13v13z"/><path class="st10" d="M11.25 8.75h-6.5C4.34 8.75 4 8.41 4 8s.34-.75.75-.75h6.5c.41 0 .75.34.75.75s-.34.75-.75.75z"/></g></svg>