<svg xmlns="http://www.w3.org/2000/svg" viewBox="0 0 16 16" style="enable-background:new 0 0 16 16" xml:space="preserve"><style>.st0{display:none}.st3{fill:none;stroke:#33383d;stroke-width:1.5;stroke-linecap:round;stroke-linejoin:round;stroke-miterlimit:10}.st10{fill:#33383d}</style><g id="Genesys"><path class="st10" d="M9.18 12.82c-.19 0-.38-.07-.53-.22a.754.754 0 0 1 0-1.06L12.19 8 8.65 4.46c-.29-.29-.29-.77 0-1.06s.77-.29 1.06 0l4.07 4.07c.29.29.29.77 0 1.06L9.71 12.6c-.15.15-.34.22-.53.22z"/><path class="st10" d="M3.75 12.82c-.19 0-.38-.07-.53-.22a.754.754 0 0 1 0-1.06L6.76 8 3.22 4.46c-.29-.29-.29-.77 0-1.06s.77-.29 1.06 0l4.07 4.07a.75.75 0 0 1 0 1.06L4.28 12.6c-.15.15-.34.22-.53.22z"/></g></svg>