<svg xmlns="http://www.w3.org/2000/svg" viewBox="0 0 16 16" style="enable-background:new 0 0 16 16" xml:space="preserve"><style>.st0{display:none}.st3{fill:none;stroke:#33383d;stroke-width:1.5;stroke-linecap:round;stroke-linejoin:round;stroke-miterlimit:10}.st10{fill:#33383d}</style><g id="Genesys"><path class="st10" d="M6.82 12.82c-.19 0-.38-.07-.53-.22L2.22 8.53a.75.75 0 0 1 0-1.06L6.29 3.4c.29-.29.77-.29 1.06 0s.29.77 0 1.06L3.81 8l3.54 3.54c.29.29.29.77 0 1.06-.15.15-.34.22-.53.22z"/><path class="st10" d="M12.25 12.82c-.19 0-.38-.07-.53-.22L7.65 8.53a.754.754 0 0 1 0-1.06l4.07-4.07c.29-.29.77-.29 1.06 0s.29.77 0 1.06L9.24 8l3.54 3.54c.29.29.29.77 0 1.06-.15.15-.34.22-.53.22z"/></g></svg>