<svg version="1.1" id="FNL_OL" xmlns="http://www.w3.org/2000/svg" x="0" y="0" viewBox="0 0 16 16" style="enable-background:new 0 0 16 16" xml:space="preserve"><style></style><path d="M15.34 12.12V6.89c0-.14-.04-.28-.12-.4l-1.8-2.84a.75.75 0 0 0-.63-.35h-1.54V1.5c0-.41-.34-.75-.75-.75H.75C.34.75 0 1.09 0 1.5v11.35c0 .41.34.75.75.75h.88c.32.95 1.21 1.65 2.27 1.65s1.95-.69 2.27-1.65h3.67c.32.95 1.21 1.65 2.27 1.65s1.95-.69 2.27-1.65h.88c.41 0 .75-.34.75-.75a.762.762 0 0 0-.67-.73zM1.5 2.25h8.25v1.79c0 .41.34.75.75.75h1.88l1.47 2.31v.14h-2.59V6.5a.755.755 0 0 0-1.51 0V8c0 .41.34.75.75.75h3.34v2.47c-.44-.47-1.05-.76-1.74-.76-1.06 0-1.95.69-2.27 1.65H6.16c-.32-.95-1.21-1.65-2.27-1.65s-1.95.69-2.27 1.65H1.5V2.25zm2.4 11.5c-.5 0-.9-.4-.9-.9s.4-.9.9-.9.9.4.9.9-.41.9-.9.9zm8.2 0c-.5 0-.9-.4-.9-.9s.4-.9.9-.9.9.4.9.9-.4.9-.9.9z" style="fill:#33383d"/></svg>