<svg xmlns="http://www.w3.org/2000/svg" viewBox="0 0 16 16" style="enable-background:new 0 0 16 16" xml:space="preserve"><style>.st0{display:none}.st1,.st2{fill:none;stroke:#33383d;stroke-linecap:round;stroke-linejoin:round;stroke-miterlimit:10}.st1{display:inline;stroke-width:1.5}.st2{stroke-width:1.3}.st2,.st3{display:inline}.st12{fill:none;stroke:#33383d;stroke-width:1.5;stroke-linecap:round;stroke-linejoin:round;stroke-miterlimit:10}.st19{fill:#33383d}</style><g id="Genesys"><path class="st19" d="M14.09 3.88 10.87.66C10.45.24 9.87 0 9.28 0H3.5C2.26 0 1.25 1.01 1.25 2.25v11.5C1.25 14.99 2.26 16 3.5 16h8c.41 0 .75-.34.75-.75s-.34-.75-.75-.75h-8c-.41 0-.75-.34-.75-.75V2.25c0-.41.34-.75.75-.75h5.14v2.36c0 .31.06.6.17.87-.26-.08-.53-.13-.81-.13-1.51 0-2.75 1.23-2.75 2.75a2.744 2.744 0 0 0 5.49 0c0-.46-.13-.89-.33-1.28.15.03.31.05.47.05h2.36v9.14c0 .41.34.75.75.75s.75-.34.75-.75V5.48c.01-.6-.22-1.17-.65-1.6zM8 8.58c-.69 0-1.25-.56-1.25-1.24 0-.69.56-1.24 1.25-1.24s1.24.56 1.24 1.25c0 .68-.55 1.23-1.24 1.23zm2.13-4.71V2.05l2.57 2.57h-1.82c-.41 0-.75-.34-.75-.75z"/><path class="st19" d="M9.72 10.75H6.28c-.97 0-1.88.52-2.36 1.36l-.19.33c-.21.37-.09.83.27 1.04.36.21.82.08 1.02-.27l.19-.33c.22-.38.63-.61 1.06-.61h3.44c.44 0 .84.24 1.06.61l.19.33c.14.24.39.38.65.38.13 0 .26-.03.37-.1.36-.21.48-.67.27-1.02l-.19-.33a2.669 2.669 0 0 0-2.34-1.39z"/></g></svg>