<svg version="1.1" id="Genesys" xmlns="http://www.w3.org/2000/svg" x="0" y="0" viewBox="0 0 16 16" style="enable-background:new 0 0 16 16" xml:space="preserve"><style></style><path d="M8 0C3.59 0 0 3.59 0 8s3.59 8 8 8 8-3.59 8-8-3.59-8-8-8zm0 14.5c-.72 0-1.64-1.19-2.14-3.25h4.27C9.64 13.31 8.72 14.5 8 14.5zM5.61 9.75C5.54 9.2 5.5 8.62 5.5 8c0-.62.04-1.2.1-1.75h2.89a.749.749 0 1 0 0-1.5H5.86C6.36 2.68 7.28 1.5 8 1.5c1.04 0 2.5 2.47 2.5 6.5 0 .62-.04 1.2-.1 1.75H5.61zM1.5 8c0-.61.09-1.19.25-1.75H4.1C4.04 6.81 4 7.39 4 8c0 .6.04 1.19.09 1.75H1.75A6.38 6.38 0 0 1 1.5 8zm10.41-1.75h2.35c.15.56.24 1.14.24 1.75 0 .61-.09 1.19-.25 1.75H11.9c.06-.56.1-1.15.1-1.75 0-.61-.04-1.19-.09-1.75zm1.71-1.5h-1.95c-.21-1.01-.52-1.9-.91-2.63 1.2.57 2.2 1.49 2.86 2.63zM5.24 2.12c-.39.73-.7 1.62-.91 2.63H2.38a6.557 6.557 0 0 1 2.86-2.63zm-2.86 9.13h1.95c.21 1.01.52 1.9.91 2.63-1.2-.57-2.2-1.49-2.86-2.63zm8.38 2.62c.39-.73.7-1.62.91-2.63h1.95a6.442 6.442 0 0 1-2.86 2.63z" style="fill:#33383d"/></svg>