<svg version="1.1" id="Genesys" xmlns="http://www.w3.org/2000/svg" x="0" y="0" viewBox="0 0 16 16" style="enable-background:new 0 0 16 16" xml:space="preserve"><style>.st1{fill:#fff}</style><circle cx="8" cy="8" r="8" style="fill:#33383d"/><path class="st1" d="M10.5 9c-.09 0-.18-.02-.26-.07l-2.5-1.5A.495.495 0 0 1 7.5 7V4c0-.28.22-.5.5-.5s.5.23.5.5v2.72l2.25 1.35c.24.14.31.45.17.69a.47.47 0 0 1-.42.24z"/><path class="st1" d="M7.41 14a.47.47 0 0 1-.35-.15c-.2-.2-.2-.51 0-.71l2-2a.5.5 0 0 1 .35-.14h.92a2.5 2.5 0 0 0 2.5-2.5v-3a2.5 2.5 0 0 0-2.5-2.5H5.67a2.5 2.5 0 0 0-2.5 2.5v3a2.5 2.5 0 0 0 2.5 2.5h1.19c.28 0 .5.22.5.5s-.23.5-.5.5H5.67c-1.93 0-3.5-1.57-3.5-3.5v-3c0-1.93 1.57-3.5 3.5-3.5h4.67c1.93 0 3.5 1.57 3.5 3.5v3c0 1.93-1.57 3.5-3.5 3.5h-.72l-1.85 1.86c-.1.09-.23.14-.36.14z"/></svg>