<svg version="1.1" id="Genesys" xmlns="http://www.w3.org/2000/svg" x="0" y="0" viewBox="0 0 16 16" style="enable-background:new 0 0 16 16" xml:space="preserve"><style>.st1{fill:#fff}</style><circle cx="8" cy="8" r="8" style="fill:#33383d"/><path class="st1" d="M8 10c.28 0 .5-.22.5-.5V5.71l1.15 1.15c.09.09.22.14.35.14s.26-.05.35-.15c.2-.2.2-.51 0-.71l-2-2c-.2-.2-.51-.2-.71 0l-2 2c-.2.2-.2.51 0 .71s.51.2.71 0L7.5 5.71V9.5c0 .28.22.5.5.5z"/><path class="st1" d="M10.33 2H5.67c-1.93 0-3.5 1.57-3.5 3.5v3c0 1.93 1.57 3.5 3.5 3.5h1.19c.28 0 .5-.22.5-.5s-.23-.5-.5-.5H5.67a2.5 2.5 0 0 1-2.5-2.5v-3A2.5 2.5 0 0 1 5.67 3h4.67a2.5 2.5 0 0 1 2.5 2.5v3a2.5 2.5 0 0 1-2.5 2.5h-.93a.47.47 0 0 0-.35.15l-2 2a.495.495 0 1 0 .7.7L9.62 12h.71c1.93 0 3.5-1.57 3.5-3.5v-3c0-1.93-1.57-3.5-3.5-3.5z"/></svg>