<svg xmlns="http://www.w3.org/2000/svg" viewBox="0 0 16 16" style="enable-background:new 0 0 16 16" xml:space="preserve"><circle cx="8" cy="8" r="8" style="fill:#33383d"/><path d="M10.78 13a.53.53 0 0 1-.27-.08L8 11.29l-2.38 1.54c-.35.23-.79.21-1.13-.03a.975.975 0 0 1-.38-1.06L4.84 9l-2.2-1.79c-.32-.26-.45-.69-.32-1.08s.48-.67.9-.69l2.83-.15 1.02-2.64c.15-.4.51-.65.93-.65s.78.25.93.64l1.02 2.64 2.83.15c.42.02.77.29.9.69.13.4 0 .82-.32 1.09L11.16 9l.34 1.27a.5.5 0 0 1-.35.61.504.504 0 0 1-.61-.35l-.34-1.27c-.1-.38.03-.79.34-1.03l2.2-1.79-2.84-.15c-.4-.03-.74-.28-.88-.64L8 3 6.98 5.65c-.14.36-.49.61-.88.64l-2.83.15 2.2 1.79c.31.25.44.65.34 1.03L5.08 12l2.38-1.54c.33-.21.76-.21 1.09 0l2.51 1.63c.23.15.3.46.15.69-.11.14-.27.22-.43.22z" style="fill:#fff"/></svg>