<svg xmlns="http://www.w3.org/2000/svg" viewBox="0 0 16 16" style="enable-background:new 0 0 16 16" xml:space="preserve"><circle cx="8" cy="8" r="8" style="fill:#33383d"/><path d="M10.66 12.78a.53.53 0 0 1-.27-.08l-2.4-1.56-2.25 1.47a.98.98 0 0 1-1.11-.03.96.96 0 0 1-.37-1.04l.7-2.62-2.1-1.68a.951.951 0 0 1-.31-1.06c.13-.39.47-.65.88-.67l2.71-.14.95-2.51c.14-.39.5-.64.91-.64s.77.25.91.63l.97 2.53 2.69.13c.41.02.75.29.88.67.13.39 0 .81-.31 1.06l-2.1 1.71.33 1.19a.5.5 0 0 1-.35.61.5.5 0 0 1-.61-.35l-.32-1.21c-.1-.37.03-.77.33-1.01l2.1-1.71-2.71-.11a.988.988 0 0 1-.86-.63l-.97-2.52-.93 2.53a.98.98 0 0 1-.87.62l-2.7.14L5.6 8.17c.3.24.43.64.33 1.01l-.7 2.62 2.24-1.5a.97.97 0 0 1 1.06 0l2.4 1.56a.5.5 0 0 1-.27.92z" style="fill:#fff"/></svg>