<svg version="1.1" id="Genesys" xmlns="http://www.w3.org/2000/svg" x="0" y="0" viewBox="0 0 16 16" style="enable-background:new 0 0 16 16" xml:space="preserve"><style>.st1{fill:#fff}</style><circle cx="8" cy="8" r="8" style="fill:#33383d"/><path class="st1" d="M8 13c-2.76 0-5-2.24-5-5 0-1.75.94-3.4 2.44-4.3.23-.14.54-.07.69.17.14.24.06.54-.17.69A4.025 4.025 0 0 0 4 8c0 2.21 1.79 4 4 4 1.4 0 2.72-.75 3.44-1.96.14-.24.45-.31.69-.17.24.14.32.45.17.69A5.05 5.05 0 0 1 8 13z"/><path class="st1" d="M13.5 8.5H8c-.28 0-.5-.22-.5-.5V2.5c0-.28.22-.5.5-.5 3.31 0 6 2.69 6 6 0 .28-.22.5-.5.5zm-5-1h4.48A5.025 5.025 0 0 0 8.5 3.02V7.5z"/></svg>