<svg xmlns="http://www.w3.org/2000/svg" viewBox="0 0 16 16" style="enable-background:new 0 0 16 16" xml:space="preserve"><style>.st0{display:none}.st1{fill:none;stroke-width:1.5;stroke-linecap:round;stroke-linejoin:round}.st1,.st11,.st2{display:inline;stroke:#33383d;stroke-miterlimit:10}.st2{fill:none;stroke-width:1.3;stroke-linecap:round;stroke-linejoin:round}.st11{fill:#33383d;stroke-width:.39}.st12{font-family:&apos;SofiaProSoftMedium&apos;}.st20{font-size:7.8637px}.st23{fill:#33383d}</style><g id="Genesys"><path class="st23" d="M14.09 3.88 10.87.66C10.45.24 9.87 0 9.28 0H3.5C2.26 0 1.25 1.01 1.25 2.25v11.5C1.25 14.99 2.26 16 3.5 16h8c.41 0 .75-.34.75-.75s-.34-.75-.75-.75h-8c-.41 0-.75-.34-.75-.75V2.25c0-.41.34-.75.75-.75h5.14v2.36c0 1.24 1.01 2.25 2.25 2.25h2.36v9.14c0 .41.34.75.75.75s.75-.34.75-.75V5.48c0-.6-.23-1.17-.66-1.6zm-3.96-.01V2.05l2.57 2.57h-1.82c-.41 0-.75-.34-.75-.75z"/><path class="st23" d="M5.74 13.52c.25 0 .46-.2.46-.46v-.49c.92-.14 1.55-.75 1.63-1.59.07-.53-.06-1.48-1.6-1.89l-.69-.18c-.58-.15-.58-.41-.58-.52 0-.35.38-.55.74-.55.35 0 .58.12.73.38.17.32.44.44.76.35.14-.04.26-.14.32-.28.07-.16.08-.33.02-.49-.24-.61-.68-.97-1.32-1.09V6.3c0-.25-.21-.45-.46-.45-.25-.01-.45.2-.45.45v.41c-.91.16-1.56.86-1.56 1.7 0 .82.5 1.37 1.49 1.64l.69.17c.74.17.71.55.71.66-.05.36-.36.57-.83.57-.41 0-.67-.16-.85-.53-.13-.33-.44-.47-.77-.38-.14.04-.27.14-.34.27-.08.16-.1.34-.05.51.22.63.79 1.09 1.51 1.23v.5c0 .26.2.47.44.47zM11.5 11.25H9.32c-.41 0-.75.34-.75.75s.34.75.75.75h2.18c.41 0 .75-.34.75-.75s-.34-.75-.75-.75zM11.5 8.5H9.32a.749.749 0 1 0 0 1.5h2.18c.41 0 .75-.34.75-.75s-.34-.75-.75-.75z"/></g></svg>