<svg version="1.1" id="Genesys" xmlns="http://www.w3.org/2000/svg" x="0" y="0" viewBox="0 0 16 16" style="enable-background:new 0 0 16 16" xml:space="preserve"><style>.st1{fill:#fff}</style><circle cx="8" cy="8" r="8" style="fill:#33383d"/><path class="st1" d="M5.5 11.67c-.46 0-.83.37-.83.83 0 .46.37.83.83.83.46 0 .83-.37.83-.83 0-.46-.37-.83-.83-.83zM10.5 11.67c-.46 0-.83.37-.83.83 0 .46.37.83.83.83.46 0 .83-.37.83-.83 0-.46-.37-.83-.83-.83zM12.77 4.37A.971.971 0 0 0 12 4H4.29l-.04-.2c-.09-.46-.5-.8-.98-.8H2.5c-.28 0-.5.22-.5.5s.22.5.5.5h.77l.99 4.94c.05.24.26.4.49.4.03 0 .07 0 .1-.01.27-.05.45-.31.39-.58L4.49 5h3.23c0 .01-.01.02-.01.04v.34c-.67.1-1.14.6-1.14 1.21 0 .58.36.97 1.06 1.16l.5.13c.58.13.56.43.55.52-.03.22-.21.46-.65.46-.32 0-.52-.13-.66-.42-.09-.22-.28-.31-.51-.25-.09.02-.17.09-.22.18-.06.1-.07.22-.03.33.16.46.58.79 1.1.88V9.99H4.75c-.28 0-.5.22-.5.5s.22.51.5.51H11c.47 0 .89-.34.98-.8l1-5a.99.99 0 0 0-.21-.83zM11 10H8.29v-.4c.67-.08 1.14-.52 1.2-1.13.07-.65-.33-1.12-1.14-1.34l-.51-.14c-.41-.1-.46-.29-.46-.42 0-.28.3-.45.58-.45.18 0 .42.03.57.3.11.21.29.3.5.23.1-.02.17-.09.22-.18.05-.1.05-.22.01-.32-.17-.44-.5-.7-.97-.78v-.33c0-.01-.01-.02-.01-.04H12l-1 5z"/></svg>