<svg xmlns="http://www.w3.org/2000/svg" viewBox="0 0 16 16" style="enable-background:new 0 0 16 16" xml:space="preserve"><style>.st0{display:none}.st3,.st5{display:inline}.st5{fill:#33383d}.st8{stroke-width:.8125;stroke-linecap:round;stroke-linejoin:round}.st15,.st17,.st8{fill:none;stroke:#fff;stroke-miterlimit:10}.st15{display:inline}.st17{stroke-linecap:round;stroke-linejoin:round}.st20{fill:#fff}</style><g id="Genesys"><circle cx="8" cy="8" r="8" style="fill:#33383d"/><path class="st20" d="M10.6 5.4c-.2-.2-.51-.2-.71 0L8 7.29 6.1 5.4c-.2-.2-.51-.2-.71 0s-.2.51 0 .71L7.29 8 5.4 9.9c-.2.2-.2.51 0 .71.1.1.23.15.35.15s.26-.06.35-.16L8 8.71l1.9 1.9a.485.485 0 0 0 .7 0c.2-.2.2-.51 0-.71L8.71 8l1.9-1.9c.19-.19.19-.51-.01-.7z"/><path class="st20" d="M13.89 6.72c-.15-.18-.3-.37-.35-.52-.05-.16-.04-.41-.03-.66.02-.45.05-.95-.25-1.36-.3-.42-.79-.55-1.23-.67-.23-.06-.48-.13-.61-.22s-.26-.3-.39-.5c-.25-.38-.52-.81-1.02-.97-.48-.16-.95.02-1.36.17-.23.09-.48.18-.65.18s-.42-.09-.65-.18c-.41-.15-.88-.33-1.36-.18-.5.16-.77.59-1.02.97-.13.2-.27.41-.4.5-.12.1-.37.17-.6.23-.44.12-.93.25-1.23.66-.3.41-.27.92-.25 1.36.01.25.02.51-.03.67-.05.14-.2.33-.35.52-.29.35-.61.75-.61 1.28s.33.93.61 1.28c.15.18.3.37.35.52.05.16.04.41.03.66-.02.45-.05.95.25 1.36.3.42.79.55 1.23.66.24.06.48.13.61.22s.26.3.39.5c.25.38.52.81 1.02.97.13.04.26.06.39.06.34 0 .67-.13.97-.24.23-.09.47-.18.65-.18s.42.1.65.19c.41.16.88.34 1.36.18.5-.16.77-.59 1.02-.97.13-.2.27-.41.4-.5.13-.1.37-.16.61-.22.43-.12.92-.25 1.23-.66.3-.41.27-.92.25-1.36-.01-.25-.03-.5.03-.66.05-.15.2-.34.35-.52.28-.36.6-.76.6-1.29s-.32-.93-.61-1.28zm-.78 1.93c-.21.25-.42.52-.53.84-.11.33-.09.7-.07 1.02.01.28.03.6-.06.72-.09.13-.4.21-.68.29-.32.09-.66.18-.94.38-.28.2-.47.49-.65.77-.16.24-.33.51-.49.56-.14.05-.44-.07-.69-.16-.3-.12-.64-.25-1-.25s-.7.13-1.01.25c-.26.1-.55.21-.69.16-.16-.05-.33-.32-.49-.56-.18-.28-.37-.57-.65-.77-.28-.21-.62-.29-.94-.38-.27-.07-.58-.16-.68-.29-.09-.13-.08-.44-.06-.72.02-.32.03-.68-.07-1.02-.1-.32-.32-.59-.53-.84-.18-.24-.38-.48-.38-.65 0-.17.2-.42.39-.65.21-.25.42-.52.53-.84.11-.33.09-.7.07-1.02-.01-.28-.03-.6.06-.72.09-.13.4-.21.68-.29.32-.09.65-.18.94-.39.28-.2.46-.49.65-.77.15-.25.32-.5.48-.56.02-.01.05-.01.08-.01.16 0 .4.09.62.17.3.12.64.25 1 .25s.7-.13 1.01-.25c.26-.1.55-.21.7-.16.16.05.33.31.49.56.18.28.37.57.65.77.28.2.62.29.94.38.27.07.58.16.68.29.09.13.08.44.06.72-.02.32-.03.68.07 1.02.11.32.32.58.53.84.17.24.37.48.37.66 0 .17-.2.41-.39.65z"/></g></svg>