<svg xmlns="http://www.w3.org/2000/svg" viewBox="0 0 16 16" style="enable-background:new 0 0 16 16" xml:space="preserve"><style>.st0{display:none}.st5{display:inline;fill:#33383d}.st7{stroke-linecap:round;stroke-linejoin:round}.st15,.st7{display:inline;fill:none;stroke:#fff;stroke-miterlimit:10}.st20{fill:#fff}</style><g id="Genesys"><circle cx="8" cy="8" r="8" style="fill:#33383d"/><path class="st20" d="M7.01 11a.47.47 0 0 1-.35-.15c-.2-.2-.2-.51 0-.71L8.8 8 6.66 5.85c-.2-.2-.2-.51 0-.71s.51-.2.71 0l2.5 2.5c.2.2.2.51 0 .71l-2.5 2.5c-.11.1-.24.15-.36.15z"/><path class="st20" d="M6.38 14.24c-.13 0-.26-.02-.39-.06-.5-.16-.77-.59-1.02-.97-.13-.2-.27-.41-.39-.5-.13-.1-.38-.16-.61-.22-.43-.12-.92-.25-1.23-.66-.3-.41-.27-.92-.25-1.36.01-.25.02-.5-.03-.66-.05-.15-.2-.33-.35-.52-.29-.36-.61-.76-.61-1.29s.33-.93.61-1.28c.15-.18.3-.37.35-.52.05-.16.04-.41.03-.66-.03-.45-.05-.95.25-1.37.3-.42.79-.55 1.23-.66.23-.06.48-.13.61-.22s.26-.3.39-.5c.25-.39.52-.82 1.02-.98.48-.15.95.02 1.36.18.23.09.48.18.65.18s.42-.09.65-.18c.41-.16.88-.33 1.36-.18.5.16.77.59 1.02.97.13.2.27.41.39.5.13.1.37.16.61.22.43.12.93.25 1.23.67.3.41.27.92.25 1.36-.01.25-.03.5.03.66.05.14.2.33.35.52.29.36.61.76.61 1.29s-.33.93-.61 1.28c-.15.18-.3.37-.35.52-.05.16-.04.41-.03.66.02.45.05.95-.25 1.36-.3.42-.79.55-1.23.67-.24.06-.48.13-.61.22s-.26.3-.39.5c-.25.38-.52.81-1.02.97-.48.16-.95-.02-1.36-.18-.23-.09-.48-.18-.65-.18s-.42.09-.65.18c-.3.12-.63.24-.97.24zm0-11.49c-.03 0-.06 0-.08.01-.16.06-.33.31-.49.57-.18.27-.37.56-.64.76-.29.21-.62.3-.94.39-.28.07-.59.15-.68.28-.09.13-.08.45-.06.73.01.32.03.68-.08 1.02-.1.32-.32.59-.53.84-.19.23-.38.47-.38.65 0 .17.2.42.39.65.2.25.42.52.52.84.11.33.09.7.07 1.02-.01.28-.03.6.06.73.1.13.4.21.68.29.32.09.66.18.94.38.28.2.46.49.65.77.15.24.33.51.49.56.14.05.44-.07.69-.17.3-.12.65-.25 1.01-.25s.7.13 1.01.25c.26.1.55.21.69.17.16-.05.33-.32.49-.56.18-.28.37-.57.65-.77.28-.21.62-.29.94-.38.27-.07.58-.16.68-.29.09-.13.08-.45.06-.73-.02-.32-.03-.68.07-1.02.1-.32.32-.59.53-.84.19-.24.38-.48.38-.65 0-.17-.2-.42-.39-.65-.21-.25-.42-.52-.53-.84-.11-.33-.09-.7-.07-1.02.01-.28.03-.6-.06-.72-.1-.13-.41-.21-.68-.29-.32-.09-.66-.18-.94-.38-.28-.2-.47-.49-.65-.77-.15-.26-.32-.51-.48-.57-.14-.05-.44.06-.7.16-.3.12-.64.25-1 .25s-.7-.13-1.01-.24c-.21-.09-.45-.18-.61-.18z"/></g></svg>