<svg xmlns="http://www.w3.org/2000/svg" viewBox="0 0 16 16" style="enable-background:new 0 0 16 16" xml:space="preserve"><style>.st0{display:none}.st1,.st2{display:inline;fill:none;stroke:#33383d;stroke-width:1.5;stroke-linecap:round;stroke-linejoin:round;stroke-miterlimit:10}.st2{stroke-width:1.3}.st19{fill:#33383d}</style><g id="Genesys"><path class="st19" d="M14.09 3.88 10.87.66C10.45.24 9.87 0 9.28 0H3.5C2.26 0 1.25 1.01 1.25 2.25v11.5C1.25 14.99 2.26 16 3.5 16h8c.41 0 .75-.34.75-.75s-.34-.75-.75-.75h-8c-.41 0-.75-.34-.75-.75V2.25c0-.41.34-.75.75-.75h5.14v2.36c0 1.24 1.01 2.25 2.25 2.25h2.36v9.14c0 .41.34.75.75.75s.75-.34.75-.75V5.48c0-.6-.23-1.17-.66-1.6zm-3.96-.01V2.05l2.57 2.57h-1.82c-.41 0-.75-.34-.75-.75z"/><path class="st19" d="M11.5 11.25h-7c-.41 0-.75.34-.75.75s.34.75.75.75h7c.41 0 .75-.34.75-.75s-.34-.75-.75-.75zM11.5 8.5h-7a.749.749 0 1 0 0 1.5h7c.41 0 .75-.34.75-.75s-.34-.75-.75-.75z"/></g></svg>