<svg xmlns="http://www.w3.org/2000/svg" viewBox="0 0 16 16" style="enable-background:new 0 0 16 16" xml:space="preserve"><style>.st0{display:none}.st2,.st5{display:inline}.st5{fill:#33383d}.st10{fill:none;stroke:#fff;stroke-width:.8333;stroke-linecap:round;stroke-linejoin:round;stroke-miterlimit:10}.st10,.st18{display:inline}.st18,.st19{fill:none;stroke:#fff;stroke-linecap:round;stroke-linejoin:round;stroke-miterlimit:10}</style><g id="Genesys"><circle cx="8" cy="8" r="8" style="fill:#33383d"/><path d="M12.56 5.36 9.64 2.44C9.36 2.16 8.98 2 8.58 2H4.5C3.67 2 3 2.67 3 3.5v9c0 .83.67 1.5 1.5 1.5h6c.28 0 .5-.22.5-.5s-.22-.5-.5-.5h-2V9.21l1.65 1.65a.485.485 0 0 0 .7 0c.2-.2.2-.51 0-.71l-2.5-2.5c-.2-.2-.51-.2-.71 0l-2.5 2.5c-.2.2-.2.51 0 .71s.51.2.71 0L7.5 9.21V13h-3c-.28 0-.5-.23-.5-.5v-9c0-.27.22-.5.5-.5H8v2.5C8 6.33 8.67 7 9.5 7H12v6.5c0 .28.22.5.5.5s.5-.22.5-.5V6.42c0-.4-.16-.78-.44-1.06zM9 5.5V3.21L11.79 6H9.5c-.28 0-.5-.22-.5-.5z" style="fill:#fff"/></g></svg>