<svg version="1.1" id="Genesys" xmlns="http://www.w3.org/2000/svg" x="0" y="0" viewBox="0 0 16 16" style="enable-background:new 0 0 16 16" xml:space="preserve"><style>.st1{fill:#fff}</style><circle cx="8" cy="8" r="8" style="fill:#33383d"/><path class="st1" d="M5.5 11.67c-.46 0-.83.37-.83.83 0 .46.37.83.83.83.46 0 .83-.37.83-.83 0-.46-.37-.83-.83-.83zM10.5 11.67c-.46 0-.83.37-.83.83 0 .46.37.83.83.83.46 0 .83-.37.83-.83 0-.46-.37-.83-.83-.83zM8.25 5.25c-.28 0-.5.22-.5.5V7H6.5c-.28 0-.5.22-.5.5s.22.5.5.5h1.25v1.25c0 .28.22.5.5.5s.5-.22.5-.5V8H10c.28 0 .5-.22.5-.5S10.27 7 10 7H8.75V5.75c0-.28-.22-.5-.5-.5z"/><path class="st1" d="M12.77 4.37A.971.971 0 0 0 12 4H4.29l-.04-.2c-.09-.46-.5-.8-.98-.8H2.5c-.28 0-.5.22-.5.5s.22.5.5.5h.77l.99 4.94c.05.24.26.4.49.4.03 0 .07 0 .1-.01.27-.05.45-.31.39-.58L4.49 5H12l-1 5H4.75c-.28 0-.5.22-.5.5s.22.5.5.5H11c.47 0 .89-.34.98-.8l1-5a.99.99 0 0 0-.21-.83z"/></svg>