<svg xmlns="http://www.w3.org/2000/svg" viewBox="0 0 16 16" style="enable-background:new 0 0 16 16" xml:space="preserve"><style>.st0{display:none}.st1,.st2{display:inline;fill:none;stroke:#33383d;stroke-width:1.5;stroke-linecap:round;stroke-linejoin:round;stroke-miterlimit:10}.st2{stroke-width:1.3}</style><path d="M12.18 1.38h-.56C11.34.58 10.58 0 9.68 0H6.32c-.9 0-1.65.58-1.94 1.38h-.56c-1.14 0-2.07.93-2.07 2.07v10.49c0 1.14.93 2.07 2.07 2.07h5.86c.41 0 .75-.34.75-.75s-.34-.75-.75-.75H3.82a.57.57 0 0 1-.57-.57V3.44c0-.31.25-.57.57-.57h.43v.63c0 .41.34.75.75.75h6c.41 0 .75-.34.75-.75v-.62h.43c.31 0 .57.25.57.57v10.49c0 .31-.25.57-.57.57-.41 0-.75.34-.75.75s.34.74.75.74c1.14 0 2.07-.93 2.07-2.07V3.44c0-1.14-.93-2.06-2.07-2.06zm-1.93 1.37h-4.5v-.68c0-.31.25-.57.57-.57h3.36c.31 0 .57.25.57.57v.68z" style="fill:#33383d" id="Genesys"/></svg>