<svg xmlns="http://www.w3.org/2000/svg" viewBox="0 0 16 16" style="enable-background:new 0 0 16 16" xml:space="preserve"><style>.st0{display:none}.st3{display:inline;fill:none;stroke:#33383d;stroke-width:1.5;stroke-linecap:round;stroke-linejoin:round;stroke-miterlimit:10}.st11{fill:#33383d}</style><g id="Genesys"><path class="st11" d="M15.25 0H3.5c-.42 0-.75.33-.75.75V12.5c0 .41.34.75.75.75h11.75c.41 0 .75-.34.75-.75V.75c0-.42-.34-.75-.75-.75zm-.75 11.75H4.25V1.5H14.5v10.25z"/><path class="st11" d="M6.25 7.37h2.38v2.38c0 .41.34.75.75.75s.75-.34.75-.75V7.37h2.38c.41 0 .75-.34.75-.75s-.34-.75-.75-.75h-2.38V3.5a.755.755 0 0 0-1.51 0v2.38H6.25c-.41 0-.75.34-.75.75s.34.74.75.74zM11.29 14.5H1.5V4.71a.749.749 0 1 0-1.5 0v10.54c0 .41.34.75.75.75h10.54a.749.749 0 1 0 0-1.5z"/></g></svg>