<svg xmlns="http://www.w3.org/2000/svg" viewBox="0 0 16 16" style="enable-background:new 0 0 16 16" xml:space="preserve"><style>.st0{display:none}.st8{display:inline;fill:none;stroke:#33383d;stroke-width:1.5;stroke-linecap:round;stroke-linejoin:round;stroke-miterlimit:10}</style><path d="M12.28 14.25c-.41 0-.75-.34-.75-.75s.34-.75.75-.75c1.22 0 2.22-.99 2.22-2.22 0-.85-.48-1.61-1.25-1.98a.747.747 0 0 1-.35-.98c.19-.42.29-.86.29-1.32 0-1.77-1.44-3.21-3.2-3.21-1.23 0-2.33.69-2.87 1.79a.77.77 0 0 1-.99.36c-.25-.11-.5-.16-.76-.16-1.04 0-1.89.85-1.89 1.89 0 .17.03.35.1.57.06.19.04.4-.05.58-.1.16-.26.29-.45.35-.94.29-1.58 1.14-1.58 2.11 0 1.22.99 2.22 2.22 2.22h6.07c.41 0 .75.34.75.75s-.34.75-.75.75H3.72C1.67 14.25 0 12.58 0 10.53c0-1.41.78-2.65 2-3.28-.01-.12-.02-.23-.02-.34 0-1.87 1.52-3.39 3.39-3.39.25 0 .49.03.72.08a4.688 4.688 0 0 1 3.89-2.06c2.59 0 4.7 2.11 4.7 4.71 0 .45-.06.89-.19 1.31.94.69 1.5 1.78 1.5 2.97a3.71 3.71 0 0 1-3.71 3.72z" style="fill:#33383d" id="Genesys"/></svg>