<svg xmlns="http://www.w3.org/2000/svg" viewBox="0 0 16 16" style="enable-background:new 0 0 16 16" xml:space="preserve"><style>.st0{display:none}.st9{display:inline;fill:none;stroke:#33383d;stroke-width:1.5;stroke-linecap:round;stroke-miterlimit:10}.st10{fill:#33383d}</style><g id="Genesys"><path class="st10" d="M14.75 3.99H6c-1.81 0-3.51.81-4.66 2.22a6.053 6.053 0 0 0-1.2 5.07c.47 2.27 2.31 4.11 4.58 4.58.42.09.85.13 1.27.13 1.38 0 2.71-.46 3.79-1.34A5.988 5.988 0 0 0 12 10.09h2.75c.69 0 1.25-.56 1.25-1.25v-3.6c0-.69-.56-1.25-1.25-1.25zm-.25 4.6h-3.29a.75.75 0 0 0-.56.25c-.14.16-.21.38-.18.59.02.18.04.37.04.56 0 1.36-.61 2.63-1.66 3.49a4.522 4.522 0 0 1-3.81.9c-1.69-.35-3.07-1.73-3.42-3.42-.3-1.36.03-2.75.89-3.8S4.64 5.49 6 5.49h2.75V6c0 .41.34.75.75.75s.75-.34.75-.75v-.51h4.25v3.1z"/><path class="st10" d="M6 6.62c-.33 0-.65.05-.97.14-.4.12-.62.54-.5.93.12.4.53.62.93.51.18-.05.36-.08.54-.08 1.03 0 1.88.84 1.88 1.88S7.04 11.87 6 11.87a1.878 1.878 0 0 1-1.8-2.42.73.73 0 0 0-.5-.92.74.74 0 0 0-.93.5 3.382 3.382 0 0 0 3.24 4.34A3.376 3.376 0 1 0 6 6.62zM9.5 2.82c.41 0 .75-.34.75-.75V.75a.749.749 0 1 0-1.5 0v1.32c0 .41.33.75.75.75zM6.22 2.92c.14.24.39.37.65.37.13 0 .26-.03.38-.1.35-.21.47-.66.27-1.02l-.67-1.14A.74.74 0 0 0 5.83.76c-.36.21-.48.67-.27 1.02l.66 1.14zM11.76 3.19c.12.07.25.1.38.1.26 0 .51-.13.65-.37l.66-1.14a.752.752 0 1 0-1.3-.76l-.66 1.14a.75.75 0 0 0 .27 1.03z"/></g></svg>