<svg version="1.1" id="FNL_OL" xmlns="http://www.w3.org/2000/svg" x="0" y="0" viewBox="0 0 16 16" style="enable-background:new 0 0 16 16" xml:space="preserve"><style>.st0{fill:#33383d}</style><path class="st0" d="M13 0H3C1.35 0 0 1.34 0 3v6.25c0 1.65 1.35 3 3 3h2.75v2.25h-.5a.749.749 0 1 0 0 1.5h5.5c.41 0 .75-.34.75-.75s-.34-.75-.75-.75h-.5v-3c0-.41-.34-.75-.75-.75H3c-.83 0-1.5-.67-1.5-1.5V3c0-.83.67-1.5 1.5-1.5h10c.83 0 1.5.67 1.5 1.5v6.25c0 .83-.67 1.5-1.5 1.5h-1c-.41 0-.75.34-.75.75s.34.75.75.75h1c1.65 0 3-1.35 3-3V3c0-1.66-1.34-3-3-3zM8.75 14.5h-1.5v-2.25h1.5v2.25z"/><path class="st0" d="M8.35 9.28c.14.15.34.22.53.22s.38-.07.53-.22l2.62-2.62c.29-.29.29-.77 0-1.06L9.41 2.97a.754.754 0 0 0-1.06 0c-.29.29-.29.77 0 1.06l1.34 1.34H4.5a.749.749 0 1 0 0 1.5h5.19L8.35 8.22c-.3.29-.3.77 0 1.06z"/></svg>