<svg xmlns="http://www.w3.org/2000/svg" viewBox="0 0 16 16" style="enable-background:new 0 0 16 16" xml:space="preserve"><style>.st0{display:none}.st5{display:inline;stroke:#33383d;stroke-width:1.5;stroke-linecap:round;stroke-linejoin:round;stroke-miterlimit:10}.st10,.st5{fill:#33383d}</style><g id="Genesys"><path class="st10" d="M15.78 4.11 11.9.22c-.19-.19-.47-.26-.73-.19s-.46.27-.53.53L9.25 5.83c-.06.26.01.54.2.72.14.15.33.22.53.22.06 0 .13-.01.19-.02l5.27-1.39c.26-.07.46-.27.53-.53s0-.53-.19-.72zM5.83 9.26.56 10.65a.755.755 0 0 0-.34 1.26l3.88 3.88a.78.78 0 0 0 .74.18c.26-.07.46-.27.53-.53l1.39-5.27c.07-.26-.01-.53-.19-.72s-.48-.26-.74-.19z"/></g></svg>