<svg xmlns="http://www.w3.org/2000/svg" viewBox="0 0 16 16" style="enable-background:new 0 0 16 16" xml:space="preserve"><style>.st0{display:none}.st3{display:inline;fill:none;stroke:#33383d;stroke-width:1.5;stroke-linecap:round;stroke-linejoin:round;stroke-miterlimit:10}.st11{fill:#33383d}</style><g id="Genesys"><path class="st11" d="m15.31 1.75.47-.47c.29-.29.29-.77 0-1.06s-.77-.29-1.06 0L.22 14.72c-.29.29-.29.77 0 1.06.15.15.34.22.53.22s.38-.07.53-.22l2.54-2.54c.06 0 .12.01.18.01h2.5c.41 0 .75-.34.75-.75s-.34-.75-.75-.75H5.31L8.06 9H12a.749.749 0 1 0 0-1.5H9.56l1.75-1.75H12c.41 0 .75-.34.75-.75 0-.19-.08-.36-.19-.49l1.65-1.65c.18.34.29.73.29 1.14v5.25a2.5 2.5 0 0 1-2.5 2.5h-2c-.2 0-.39.08-.53.22l-2.75 2.75c-.29.29-.29.77 0 1.06.15.14.34.22.53.22s.38-.07.53-.22l2.53-2.53H12c2.21 0 4-1.79 4-4V4c0-.81-.24-1.59-.69-2.25zM1.34 11.87c.15 0 .3-.04.43-.14.34-.24.42-.71.18-1.04-.29-.42-.45-.92-.45-1.44V4A2.5 2.5 0 0 1 4 1.5h7.71c.41 0 .75-.34.75-.75S12.13 0 11.72 0H4C1.79 0 0 1.79 0 4v5.25c0 .83.25 1.62.73 2.3.15.21.38.32.61.32z"/><path class="st11" d="M8.22 5c0-.41-.34-.75-.75-.75H4a.749.749 0 1 0 0 1.5h3.46c.42 0 .76-.34.76-.75zM4 7.5c-.41 0-.75.34-.75.75S3.59 9 4 9h.21c.41 0 .75-.34.75-.75s-.33-.75-.74-.75H4z"/></g></svg>