<svg xmlns="http://www.w3.org/2000/svg" viewBox="0 0 16 16" style="enable-background:new 0 0 16 16" xml:space="preserve"><style>.st0{display:none}.st3{display:inline;fill:none;stroke:#33383d;stroke-width:1.5;stroke-linecap:round;stroke-linejoin:round;stroke-miterlimit:10}.st11{fill:#33383d}</style><g id="Genesys"><path class="st11" d="M7.25 16c-.19 0-.38-.07-.53-.22a.754.754 0 0 1 0-1.06l2.75-2.75a.75.75 0 0 1 .53-.22h2a2.5 2.5 0 0 0 2.5-2.5V4A2.5 2.5 0 0 0 12 1.5H4A2.5 2.5 0 0 0 1.5 4v5.25a2.5 2.5 0 0 0 2.5 2.5h2.5c.41 0 .75.34.75.75s-.34.75-.75.75H4c-2.21 0-4-1.79-4-4V4c0-2.21 1.79-4 4-4h8c2.21 0 4 1.79 4 4v5.25c0 2.21-1.79 4-4 4h-1.69l-2.53 2.53a.75.75 0 0 1-.53.22z"/><path class="st11" d="M12 5.75H4c-.41 0-.75-.34-.75-.75s.34-.75.75-.75h8a.749.749 0 1 1 0 1.5zM12 9H4c-.41 0-.75-.34-.75-.75s.34-.75.75-.75h8A.749.749 0 1 1 12 9z"/></g></svg>