<svg xmlns="http://www.w3.org/2000/svg" viewBox="0 0 16 16" style="enable-background:new 0 0 16 16" xml:space="preserve"><style>.st0{display:none}.st1,.st8{display:inline;fill:none;stroke:#33383d;stroke-width:1.3;stroke-linecap:round;stroke-linejoin:round;stroke-miterlimit:10}.st8{stroke-width:1.5}</style><path d="M15.25 7.25h-2.88V.75c0-.41-.34-.75-.75-.75H4.38c-.42 0-.76.34-.76.75v6.5H.75C.34 7.25 0 7.59 0 8v7.25c0 .42.34.75.75.75h14.5c.41 0 .75-.34.75-.75V8c0-.41-.34-.75-.75-.75zM1.5 8.75h2.88c.41 0 .75-.34.75-.75V1.5h5.75v5.75h-4c-.42 0-.76.34-.76.75s.34.75.75.75h.38v5.75H1.5V8.75zm13 5.75H8.75V8.75h5.75v5.75z" style="fill:#33383d" id="Genesys"/></svg>