<svg xmlns="http://www.w3.org/2000/svg" viewBox="0 0 16 16" style="enable-background:new 0 0 16 16" xml:space="preserve"><style>.st0{display:none}.st1,.st4{fill:none;stroke:#33383d;stroke-linecap:round;stroke-linejoin:round;stroke-miterlimit:10}.st1{display:inline;stroke-width:1.5}.st4{stroke-width:1.3}</style><path d="M15.28 2.95c-.44-.23-.98-.2-1.39.08L8.75 6.57V4.14c0-.5-.28-.96-.72-1.2-.44-.23-.98-.2-1.39.08L1.5 6.57V3.5c0-.41-.34-.75-.75-.75S0 3.09 0 3.5v9c0 .41.34.75.75.75s.75-.34.75-.75V9.43l5.13 3.54a1.348 1.348 0 0 0 1.4.08c.45-.23.72-.69.72-1.2V9.43l5.13 3.54a1.348 1.348 0 0 0 1.4.08c.45-.23.72-.69.72-1.2V4.14c0-.5-.28-.96-.72-1.19zm-8.03 8.62L2.07 8l5.18-3.57v7.14zm7.25 0L9.32 8l5.18-3.57v7.14z" style="fill:#33383d" id="Genesys"/></svg>