<svg xmlns="http://www.w3.org/2000/svg" viewBox="0 0 16 16" style="enable-background:new 0 0 16 16" xml:space="preserve"><style>.st0{display:none}.st1,.st2{display:inline;fill:none;stroke:#33383d;stroke-width:1.5;stroke-linecap:round;stroke-linejoin:round;stroke-miterlimit:10}.st2{stroke-width:1.3}</style><path d="M12.06 2.9c-.43-.24-.96-.22-1.37.04L4.75 6.65V3.5c0-.41-.34-.75-.75-.75s-.75.34-.75.75v9c0 .41.34.75.75.75s.75-.34.75-.75V9.35l5.94 3.71a1.34 1.34 0 0 0 1.37.04c.43-.24.7-.69.7-1.18V4.08c-.01-.49-.27-.94-.7-1.18zm-.81 8.75L5.42 8l5.83-3.65v7.3z" style="fill:#33383d" id="Genesys"/></svg>