<svg xmlns="http://www.w3.org/2000/svg" viewBox="0 0 16 16" style="enable-background:new 0 0 16 16" xml:space="preserve"><style>.st0{display:none}.st1,.st2{display:inline;fill:none;stroke:#33383d;stroke-width:1.5;stroke-linecap:round;stroke-linejoin:round;stroke-miterlimit:10}.st2{stroke-width:1.3}</style><path d="M12 2.75c-.41 0-.75.34-.75.75v3.15L5.31 2.94c-.41-.26-.94-.28-1.37-.04-.42.24-.69.69-.69 1.18v7.84a1.355 1.355 0 0 0 1.35 1.35c.25 0 .5-.07.72-.21l5.94-3.71v3.15c0 .41.34.75.75.75s.75-.34.75-.75v-9a.764.764 0 0 0-.76-.75zm-7.25 8.9v-7.3L10.58 8l-5.83 3.65z" style="fill:#33383d" id="Genesys"/></svg>