<svg xmlns="http://www.w3.org/2000/svg" viewBox="0 0 16 16" style="enable-background:new 0 0 16 16" xml:space="preserve"><style>.st0{display:none}.st1,.st4{fill:none;stroke:#33383d;stroke-linecap:round;stroke-linejoin:round;stroke-miterlimit:10}.st1{display:inline;stroke-width:1.5}.st4{stroke-width:1.3}</style><path d="M14.96 6.89 9.37 3.03c-.42-.28-.95-.32-1.4-.08-.45.23-.72.69-.72 1.2v2.43L2.12 3.03A1.356 1.356 0 0 0 0 4.14v7.71c0 .5.28.96.72 1.2.2.1.41.16.63.16.27 0 .54-.08.77-.24l5.13-3.54v2.43c0 .5.28.96.72 1.2.2.1.41.16.63.16.27 0 .54-.08.77-.24l5.59-3.86c.37-.25.58-.67.58-1.11s-.22-.87-.58-1.12zM1.5 11.57V4.43L6.68 8 1.5 11.57zm7.25 0V4.43L13.93 8l-5.18 3.57z" style="fill:#33383d" id="Genesys"/></svg>