<svg xmlns="http://www.w3.org/2000/svg" viewBox="0 0 16 16" style="enable-background:new 0 0 16 16" xml:space="preserve"><style>.st0{display:none}.st3{display:inline;fill:none;stroke:#33383d;stroke-width:1.5;stroke-linecap:round;stroke-linejoin:round;stroke-miterlimit:10}.st11{fill:#33383d}</style><g id="Genesys"><path class="st11" d="M15.25 13.25H3.5c-.41 0-.75-.34-.75-.75V.75c0-.42.33-.75.75-.75h11.75c.41 0 .75.33.75.75V12.5c0 .41-.34.75-.75.75zm-11-1.5H14.5V1.5H4.25v10.25z"/><path class="st11" d="M11.29 16H.75c-.41 0-.75-.34-.75-.75V4.71a.749.749 0 1 1 1.5 0v9.79h9.79a.749.749 0 1 1 0 1.5z"/></g></svg>