<svg xmlns="http://www.w3.org/2000/svg" viewBox="0 0 16 16" style="enable-background:new 0 0 16 16" xml:space="preserve"><style>.st0{display:none}.st1{display:inline;fill:none;stroke:#33383d;stroke-width:1.5;stroke-linecap:round;stroke-linejoin:round;stroke-miterlimit:10}.st13,.st14,.st5{display:inline;fill:#33383d}.st13,.st14{fill:none;stroke:#33383d;stroke-miterlimit:10}.st13{stroke-width:1.5;stroke-linejoin:round}.st14{stroke-width:1.25}.st19{fill:#33383d}</style><g id="Genesys"><path class="st19" d="M11.62 4.53a4.385 4.385 0 0 0-3.6 6.88L11 15.68c.14.2.37.32.62.32s.48-.12.62-.32l2.98-4.27c.51-.74.78-1.61.78-2.51 0-2.41-1.96-4.37-4.38-4.37zm2.37 6.01-2.36 3.39-2.36-3.39c-.34-.48-.52-1.04-.52-1.64 0-1.58 1.29-2.88 2.88-2.88s2.87 1.3 2.87 2.88c0 .6-.18 1.16-.51 1.64z"/><path class="st19" d="M11.62 7.13c-.98 0-1.78.8-1.78 1.78s.8 1.78 1.78 1.78 1.78-.8 1.78-1.78-.79-1.78-1.78-1.78zm0 2.3c-.29 0-.53-.24-.53-.53s.24-.53.53-.53.53.24.53.53-.23.53-.53.53z"/><circle class="st19" cx="3.63" cy="3.63" r="1"/><path class="st19" d="M8.81 14.5H4.65c-.12 0-.18-.08-.21-.12-.03-.04-.06-.13 0-.24l2.1-3.62c.31-.54.32-1.2 0-1.74-.31-.54-.86-.86-1.48-.87L6.6 5.7c.42-.61.65-1.32.65-2.07 0-2-1.63-3.62-3.62-3.62S0 1.63 0 3.63c0 .74.22 1.46.65 2.07l2.36 3.39c.14.2.36.32.61.32h1.42c.12 0 .18.08.21.12.03.04.06.14 0 .24l-2.1 3.62c-.32.54-.32 1.19 0 1.74.31.54.87.87 1.5.87h4.17c.41 0 .75-.34.75-.75s-.34-.75-.76-.75zM1.88 4.84c-.25-.36-.38-.78-.38-1.21 0-1.17.95-2.12 2.13-2.12s2.12.95 2.12 2.12c0 .44-.13.86-.38 1.21L3.63 7.35 1.88 4.84z"/></g></svg>