<svg xmlns="http://www.w3.org/2000/svg" viewBox="0 0 16 16" style="enable-background:new 0 0 16 16" xml:space="preserve"><style>.st0{display:none}.st2,.st3{display:inline;fill:none;stroke:#33383d;stroke-width:1.5;stroke-miterlimit:10}.st3{stroke-linecap:round;stroke-linejoin:round}</style><path d="m10.65 8 5.05-3.86c.33-.25.39-.72.14-1.05a3.35 3.35 0 0 0-2.24-1.3c-.89-.12-1.79.12-2.5.67L8.69 4.3c-.33.25-.39.72-.14 1.05.25.32.72.39 1.05.14l2.41-1.84c.4-.31.89-.44 1.39-.37.24.03.47.11.67.22L9.42 7.06 6.45 4.79A3.378 3.378 0 0 0 3.38 0C1.51 0 0 1.52 0 3.39c0 1.07.51 2.02 1.29 2.64C1.31 6.05 3.84 8 3.84 8S1.29 9.97 1.27 9.99C.5 10.61 0 11.55 0 12.61 0 14.48 1.52 16 3.38 16s3.39-1.52 3.39-3.39c0-.5-.12-.98-.31-1.4l.79-.61 3.85 2.94a3.345 3.345 0 0 0 2.51.67c.9-.12 1.69-.58 2.24-1.3.25-.33.19-.8-.14-1.05L10.65 8zM3.38 1.5c1.04 0 1.89.85 1.89 1.89s-.85 1.89-1.89 1.89S1.5 4.43 1.5 3.39 2.34 1.5 3.38 1.5zm0 13c-1.04 0-1.89-.85-1.89-1.89s.85-1.89 1.89-1.89 1.89.85 1.89 1.89-.85 1.89-1.89 1.89zm2.16-4.48c-.32-.26-.68-.47-1.08-.6l.62-.48.94.72-.48.36zm7.86 2.71c-.5.07-1-.06-1.4-.37L4.46 6.58c.4-.13.76-.34 1.08-.6l8.54 6.53c-.21.11-.44.18-.68.22z" style="fill:#33383d" id="Genesys"/></svg>