<svg xmlns="http://www.w3.org/2000/svg" viewBox="0 0 16 16" style="enable-background:new 0 0 16 16" xml:space="preserve"><style>.st0{display:none}.st2{display:inline;fill:none;stroke:#33383d;stroke-width:1.5;stroke-linecap:round;stroke-linejoin:round;stroke-miterlimit:10}.st10{fill:#33383d}</style><g id="Genesys"><path class="st10" d="M13.66 2.34C12.15.83 10.14 0 8 0S3.85.83 2.34 2.34A7.949 7.949 0 0 0 0 8c0 2.14.83 4.15 2.34 5.66.29.29.77.29 1.06 0s.29-.77 0-1.06A6.492 6.492 0 0 1 1.5 8c0-1.74.68-3.37 1.9-4.6S6.26 1.5 8 1.5s3.37.68 4.6 1.9 1.9 2.86 1.9 4.6c0 1.74-.68 3.37-1.9 4.6-.29.29-.29.77 0 1.06.15.15.34.22.53.22s.38-.07.53-.22A7.966 7.966 0 0 0 16 8c0-2.14-.83-4.15-2.34-5.66zM9.98 14.5H6.02a.749.749 0 1 0 0 1.5h3.96c.41 0 .75-.34.75-.75s-.34-.75-.75-.75z"/><path class="st10" d="M10.83 4.11 9.06 5.89c-.32-.16-.68-.26-1.06-.26-1.31 0-2.38 1.06-2.38 2.37S6.69 10.37 8 10.37 10.38 9.31 10.38 8c0-.38-.1-.74-.26-1.06l1.77-1.77c.29-.29.29-.77 0-1.06s-.77-.29-1.06 0zM8 8.88c-.48 0-.88-.39-.88-.88s.4-.87.88-.87.88.39.88.87-.4.88-.88.88z"/></g></svg>