<svg xmlns="http://www.w3.org/2000/svg" viewBox="0 0 16 16" style="enable-background:new 0 0 16 16" xml:space="preserve"><style>.st0{display:none}.st1,.st2{fill:none;stroke:#33383d;stroke-linecap:round;stroke-linejoin:round;stroke-miterlimit:10}.st1{display:inline;stroke-width:1.5}.st2{stroke-width:1.3}.st2,.st5{display:inline}.st19,.st5{fill:#33383d}</style><g id="Genesys"><path class="st19" d="M14.5 3.25c-.41 0-.75.34-.75.75v9c0 .83-.67 1.5-1.5 1.5h-8.5c-.83 0-1.5-.67-1.5-1.5V4c0-.41-.34-.75-.75-.75S.75 3.59.75 4v9c0 1.65 1.35 3 3 3h8.5c1.65 0 3-1.35 3-3V4c0-.41-.34-.75-.75-.75z"/><path class="st19" d="M4 4.75v6.75c0 .41.34.75.75.75s.75-.34.75-.75V4.75c0-.41-.34-.75-.75-.75S4 4.34 4 4.75zM7.26 4.75v6.75c0 .41.34.75.75.75s.75-.34.75-.75V4.75c0-.41-.34-.75-.75-.75s-.75.34-.75.75zM10.51 4.75v6.75c0 .41.34.75.75.75s.75-.34.75-.75V4.75c0-.41-.34-.75-.75-.75s-.75.34-.75.75zM1.5 2.25h13c.41 0 .75-.34.75-.75s-.34-.75-.75-.75H9.49v-.1C9.49.29 9.2 0 8.84 0H7.15c-.36 0-.65.29-.65.65v.1h-5c-.41 0-.75.34-.75.75s.34.75.75.75z"/></g></svg>