<svg version="1.1" id="Genesys" xmlns="http://www.w3.org/2000/svg" x="0" y="0" viewBox="0 0 16 16" style="enable-background:new 0 0 16 16" xml:space="preserve"><style>.st0{fill:#33383d}</style><path class="st0" d="M11 16H5c-1.79 0-3.25-1.46-3.25-3.25v-9.5C1.75 1.46 3.21 0 5 0h6c1.79 0 3.25 1.46 3.25 3.25v9.5c0 1.79-1.46 3.25-3.25 3.25zM5 1.5c-.96 0-1.75.79-1.75 1.75v9.5c0 .96.79 1.75 1.75 1.75h6c.96 0 1.75-.79 1.75-1.75v-9.5c0-.96-.79-1.75-1.75-1.75H5z"/><path class="st0" d="M10.5 5.25h-5c-.41 0-.75-.34-.75-.75s.34-.75.75-.75h5c.41 0 .75.34.75.75s-.34.75-.75.75zM10.5 8.25h-5c-.41 0-.75-.34-.75-.75s.34-.75.75-.75h5c.41 0 .75.34.75.75s-.34.75-.75.75z"/><circle class="st0" cx="8" cy="12" r="1"/></svg>