<svg version="1.1" id="Genesys" xmlns="http://www.w3.org/2000/svg" x="0" y="0" viewBox="0 0 16 16" style="enable-background:new 0 0 16 16" xml:space="preserve"><style>.st0{fill:#33383d}</style><path class="st0" d="M14 15.25H2c-1.1 0-2-.9-2-2v-8.5c0-1.1.9-2 2-2h1.7c.17 0 .33-.09.42-.23l.55-.85c.37-.57 1-.92 1.68-.92h3.3c.68 0 1.31.34 1.68.92l.55.85c.09.14.25.23.42.23H14c1.1 0 2 .9 2 2v8.5c0 1.1-.9 2-2 2zm-12-11c-.28 0-.5.22-.5.5v8.5c0 .28.22.5.5.5h12c.28 0 .5-.22.5-.5v-8.5c0-.28-.22-.5-.5-.5h-1.7c-.68 0-1.31-.34-1.68-.92l-.55-.85a.482.482 0 0 0-.42-.23h-3.3c-.17 0-.33.09-.42.23l-.55.85c-.37.57-1 .92-1.68.92H2z"/><circle class="st0" cx="13" cy="6" r="1"/><path class="st0" d="M8 12.75c-2.21 0-4-1.79-4-4 0-.54.1-1.06.31-1.56.16-.38.6-.56.98-.4.38.16.56.6.4.98-.12.31-.19.64-.19.98a2.5 2.5 0 0 0 5 0A2.5 2.5 0 0 0 8 6.25c-.34 0-.66.07-.97.19a.75.75 0 0 1-.98-.4.75.75 0 0 1 .4-.98c.49-.21 1.01-.31 1.55-.31 2.21 0 4 1.79 4 4s-1.79 4-4 4z"/></svg>