<svg xmlns="http://www.w3.org/2000/svg" viewBox="0 0 16 16" style="enable-background:new 0 0 16 16" xml:space="preserve"><path d="M16 10.74V7.91C16 3.55 12.41 0 8 0S0 3.55 0 7.91V13c0 1.65 1.35 3 3 3h1.5c.41 0 .75-.34.75-.75V8.5c0-.41-.34-.75-.75-.75H3c-.55 0-1.06.16-1.5.42v-.26C1.5 4.37 4.42 1.5 8 1.5s6.5 2.87 6.5 6.41v.26a2.94 2.94 0 0 0-1.5-.42h-1.5c-.41 0-.75.34-.75.75v6.75c0 .41.34.75.75.75H13c1.65 0 3-1.35 3-3v-2.26c0 .01 0 0 0 0zM3 9.25h.75v5.25H3c-.83 0-1.5-.67-1.5-1.5v-2.25c0-.83.67-1.5 1.5-1.5zm10 5.25h-.75V9.25H13c.82 0 1.49.67 1.5 1.49v2.25A1.5 1.5 0 0 1 13 14.5z" style="fill:#33383d"/></svg>