<svg version="1.1" id="Genesys" xmlns="http://www.w3.org/2000/svg" x="0" y="0" viewBox="0 0 16 16" style="enable-background:new 0 0 16 16" xml:space="preserve"><style>.st0{fill:#33383d}</style><path class="st0" d="M13 .75H3c-1.65 0-3 1.35-3 3v8.5c0 1.65 1.35 3 3 3h10c1.65 0 3-1.35 3-3v-8.5c0-1.66-1.35-3-3-3zM1.5 12.25v-8.5c0-.83.67-1.5 1.5-1.5h6.99v11.5H3c-.83 0-1.5-.67-1.5-1.5zm13 0c0 .83-.67 1.5-1.5 1.5h-1.51V2.25H13c.83 0 1.5.67 1.5 1.5v8.5z"/><path class="st0" d="M13 6.75c-.41 0-.75.34-.75.75v1.01c0 .41.34.75.75.75s.75-.34.75-.75V7.5c0-.42-.33-.75-.75-.75z"/></svg>