<svg version="1.1" id="Genesys" xmlns="http://www.w3.org/2000/svg" x="0" y="0" viewBox="0 0 16 16" style="enable-background:new 0 0 16 16" xml:space="preserve"><style>.st0{fill:#33383d}</style><path class="st0" d="M10.5 16h-5c-1.52 0-2.75-1.23-2.75-2.75V2.75C2.75 1.23 3.98 0 5.5 0h5c1.52 0 2.75 1.23 2.75 2.75v10.5c0 1.52-1.23 2.75-2.75 2.75zm-5-14.5c-.69 0-1.25.56-1.25 1.25v10.5c0 .69.56 1.25 1.25 1.25h5c.69 0 1.25-.56 1.25-1.25V2.75c0-.69-.56-1.25-1.25-1.25h-5z"/><path class="st0" d="M8.75 4h-1.5a.749.749 0 1 1 0-1.5h1.5a.749.749 0 1 1 0 1.5z"/><circle class="st0" cx="8" cy="13" r="1"/></svg>