<svg version="1.1" id="Genesys" xmlns="http://www.w3.org/2000/svg" x="0" y="0" viewBox="0 0 16 16" style="enable-background:new 0 0 16 16" xml:space="preserve"><style>.st0{fill:#33383d}</style><path class="st0" d="M12 9.75c-.41 0-.75-.34-.75-.75V4.83h-6.5V9a.749.749 0 1 1-1.5 0V4.08c0-.41.34-.75.75-.75h8c.41 0 .75.34.75.75V9c0 .42-.34.75-.75.75z"/><path class="st0" d="M14.59 9.75c-.41 0-.75-.34-.75-.75V3c0-.41-.34-.75-.75-.75H2.91c-.41 0-.75.33-.75.75v6a.749.749 0 1 1-1.5 0V3C.66 1.76 1.67.75 2.91.75h10.18c1.24 0 2.25 1.01 2.25 2.25v6c0 .42-.34.75-.75.75zM14.5 15.25h-13c-.83 0-1.5-.67-1.5-1.5v-1.5c0-.83.67-1.5 1.5-1.5h4.51c.2 0 .39.08.53.22l.78.78h1.36l.78-.78a.75.75 0 0 1 .53-.22h4.51c.83 0 1.5.67 1.5 1.5v1.5c0 .83-.67 1.5-1.5 1.5zm-13-3v1.5h13v-1.5h-4.2l-.78.78a.75.75 0 0 1-.53.22H7.01a.75.75 0 0 1-.53-.22l-.78-.78H1.5z"/></svg>