<svg version="1.1" id="Genesys" xmlns="http://www.w3.org/2000/svg" x="0" y="0" viewBox="0 0 16 16" style="enable-background:new 0 0 16 16" xml:space="preserve"><style>.st0{fill:#33383d}</style><path class="st0" d="M13.88 0H2.12C.95 0 0 .95 0 2.12v8.27c0 1.17.95 2.12 2.12 2.12h3.63v2H5c-.41 0-.75.34-.75.75s.34.74.75.74h6a.749.749 0 1 0 0-1.5h-.75v-2.75c0-.41-.34-.75-.75-.75H2.12c-.34 0-.62-.28-.62-.62V2.12c0-.34.28-.62.62-.62h11.76c.34 0 .62.28.62.62v8.27c0 .34-.28.62-.62.62H12c-.41 0-.75.34-.75.75s.34.74.75.74h1.88c1.17 0 2.12-.95 2.12-2.12V2.12C16 .95 15.05 0 13.88 0zM8.75 14.5h-1.5v-2h1.5v2z"/><path class="st0" d="M13.37 3.5c0-.41-.34-.75-.75-.75H3.38c-.41 0-.75.34-.75.75s.34.75.75.75h9.23c.42 0 .76-.34.76-.75zM4.7 5.5H3.38c-.41 0-.75.34-.75.75s.34.75.75.75H4.7a.749.749 0 1 0 0-1.5zM4.7 8.25H3.38a.749.749 0 1 0 0 1.5H4.7a.749.749 0 1 0 0-1.5z"/></svg>