<svg xmlns="http://www.w3.org/2000/svg" viewBox="0 0 16 16" style="enable-background:new 0 0 16 16" xml:space="preserve"><style>.st0{display:none}.st3{display:inline;fill:none;stroke:#33383d;stroke-width:1.5;stroke-linecap:round;stroke-linejoin:round;stroke-miterlimit:10}.st11{fill:#33383d}</style><g id="Genesys"><path class="st11" d="M8 9.71c-.41 0-.75-.34-.75-.75V.75C7.25.34 7.59 0 8 0s.75.34.75.75v8.21c0 .42-.33.75-.75.75z"/><path class="st11" d="M8 13.25c-.19 0-.38-.07-.53-.22l-4.5-4.5c-.29-.29-.29-.77 0-1.06s.77-.29 1.06 0L8 11.44l3.97-3.97c.29-.29.77-.29 1.06 0s.29.77 0 1.06l-4.5 4.5a.71.71 0 0 1-.53.22zM13.93 16H2.07c-.41 0-.75-.34-.75-.75s.34-.75.75-.75h11.87c.41 0 .75.34.75.75s-.34.75-.76.75z"/></g></svg>