<svg xmlns="http://www.w3.org/2000/svg" viewBox="0 0 16 16" style="enable-background:new 0 0 16 16" xml:space="preserve"><style>.st0{display:none}.st3{display:inline}.st12{fill:none;stroke:#33383d;stroke-width:1.5;stroke-linecap:round;stroke-linejoin:round;stroke-miterlimit:10}</style><path d="M1.41 16c-.37 0-.73-.15-1-.41-.32-.32-.47-.79-.39-1.24l.46-2.63a2 2 0 0 1 .58-1.11l8.23-8.23c.29-.29.77-.29 1.06 0s.29.77 0 1.06l-8.23 8.23a.58.58 0 0 0-.16.31l-.44 2.5 2.5-.44c.12-.02.22-.07.31-.16l10-10c.22-.22.22-.58 0-.8l-1.41-1.41a.567.567 0 0 0-.8 0c-.29.29-.77.29-1.06 0s-.29-.77 0-1.06c.81-.81 2.12-.81 2.92 0l1.41 1.41c.81.81.81 2.12 0 2.93l-10 10c-.3.3-.69.5-1.11.57l-2.63.46c-.08.01-.16.02-.24.02z" style="fill:#33383d" id="Genesys"/></svg>