<svg xmlns="http://www.w3.org/2000/svg" viewBox="0 0 16 16" style="enable-background:new 0 0 16 16" xml:space="preserve"><style>.st0{display:none}.st5{display:inline;stroke:#33383d;stroke-width:1.5;stroke-linecap:round;stroke-linejoin:round;stroke-miterlimit:10}.st10,.st5{fill:#33383d}</style><g id="Genesys"><path class="st10" d="M3.39 8.75a.76.76 0 0 0-.73-.2.76.76 0 0 0-.53.54L.75 14.34c-.07.26.01.53.19.72.14.14.33.22.53.22.06 0 .13-.01.19-.02l5.25-1.38a.755.755 0 0 0 .34-1.26L3.39 8.75zM15.06.94a.766.766 0 0 0-.72-.2L9.09 2.13a.755.755 0 0 0-.34 1.26l3.87 3.87c.14.14.33.22.53.22.07 0 .13-.01.2-.03.26-.07.46-.27.53-.53l1.38-5.25a.76.76 0 0 0-.2-.73z"/></g></svg>