<svg xmlns="http://www.w3.org/2000/svg" viewBox="0 0 16 16" style="enable-background:new 0 0 16 16" xml:space="preserve"><style>.st0{display:none}.st5{display:inline}.st6{fill:none;stroke:#33383d;stroke-width:1.5;stroke-linecap:round;stroke-linejoin:round;stroke-miterlimit:10}.st11{fill:#33383d}</style><g id="Genesys"><path class="st11" d="M8 13.25c-.41 0-.75-.34-.75-.75V4.29c0-.41.34-.75.75-.75s.75.34.75.75v8.21c0 .41-.33.75-.75.75z"/><path class="st11" d="M12.5 6.01c-.19 0-.38-.07-.53-.22L8 1.82 4.03 5.79c-.29.29-.77.29-1.06 0s-.29-.77 0-1.06l4.5-4.5c.29-.29.77-.29 1.06 0l4.5 4.5a.75.75 0 0 1-.53 1.28zM14.5 16.01h-13c-.41 0-.75-.34-.75-.75V10.5c0-.41.34-.75.75-.75s.75.34.75.75v4.01h11.5V10.5c0-.41.34-.75.75-.75s.75.34.75.75v4.76c0 .41-.33.75-.75.75z"/></g></svg>