<svg xmlns="http://www.w3.org/2000/svg" viewBox="0 0 16 16" style="enable-background:new 0 0 16 16" xml:space="preserve"><style>.st0{display:none}.st2,.st8{display:inline}.st8,.st9{fill:none;stroke:#33383d;stroke-width:1.5;stroke-linecap:round;stroke-linejoin:round;stroke-miterlimit:10}.st21{fill:#33383d}</style><g id="Genesys"><path class="st21" d="M4.71 12.04c-.19 0-.38-.07-.53-.22a.754.754 0 0 1 0-1.06l8.26-8.26c.29-.29.77-.29 1.06 0s.29.77 0 1.06l-8.26 8.26c-.15.15-.34.22-.53.22z"/><path class="st21" d="M15.25 7.96c-.41 0-.75-.34-.75-.75V1.5H8.79c-.41 0-.75-.34-.75-.75S8.38 0 8.79 0h6.46c.42 0 .75.33.75.75v6.46c0 .41-.33.75-.75.75zM11.95 16H.75c-.41 0-.75-.34-.75-.75V4.05c0-.42.34-.75.75-.75h5.93a.749.749 0 1 1 0 1.5H1.5v9.7h9.7V9.32a.749.749 0 1 1 1.5 0v5.93c0 .41-.33.75-.75.75z"/></g></svg>