<svg version="1.1" id="FNL_OL" xmlns="http://www.w3.org/2000/svg" x="0" y="0" viewBox="0 0 16 16" style="enable-background:new 0 0 16 16" xml:space="preserve"><style>.st1{fill:#fff}</style><circle cx="8" cy="8" r="8" style="fill:#33383d"/><circle class="st1" cx="5.33" cy="6" r=".87"/><circle class="st1" cx="10.67" cy="6" r=".87"/><path class="st1" d="M4.67 11.21a.47.47 0 0 1-.35-.15c-.2-.2-.2-.51 0-.71C5.3 9.37 6.61 8.83 8 8.83c1.39 0 2.7.54 3.69 1.53.2.2.2.51 0 .71-.2.2-.51.2-.71 0-.8-.8-1.85-1.23-2.98-1.23s-2.18.44-2.98 1.23c-.1.09-.23.14-.35.14z"/></svg>