<svg version="1.1" id="FNL_OL" xmlns="http://www.w3.org/2000/svg" x="0" y="0" viewBox="0 0 16 16" style="enable-background:new 0 0 16 16" xml:space="preserve"><style>.st0{fill:#33383d}</style><path class="st0" d="M8 16c-4.41 0-8-3.59-8-8s3.59-8 8-8 8 3.59 8 8-3.59 8-8 8zM8 1.5C4.42 1.5 1.5 4.41 1.5 8s2.92 6.5 6.5 6.5 6.5-2.92 6.5-6.5S11.58 1.5 8 1.5z"/><path class="st0" d="M9.98 11.25H6.02c-.41 0-.75-.34-.75-.75s.34-.75.75-.75h3.96c.41 0 .75.34.75.75s-.34.75-.75.75z"/><circle class="st0" cx="10.25" cy="6.5" r="1"/><circle class="st0" cx="5.75" cy="6.5" r="1"/></svg>