<svg xmlns="http://www.w3.org/2000/svg" viewBox="0 0 16 16" style="enable-background:new 0 0 16 16" xml:space="preserve"><style>.st0{display:none}.st8{fill:#33383d}.st9{fill:#fff}</style><g id="Genesys"><path class="st8" d="M16 8c0-4.42-3.58-8-8-8a7.998 7.998 0 0 0-1.25 15.9v-5.59H4.72V8h2.03V6.24c0-2.01 1.19-3.11 3.02-3.11.88 0 1.79.16 1.79.16v1.97h-1.01c-.99 0-1.3.62-1.3 1.25V8h2.22l-.35 2.31H9.25v5.59C13.07 15.3 16 11.99 16 8z"/><path class="st9" d="M11.11 10.31 11.47 8H9.25V6.5c0-.63.31-1.25 1.3-1.25h1.01V3.28s-.92-.16-1.79-.16c-1.83 0-3.02 1.11-3.02 3.11V8H4.72v2.31h2.03v5.59c.41.07.82.1 1.25.1s.84-.03 1.25-.1v-5.59h1.86z"/></g></svg>