<svg version="1.1" id="FNL_OL" xmlns="http://www.w3.org/2000/svg" x="0" y="0" viewBox="0 0 16 16" style="enable-background:new 0 0 16 16" xml:space="preserve"><style>.st0{fill:#33383d}</style><path class="st0" d="M8 16c-4.41 0-8-3.59-8-8s3.59-8 8-8 8 3.59 8 8-3.59 8-8 8zM8 1.5C4.42 1.5 1.5 4.41 1.5 8c0 3.58 2.92 6.5 6.5 6.5s6.5-2.92 6.5-6.5c0-3.59-2.92-6.5-6.5-6.5z"/><path class="st0" d="M10.64 11.34c-.19 0-.38-.07-.53-.22-1.13-1.12-3.09-1.12-4.22 0-.29.29-.77.29-1.06 0s-.29-.77 0-1.06C5.68 9.21 6.8 8.75 8 8.75s2.32.47 3.17 1.31c.29.29.29.77 0 1.06-.15.15-.34.22-.53.22z"/><circle class="st0" cx="10.25" cy="6.5" r="1"/><circle class="st0" cx="5.75" cy="6.5" r="1"/></svg>