<svg version="1.1" id="FNL_OL" xmlns="http://www.w3.org/2000/svg" x="0" y="0" viewBox="0 0 16 16" style="enable-background:new 0 0 16 16" xml:space="preserve"><style>.st0{fill:#33383d}</style><path class="st0" d="M8 16c-4.41 0-8-3.59-8-8s3.59-8 8-8 8 3.59 8 8-3.59 8-8 8zM8 1.5C4.42 1.5 1.5 4.41 1.5 8s2.92 6.5 6.5 6.5 6.5-2.92 6.5-6.5S11.58 1.5 8 1.5z"/><path class="st0" d="M8 12c-1.2 0-2.32-.47-3.17-1.31-.29-.29-.29-.77 0-1.06s.77-.29 1.06 0c1.12 1.12 3.09 1.12 4.21 0 .29-.29.77-.29 1.06 0s.29.77 0 1.06A4.44 4.44 0 0 1 8 12z"/><circle class="st0" cx="10.25" cy="6.5" r="1"/><circle class="st0" cx="5.75" cy="6.5" r="1"/></svg>