<svg xmlns="http://www.w3.org/2000/svg" viewBox="0 0 16 16" style="enable-background:new 0 0 16 16" xml:space="preserve"><style>.st0{display:none}.st1,.st8{display:inline;fill:none;stroke:#33383d;stroke-width:1.3;stroke-linecap:round;stroke-linejoin:round;stroke-miterlimit:10}.st8{stroke-width:1.5}.st21{fill:#33383d}</style><g id="Genesys"><path class="st21" d="M14.59 3.88 11.37.66c-.42-.42-1-.66-1.59-.66H3C1.76 0 .75 1.01.75 2.25v11.5C.75 14.99 1.76 16 3 16h9c.41 0 .75-.34.75-.75s-.34-.75-.75-.75H3c-.41 0-.75-.34-.75-.75V2.25c0-.41.34-.75.75-.75h6V4c0 1.24 1.01 2.25 2.25 2.25h2.5v9c0 .41.34.75.75.75s.75-.34.75-.75V5.48c0-.6-.23-1.17-.66-1.6zM10.5 4V1.91l2.84 2.84h-2.09c-.41 0-.75-.34-.75-.75z"/><path class="st21" d="M4 5.5v7.11c0 .41.34.75.75.75s.75-.34.75-.75V5.5a.749.749 0 1 0-1.5 0zM7.25 10v2.61c0 .41.34.75.75.75s.75-.34.75-.75V10a.749.749 0 1 0-1.5 0zM10.51 8.5v4.11c0 .41.34.75.75.75s.75-.34.75-.75V8.5a.749.749 0 1 0-1.5 0z"/></g></svg>