<svg xmlns="http://www.w3.org/2000/svg" viewBox="0 0 16 16" style="enable-background:new 0 0 16 16" xml:space="preserve"><style>.st0{display:none}.st1,.st8{display:inline;fill:none;stroke:#33383d;stroke-width:1.3;stroke-linecap:round;stroke-linejoin:round;stroke-miterlimit:10}.st8{stroke-width:1.5}.st21{fill:#33383d}</style><g id="Genesys"><path class="st21" d="M13.75.75H2.25C1.01.75 0 1.76 0 3v10c0 1.24 1.01 2.25 2.25 2.25h10.5c.41 0 .75-.34.75-.75s-.34-.75-.75-.75H2.25c-.41 0-.75-.34-.75-.75v-2.68l1.28 1.28c.42.42.99.66 1.59.66s1.17-.23 1.59-.66l5.14-5.14c.28-.28.78-.28 1.06 0L14.5 8.8v5.69c0 .41.34.75.75.75s.75-.33.75-.74V3C16 1.76 14.99.75 13.75.75zm-.53 4.66c-.85-.85-2.33-.85-3.18 0L4.9 10.55c-.28.28-.78.28-1.06 0L1.5 8.2V3c0-.41.34-.75.75-.75h11.5c.41 0 .75.34.75.75v3.68l-1.28-1.27z"/><path class="st21" d="M5 3a2.5 2.5 0 0 0 0 5 2.5 2.5 0 0 0 0-5zm0 3.5c-.55 0-1-.45-1-1s.45-1 1-1 1 .45 1 1-.45 1-1 1z"/></g></svg>