<svg xmlns="http://www.w3.org/2000/svg" viewBox="0 0 16 16" style="enable-background:new 0 0 16 16" xml:space="preserve"><style>.st0{display:none}</style><path d="M10 14.02H2c-1.1 0-2-.9-2-2V3.98c0-1.1.9-2 2-2h8c1.1 0 2 .9 2 2 0 .41-.34.75-.75.75s-.75-.34-.75-.75c0-.28-.22-.5-.5-.5H2c-.28 0-.5.22-.5.5v8.04c0 .28.22.5.5.5h8c.28 0 .5-.22.5-.5V6.39c0-.3.18-.57.46-.69l2.61-1.11a1.76 1.76 0 0 1 1.65.15c.49.33.78.87.78 1.46v3.59c0 .59-.29 1.13-.78 1.46-.49.33-1.11.38-1.65.15L12 10.74v1.28c0 1.1-.9 2-2 2zm2-4.91 2.15.92a.25.25 0 0 0 .35-.23V6.2a.25.25 0 0 0-.11-.21.235.235 0 0 0-.24-.02L12 6.89v2.22z" style="fill:#33383d" id="Genesys"/></svg>