<svg xmlns="http://www.w3.org/2000/svg" viewBox="0 0 16 16" style="enable-background:new 0 0 16 16" xml:space="preserve"><style>.st0{display:none}.st1,.st8{display:inline;fill:none;stroke:#33383d;stroke-width:1.3;stroke-linecap:round;stroke-linejoin:round;stroke-miterlimit:10}.st8{stroke-width:1.5}.st21{fill:#33383d}</style><g id="Genesys"><path class="st21" d="M13 0H3C1.76 0 .75 1.01.75 2.25v11.5C.75 14.99 1.76 16 3 16h9c.41 0 .75-.34.75-.75s-.34-.75-.75-.75H3c-.41 0-.75-.34-.75-.75v-2.04l.53.53c.42.42.99.66 1.59.66.6 0 1.17-.23 1.59-.66l4.41-4.41c.29-.29.77-.29 1.06 0l2.31 2.31v5.1c0 .41.34.75.75.75s.75-.34.75-.75v-13C15.25 1.01 14.24 0 13 0zm-.5 6.77c-.85-.85-2.33-.85-3.18 0l-4.41 4.41c-.28.28-.78.28-1.06 0l-1.6-1.59V2.25c0-.42.34-.75.75-.75h10c.41 0 .75.34.75.75v5.78L12.5 6.77z"/><path class="st21" d="M6 2a2.5 2.5 0 0 0 0 5 2.5 2.5 0 0 0 0-5zm0 3.5c-.55 0-1-.45-1-1s.45-1 1-1 1 .45 1 1-.45 1-1 1z"/></g></svg>