<svg xmlns="http://www.w3.org/2000/svg" viewBox="0 0 16 16" style="enable-background:new 0 0 16 16" xml:space="preserve"><style>.st0{display:none}.st1{display:inline;fill:none;stroke:#33383d;stroke-width:1.3;stroke-linecap:round;stroke-linejoin:round;stroke-miterlimit:10}.st2,.st8{display:inline}.st8,.st9{fill:none;stroke:#33383d;stroke-width:1.5;stroke-linecap:round;stroke-linejoin:round;stroke-miterlimit:10}</style><path d="M14.59 3.88 11.37.66c-.42-.42-1-.66-1.59-.66H3C1.76 0 .75 1.01.75 2.25v11.5C.75 14.99 1.76 16 3 16h7.71c.41 0 .75-.34.75-.75s-.34-.75-.75-.75H3c-.41 0-.75-.34-.75-.75V2.25c0-.41.34-.75.75-.75h6V4c0 .34.08.66.22.95-.39-.12-.79-.2-1.22-.2-2.34 0-4.25 1.91-4.25 4.25S5.66 13.25 8 13.25c.9 0 1.73-.29 2.42-.77l3.3 3.3c.14.14.33.22.53.22h.25c.41 0 .75-.34.75-.75V5.48c0-.6-.23-1.17-.66-1.6zm-1.25.87h-2.09c-.41 0-.75-.34-.75-.75V1.91l2.84 2.84zM5.25 9c0-1.52 1.23-2.75 2.75-2.75S10.75 7.48 10.75 9 9.52 11.75 8 11.75 5.25 10.52 5.25 9zm6.23 2.42c.48-.69.77-1.52.77-2.42a4.2 4.2 0 0 0-1.04-2.75h2.54v7.44l-2.27-2.27z" style="fill:#33383d" id="Genesys"/></svg>