<svg xmlns="http://www.w3.org/2000/svg" viewBox="0 0 16 16" style="enable-background:new 0 0 16 16" xml:space="preserve"><style>.st0{display:none}.st1,.st8{display:inline;fill:none;stroke:#33383d;stroke-width:1.3;stroke-linecap:round;stroke-linejoin:round;stroke-miterlimit:10}.st8{stroke-width:1.5}.st21{fill:#33383d}</style><g id="Genesys"><path class="st21" d="M9.37.66C8.95.24 8.37 0 7.78 0H2.25C1.01 0 0 1.01 0 2.25v11.5C0 14.99 1.01 16 2.25 16H10a.749.749 0 1 0 0-1.5H2.25c-.41 0-.75-.34-.75-.75V2.25c0-.41.34-.75.75-.75H7V4c0 1.24 1.01 2.25 2.25 2.25h2.5v9c0 .41.34.75.75.75s.75-.34.75-.75V5.48c0-.59-.24-1.17-.66-1.59L9.37.66zM8.5 4V1.92l2.83 2.83H9.25c-.41 0-.75-.34-.75-.75z"/><path class="st21" d="M15.34 2.74 12.82.22c-.29-.29-.77-.29-1.06 0s-.29.77 0 1.06l2.52 2.52c.14.14.22.33.22.53v10.92c0 .41.34.75.75.75s.75-.34.75-.75V4.33c0-.59-.24-1.17-.66-1.59z"/></g></svg>