<svg xmlns="http://www.w3.org/2000/svg" viewBox="0 0 16 16" style="enable-background:new 0 0 16 16" xml:space="preserve"><style>.st0{display:none}.st1,.st8{display:inline;fill:none;stroke:#33383d;stroke-width:1.3;stroke-linecap:round;stroke-linejoin:round;stroke-miterlimit:10}.st8{stroke-width:1.5}.st21{fill:#33383d}</style><g id="Genesys"><path class="st21" d="M8.52 4.25h6.73c.41 0 .75-.34.75-.75s-.34-.75-.75-.75H8.52c-.41 0-.75.34-.75.75s.34.75.75.75zM15.25 11.75H6.64c-.32-.95-1.21-1.65-2.27-1.65s-1.95.69-2.27 1.65H.75c-.41 0-.75.34-.75.75s.34.75.75.75h1.36c.32.95 1.21 1.65 2.27 1.65s1.95-.69 2.27-1.65h8.61c.41 0 .75-.34.75-.75s-.35-.75-.76-.75zM4.37 13.4a.9.9 0 0 1-.9-.89c0-.49.4-.89.9-.89.49 0 .9.4.9.9 0 .48-.4.88-.9.88zM.75 4.25h1.36c.31.95 1.21 1.65 2.26 1.65 1.32 0 2.4-1.08 2.4-2.4 0-1.32-1.08-2.4-2.4-2.4-1.06 0-1.95.69-2.27 1.65H.75c-.41 0-.75.34-.75.75s.34.75.75.75zM4.37 2.6c.49 0 .9.4.9.9s-.4.9-.9.9a.9.9 0 0 1-.9-.89c.01-.51.41-.91.9-.91zM15.25 7.26H13.9c-.32-.95-1.21-1.65-2.27-1.65s-1.95.69-2.27 1.65H.75a.749.749 0 1 0 0 1.5h8.61c.32.95 1.21 1.65 2.27 1.65s1.95-.69 2.27-1.65h1.35c.41 0 .75-.34.75-.75s-.34-.75-.75-.75zM11.63 8.9c-.5 0-.9-.4-.9-.9s.4-.9.9-.9.9.4.9.9-.41.9-.9.9z"/></g></svg>