<svg xmlns="http://www.w3.org/2000/svg" viewBox="0 0 16 16" style="enable-background:new 0 0 16 16" xml:space="preserve"><style>.st0{display:none}.st3{display:inline}.st12{fill:none;stroke:#33383d;stroke-width:1.5;stroke-linecap:round;stroke-linejoin:round;stroke-miterlimit:10}</style><path d="M9.15 15.99a.75.75 0 0 1-.14-1.49c2.41-.44 4.17-2.39 4.17-4.64 0-2.11-1.34-3.37-2.52-4.47l-.31-.29c-.96-.92-1.79-1.8-2.07-2.92-.76.9-.74 2.18-.4 3.01 1.25 2.97-.01 4.13-.87 4.55-.81.4-1.68.41-2.45.02-.65-.32-1.16-.91-1.4-1.58-.22.53-.34 1.1-.34 1.69 0 2.25 1.75 4.2 4.17 4.64.41.07.68.46.6.87-.07.41-.47.67-.87.6-3.13-.57-5.4-3.14-5.4-6.12 0-1.7.73-3.3 2.06-4.48.27-.24.75-.26 1.04-.04.29.21.4.63.25.98-.17.36-.22.79-.14 1.2.07.37.35.72.7.9.25.12.64.21 1.12-.02.26-.13 1.04-.52.15-2.63C5.69 3.84 6.29 1.1 8.69.06c.26-.11.55-.07.77.1.22.17.32.46.27.73-.22 1.12.31 1.84 1.66 3.12l.3.29c1.26 1.19 2.99 2.81 2.99 5.57 0 2.98-2.27 5.55-5.4 6.12h-.13z" style="fill:#33383d" id="Genesys"/></svg>