<svg version="1.1" id="Genesys" xmlns="http://www.w3.org/2000/svg" x="0" y="0" viewBox="0 0 16 16" style="enable-background:new 0 0 16 16" xml:space="preserve"><style>.st0{fill:#33383d}</style><path class="st0" d="M14 3.75H8.9a.48.48 0 0 1-.4-.2l-1.5-2c-.38-.5-.97-.8-1.6-.8H2c-1.1 0-2 .9-2 2v10.5c0 1.1.9 2 2 2h7.5c.41 0 .75-.34.75-.75s-.34-.75-.75-.75H2c-.28 0-.5-.22-.5-.5V2.75c0-.28.22-.5.5-.5h3.4c.16 0 .31.08.4.2l1.5 2c.38.5.97.8 1.6.8H14c.28 0 .5.22.5.5V8.5c0 .41.34.75.75.75s.75-.34.75-.75V5.75c0-1.1-.9-2-2-2z"/><path class="st0" d="M15.25 10.75h-2v-2c0-.41-.34-.75-.75-.75s-.75.34-.75.75v2h-2c-.41 0-.75.34-.75.75s.34.75.75.75h2v2c0 .41.34.75.75.75s.75-.34.75-.75v-2h2c.41 0 .75-.34.75-.75s-.34-.75-.75-.75z"/></svg>