<svg xmlns="http://www.w3.org/2000/svg" viewBox="0 0 16 16" style="enable-background:new 0 0 16 16" xml:space="preserve"><path d="M15.5 6.49c-.26-.31-.61-.53-1-.64V4.83a2.1 2.1 0 0 0-2.1-2.1H8.84c-.19 0-.37-.09-.48-.24l-.67-.9c-.4-.53-1.03-.84-1.68-.84H3.6a2.1 2.1 0 0 0-2.1 2.1v3c-.38.12-.73.33-1 .64-.4.47-.57 1.09-.47 1.7l.88 5.3a2.095 2.095 0 0 0 2.07 1.76h10.03c1.03 0 1.9-.74 2.07-1.76l.88-5.3c.11-.61-.06-1.23-.46-1.7zM3.6 2.25h2.41c.19 0 .37.09.48.24l.67.9c.39.53 1.02.84 1.68.84h3.56c.33 0 .6.27.6.6v.92H3v-2.9c0-.33.27-.6.6-.6zm10.01 11a.6.6 0 0 1-.59.5H2.98a.6.6 0 0 1-.59-.5l-.88-5.3c-.04-.24.07-.41.14-.49.06-.08.21-.21.45-.21h11.8a.59.59 0 0 1 .59.7l-.88 5.3z" style="fill:#33383d"/></svg>