<svg xmlns="http://www.w3.org/2000/svg" viewBox="0 0 16 16" style="enable-background:new 0 0 16 16" xml:space="preserve"><style>.st0{display:none}.st1{display:inline;fill:none;stroke:#33383d;stroke-width:1.5;stroke-linecap:round;stroke-linejoin:round;stroke-miterlimit:10}</style><path d="M14 15.25c-.41 0-.75-.34-.75-.75s.34-.75.75-.75c.28 0 .5-.22.5-.5v-7.5c0-.28-.22-.5-.5-.5H8.9c-.63 0-1.22-.3-1.6-.8l-1.5-2a.48.48 0 0 0-.4-.2H2c-.28 0-.5.22-.5.5v10.5c0 .28.22.5.5.5h9.5c.41 0 .75.34.75.75s-.34.75-.75.75H2c-1.1 0-2-.9-2-2V2.75c0-1.1.9-2 2-2h3.4c.63 0 1.23.3 1.6.8l1.5 2c.09.13.24.2.4.2H14c1.1 0 2 .9 2 2v7.5c0 1.1-.9 2-2 2z" style="fill:#33383d" id="Genesys"/></svg>