<svg xmlns="http://www.w3.org/2000/svg" viewBox="0 0 16 16" style="enable-background:new 0 0 16 16" xml:space="preserve"><style>.st0{display:none}.st6{display:inline;fill:none;stroke:#33383d;stroke-width:1.5;stroke-linecap:round;stroke-linejoin:round;stroke-miterlimit:10}.st10{fill:#33383d}</style><g id="Genesys"><path class="st10" d="M14.82 4.09c-.08-.77-.72-1.34-1.49-1.34h-.08v-2c0-.42-.34-.75-.75-.75h-3c-.42 0-.75.33-.75.75v2h-1.5v-2C7.25.33 6.91 0 6.5 0h-3c-.42 0-.75.33-.75.75v2h-.08c-.77 0-1.41.58-1.49 1.34L.09 14.34c-.04.42.09.85.38 1.16.28.32.69.5 1.11.5h4.34c.42 0 .83-.18 1.12-.5.28-.32.42-.74.38-1.16l-.43-4.09h2.03l-.43 4.09c-.04.42.09.85.38 1.16.28.31.69.5 1.11.5h4.34c.42 0 .83-.18 1.12-.5.28-.32.42-.74.38-1.16l-1.1-10.25zM10.25 1.5h1.5v1.25h-1.5V1.5zm-6 0h1.5v1.25h-1.5V1.5zm1.67 13H1.58L2.67 4.25h10.66l.48 4.5H3.83c-.41 0-.75.34-.75.75s.34.75.75.75h1.64l.45 4.25zm4.16 0 .45-4.25h3.45l.45 4.25h-4.35z"/><path class="st10" d="M9.5 8c.41 0 .75-.34.75-.75V6c0-.41-.34-.75-.75-.75s-.75.34-.75.75v1.25c0 .41.33.75.75.75zM6.5 8c.41 0 .75-.34.75-.75V6c0-.41-.34-.75-.75-.75s-.75.34-.75.75v1.25c0 .41.33.75.75.75z"/></g></svg>