<svg xmlns="http://www.w3.org/2000/svg" viewBox="0 0 16 16" style="enable-background:new 0 0 16 16" xml:space="preserve"><style>.st0{display:none}.st2{display:inline;fill:none;stroke:#33383d;stroke-width:1.5;stroke-linecap:round;stroke-linejoin:round;stroke-miterlimit:10}</style><path d="M15.92 14.91 10.65 4.37c-.25-.51-1.09-.51-1.34 0l-2 3.99a4.08 4.08 0 0 1-1.06-2.74c0-2.27 1.85-4.12 4.12-4.12a4.127 4.127 0 0 1 3.5 6.3.747.747 0 1 0 1.27.79c.57-.88.86-1.91.86-2.97C16 2.52 13.48 0 10.37 0S4.75 2.52 4.75 5.62c0 1.61.67 3.1 1.85 4.16l-.48.96H1.5v-6.5h1.88c.41 0 .75-.34.75-.75s-.34-.74-.75-.74H.75c-.41 0-.75.34-.75.75v8c0 .41.34.75.75.75h4.62l-1.33 2.67c-.12.23-.1.51.03.73.14.21.38.35.64.35h10.54c.26 0 .5-.13.64-.36.14-.22.15-.49.03-.73zm-10-.41 4.06-8.12 4.06 8.12H5.92z" style="fill:#33383d" id="Genesys"/></svg>