<svg xmlns="http://www.w3.org/2000/svg" viewBox="0 0 16 16" style="enable-background:new 0 0 16 16" xml:space="preserve"><style>.st0{display:none}.st1{display:inline;fill:none;stroke:#33383d;stroke-width:1.5;stroke-linecap:round;stroke-linejoin:round;stroke-miterlimit:10}</style><path d="M8 0C3.59 0 0 3.59 0 8s3.59 8 8 8 8-3.59 8-8-3.59-8-8-8zM1.5 8c0-3.58 2.92-6.5 6.5-6.5.37 0 .73.04 1.09.1l.15.14-.5.85c-.28.47-.42 1-.42 1.54v.15H7.27c-.78 0-1.41.63-1.41 1.41v.33c0 .68.3 1.31.82 1.75l.15.13c.4.33.92.52 1.44.52h.65c.2 0 .4.08.54.22l1.81 1.81c.25.25.33.63.2.96l-1.02 2.6c-.32.13-.66.24-1.01.32v-1.25c0-.57-.32-1.09-.83-1.35l-1.01-.51a.755.755 0 0 1-.42-.68v-.91c0-.52-.26-1-.71-1.28L4.5 7.13a.746.746 0 0 1-.36-.65v-.46c0-.41-.34-.75-.75-.75s-.75.34-.75.75v.46c0 .79.4 1.5 1.06 1.92l1.96 1.23v.91c0 .86.48 1.64 1.25 2.02l1.02.51v1.41C4.38 14.46 1.5 11.56 1.5 8zm11.13 4.56.23-.59c.35-.89.14-1.9-.53-2.57l-1.81-1.81c-.43-.43-1-.67-1.6-.67h-.65c-.18 0-.35-.06-.49-.18l-.15-.13a.74.74 0 0 1-.28-.58v-.25h1.29l.2.33c.14.23.39.35.64.35.14 0 .27-.04.4-.11.35-.22.46-.68.24-1.03l-.31-.5v-.69c0-.27.07-.54.21-.78l.73-1.23C12.96 3.16 14.5 5.4 14.5 8c0 1.77-.72 3.38-1.87 4.56z" style="fill:#33383d" id="Genesys"/></svg>