<svg xmlns="http://www.w3.org/2000/svg" viewBox="0 0 16 16" style="enable-background:new 0 0 16 16" xml:space="preserve"><style>.st0{display:none}.st5{display:inline;stroke:#33383d;stroke-width:1.5;stroke-linecap:round;stroke-linejoin:round;stroke-miterlimit:10}.st10,.st5{fill:#33383d}</style><g id="Genesys"><path class="st10" d="M8.75 4h-1.5c-.41 0-.75.33-.75.75v1.5c0 .41.34.75.75.75h1.5c.41 0 .75-.34.75-.75v-1.5c0-.42-.34-.75-.75-.75zM3.25 4h-1.5c-.42 0-.75.33-.75.75v1.5c0 .41.33.75.75.75h1.5c.41 0 .75-.34.75-.75v-1.5C4 4.33 3.66 4 3.25 4zM14.26 4h-1.5c-.41 0-.75.34-.75.75v1.5c0 .41.34.75.75.75h1.5c.41 0 .75-.34.75-.75v-1.5c0-.42-.34-.75-.75-.75zM8.75 9h-1.5c-.41 0-.75.34-.75.75v1.5c0 .42.34.75.75.75h1.5c.41 0 .75-.34.75-.75v-1.5c0-.41-.34-.75-.75-.75zM3.25 9h-1.5c-.42 0-.75.34-.75.75v1.5c0 .42.33.75.75.75h1.5c.41 0 .75-.33.75-.75v-1.5C4 9.34 3.66 9 3.25 9zM14.26 9h-1.5c-.41 0-.75.34-.75.75v1.5c0 .41.34.75.75.75h1.5c.41 0 .75-.34.75-.75v-1.5c0-.41-.34-.75-.75-.75z"/></g></svg>