<svg xmlns="http://www.w3.org/2000/svg" viewBox="0 0 16 16" style="enable-background:new 0 0 16 16" xml:space="preserve"><style>.st0{display:none}.st5{display:inline;stroke:#33383d;stroke-width:1.5;stroke-linecap:round;stroke-linejoin:round;stroke-miterlimit:10}.st10,.st5{fill:#33383d}</style><g id="Genesys"><path class="st10" d="M6.25 6.5h-1.5c-.41 0-.75.34-.75.75v1.5c0 .42.34.75.75.75h1.5c.42 0 .75-.33.75-.75v-1.5c0-.41-.33-.75-.75-.75zM6.25 12h-1.5c-.41 0-.75.34-.75.75v1.5c0 .42.34.75.75.75h1.5c.42 0 .75-.33.75-.75v-1.5c0-.41-.33-.75-.75-.75zM6.25 1h-1.5c-.41 0-.75.33-.75.75v1.5c0 .41.34.75.75.75h1.5c.42 0 .75-.34.75-.75v-1.5C7 1.33 6.67 1 6.25 1zM11.26 6.5h-1.5c-.41 0-.75.34-.75.75v1.5c0 .41.34.75.75.75h1.5c.41 0 .75-.34.75-.75v-1.5c0-.41-.34-.75-.75-.75zM11.26 12h-1.5c-.41 0-.75.34-.75.75v1.5c0 .41.34.75.75.75h1.5c.41 0 .75-.34.75-.75v-1.5c0-.41-.34-.75-.75-.75zM11.26 1h-1.5c-.42 0-.75.33-.75.75v1.5c0 .41.33.75.75.75h1.5c.41 0 .75-.34.75-.75v-1.5c0-.42-.34-.75-.75-.75z"/></g></svg>