<svg xmlns="http://www.w3.org/2000/svg" viewBox="0 0 16 16" style="enable-background:new 0 0 16 16" xml:space="preserve"><style>.st0{display:none}.st1,.st8{display:inline;fill:none;stroke:#33383d;stroke-width:1.3;stroke-linecap:round;stroke-linejoin:round;stroke-miterlimit:10}.st8{stroke-width:1.5}.st21{fill:#33383d}</style><g id="Genesys"><path class="st21" d="M15.25 16H.75c-.41 0-.75-.34-.75-.75V.75a.749.749 0 1 1 1.5 0V14.5h13.75c.41 0 .75.34.75.75s-.34.75-.75.75z"/><path class="st21" d="M6.12 12.24H3.27c-.41 0-.75-.34-.75-.75s.34-.75.75-.75H5.7l5.71-9.41c.14-.22.38-.36.64-.36h3.2c.41 0 .75.34.75.75s-.34.75-.75.75h-2.78l-5.71 9.41a.73.73 0 0 1-.64.36z"/></g></svg>