<svg xmlns="http://www.w3.org/2000/svg" viewBox="0 0 16 16" style="enable-background:new 0 0 16 16" xml:space="preserve"><style>.st0{display:none}.st3{display:inline;fill:none;stroke:#33383d;stroke-width:1.5;stroke-linecap:round;stroke-linejoin:round;stroke-miterlimit:10}.st11{fill:#33383d}</style><g id="Genesys"><path class="st11" d="M15.25 16H.75c-.41 0-.75-.34-.75-.75V.75a.749.749 0 1 1 1.5 0V14.5h13.75c.41 0 .75.34.75.75s-.34.75-.75.75z"/><path class="st11" d="M10.96 13.36c-.34 0-.63-.22-.72-.54L7.67 4.07l-1.95 6.72a.748.748 0 0 1-1.41.08L2.69 6.96c-.16-.38.02-.82.41-.98.38-.16.82.02.98.41l.8 1.93 2.07-7.13c.09-.32.38-.5.72-.54.33 0 .63.22.72.54l2.59 8.83 1.9-6.19c.09-.3.36-.51.68-.53.33-.03.61.17.73.46l1.65 3.95a.75.75 0 0 1-.4.98.75.75 0 0 1-.98-.4l-.85-2.03-2.03 6.59c-.1.3-.39.51-.72.51z"/></g></svg>