<svg xmlns="http://www.w3.org/2000/svg" viewBox="0 0 16 16" style="enable-background:new 0 0 16 16" xml:space="preserve"><style>.st0{display:none}.st2{display:inline;fill:none;stroke:#33383d;stroke-width:1.5;stroke-miterlimit:10}.st11{fill:#33383d}</style><g id="Genesys"><path class="st11" d="M15.25 16H.75c-.41 0-.75-.34-.75-.75V.75a.749.749 0 1 1 1.5 0V14.5h13.75c.41 0 .75.34.75.75s-.34.75-.75.75z"/><path class="st11" d="M12.63 12.74c-1.86 0-3.38-1.51-3.38-3.38 0-1.86 1.51-3.38 3.38-3.38C14.49 5.99 16 7.5 16 9.37c0 1.86-1.51 3.37-3.37 3.37zm0-5.25c-1.03 0-1.88.84-1.88 1.88s.84 1.88 1.88 1.88 1.88-.84 1.88-1.88a1.89 1.89 0 0 0-1.88-1.88zM5.26 13c-1.52 0-2.75-1.23-2.75-2.75S3.74 7.5 5.26 7.5s2.75 1.23 2.75 2.75S6.78 13 5.26 13zm0-4a1.25 1.25 0 1 0 0 2.5 1.25 1.25 0 0 0 0-2.5zM7.35 6.79c-1.87 0-3.4-1.52-3.4-3.4S5.48 0 7.35 0s3.4 1.52 3.4 3.4-1.52 3.39-3.4 3.39zm0-5.29a1.9 1.9 0 1 0 0 3.8 1.9 1.9 0 1 0 0-3.8z"/></g></svg>