<svg xmlns="http://www.w3.org/2000/svg" viewBox="0 0 16 16" style="enable-background:new 0 0 16 16" xml:space="preserve"><style>.st0{display:none}.st1{fill:none;stroke:#33383d;stroke-width:1.3;stroke-linecap:round;stroke-linejoin:round;stroke-miterlimit:10}.st1,.st2{display:inline}.st14,.st8{fill:none;stroke:#33383d;stroke-linecap:round;stroke-linejoin:round;stroke-miterlimit:10}.st8{display:inline;stroke-width:1.5}.st14{stroke-width:1.4829}.st21{fill:#33383d}</style><g id="Genesys"><path class="st21" d="M6.67 1.49H3.25c-.41 0-.74-.33-.74-.74s.33-.74.74-.74h3.42c.41 0 .74.33.74.74s-.33.74-.74.74zM12.61 5.07H3.25c-.41 0-.74-.33-.74-.74s.33-.74.74-.74h9.36c.41 0 .74.33.74.74s-.33.74-.74.74zM9.97 8.66H3.25c-.41 0-.74-.33-.74-.74s.33-.74.74-.74h6.72c.41 0 .74.33.74.74s-.33.74-.74.74zM15.25 12.24h-12c-.41 0-.74-.33-.74-.74s.33-.74.74-.74h12c.41 0 .74.33.74.74s-.33.74-.74.74z"/><path class="st21" d="M15.25 16H.75c-.41 0-.75-.34-.75-.75V.75a.749.749 0 1 1 1.5 0V14.5h13.75c.41 0 .75.34.75.75s-.34.75-.75.75z"/></g></svg>