<svg xmlns="http://www.w3.org/2000/svg" viewBox="0 0 16 16" style="enable-background:new 0 0 16 16" xml:space="preserve"><style>.st0{display:none}.st1{fill:#d1d3d4}.st1,.st2{display:inline}.st3,.st4{fill:none;stroke:#33383d;stroke-width:1.5;stroke-linecap:round;stroke-linejoin:round;stroke-miterlimit:10}.st4{display:inline}.st8{fill:#33383d}</style><g id="Genesys"><path class="st8" d="M14.21 10.25H7.5c-.96 0-1.75-.78-1.75-1.75V1.79c0-.5.22-.99.6-1.32.38-.33.88-.48 1.37-.42a9.52 9.52 0 0 1 8.24 8.24c.06.49-.09.99-.42 1.37-.34.37-.83.59-1.33.59zM7.5 1.53c-.08 0-.13.04-.16.06-.03.03-.09.1-.09.2V8.5c0 .14.11.25.25.25h6.71c.1 0 .17-.06.2-.09s.07-.1.06-.19a8.023 8.023 0 0 0-6.94-6.93c-.01-.01-.02-.01-.03-.01z"/><path class="st8" d="M6.98 16C3.13 16 0 12.87 0 9.02c0-2.56 1.4-4.9 3.64-6.13.37-.2.82-.06 1.02.3.2.36.06.82-.3 1.02A5.49 5.49 0 0 0 1.5 9.02c0 3.02 2.46 5.48 5.48 5.48 2.01 0 3.85-1.1 4.81-2.86.2-.36.65-.5 1.02-.3.36.2.5.65.3 1.02A7.004 7.004 0 0 1 6.98 16z"/></g></svg>