<svg xmlns="http://www.w3.org/2000/svg" viewBox="0 0 16 16" style="enable-background:new 0 0 16 16" xml:space="preserve"><style>.st0{display:none}.st8{fill:#33383d}</style><g id="Genesys"><path class="st8" d="M.75 9.96c-.41 0-.75-.34-.75-.75V2.07C0 .93.93 0 2.07 0h11.86C15.07 0 16 .93 16 2.07v.18c0 .41-.34.75-.75.75s-.75-.34-.75-.75v-.18a.57.57 0 0 0-.57-.57H2.07c-.32 0-.57.25-.57.57v7.14c0 .41-.34.75-.75.75z"/><path class="st8" d="M13.93 16H2.07C.93 16 0 15.07 0 13.93v-1.27c0-.2.08-.39.22-.53l5.27-5.27c.29-.29.77-.29 1.06 0l2.76 2.76 5.4-5.4c.21-.21.54-.28.82-.16.29.11.47.38.47.69v9.18c0 1.14-.93 2.07-2.07 2.07zM1.5 12.97v.96c0 .31.25.57.57.57h11.86c.31 0 .57-.25.57-.57V6.56l-4.65 4.65c-.29.29-.77.29-1.06 0L6.02 8.45 1.5 12.97z"/></g></svg>