<svg xmlns="http://www.w3.org/2000/svg" viewBox="0 0 16 16" style="enable-background:new 0 0 16 16" xml:space="preserve"><style>.st0{display:none}.st1{fill:none;stroke:#33383d;stroke-width:1.3;stroke-linecap:round;stroke-linejoin:round;stroke-miterlimit:10}.st1,.st2{display:inline}.st15,.st8{fill:none;stroke:#33383d;stroke-linecap:round;stroke-linejoin:round;stroke-miterlimit:10}.st8{display:inline;stroke-width:1.5}.st15{stroke-width:1.483}.st21{fill:#33383d}</style><g id="Genesys"><path class="st21" d="M4.5 13.49c-.41 0-.74-.33-.74-.74V9.33c0-.41.33-.74.74-.74s.74.33.74.74v3.42c0 .41-.33.74-.74.74zM8.08 13.49c-.41 0-.74-.33-.74-.74V3.39c0-.41.33-.74.74-.74s.74.33.74.74v9.36c0 .41-.33.74-.74.74zM11.67 13.49c-.41 0-.74-.33-.74-.74V6.03c0-.41.33-.74.74-.74s.74.33.74.74v6.72c0 .41-.34.74-.74.74zM15.25 13.49c-.41 0-.74-.33-.74-.74v-12c0-.41.33-.74.74-.74s.74.33.74.74v12c0 .41-.33.74-.74.74z"/><path class="st21" d="M15.25 16H.75c-.41 0-.75-.34-.75-.75V.75a.749.749 0 1 1 1.5 0V14.5h13.75c.41 0 .75.34.75.75s-.34.75-.75.75z"/></g></svg>