<svg xmlns="http://www.w3.org/2000/svg" viewBox="0 0 16 16" style="enable-background:new 0 0 16 16" xml:space="preserve"><style>.st0{display:none}.st11{fill:#33383d}</style><g id="Genesys"><path class="st11" d="M8 10.01c-.41 0-.75-.34-.75-.75v-.14c0-1.19.75-1.77 1.3-2.19.52-.4.77-.62.77-1.15 0-.59-.61-1.05-1.38-1.05-.66 0-1.19.44-1.28 1.06-.05.42-.44.69-.84.64a.754.754 0 0 1-.64-.85c.19-1.36 1.35-2.35 2.76-2.35 1.61 0 2.88 1.12 2.88 2.55 0 1.28-.79 1.89-1.36 2.33-.53.41-.72.59-.72 1v.14c.01.42-.33.76-.74.76z"/><path class="st11" d="M8 16c-4.41 0-8-3.59-8-8s3.59-8 8-8 8 3.59 8 8-3.59 8-8 8zM8 1.5C4.42 1.5 1.5 4.41 1.5 8s2.92 6.5 6.5 6.5 6.5-2.92 6.5-6.5S11.58 1.5 8 1.5z"/><circle class="st11" cx="8" cy="12" r="1"/></g></svg>