<svg xmlns="http://www.w3.org/2000/svg" viewBox="0 0 16 16" style="enable-background:new 0 0 16 16" xml:space="preserve"><style>.st0{display:none}.st1,.st4{display:inline;fill:#d1d3d4}.st4{fill:none;stroke:#33383d;stroke-width:1.5;stroke-linecap:round;stroke-linejoin:round;stroke-miterlimit:10}</style><path d="M15.25 16H10.5c-.41 0-.75-.34-.75-.75v-5h-3.5v5c0 .41-.34.75-.75.75H.75c-.41 0-.75-.34-.75-.75s.34-.75.75-.75h4v-5c0-.41.34-.75.75-.75h5c.41 0 .75.34.75.75v5h3.25V7.03L8 1.72 1.5 7.03v5.71c0 .41-.34.75-.75.75S0 13.16 0 12.75V6.68c0-.23.1-.44.28-.58L7.53.17a.74.74 0 0 1 .95 0l7.25 5.93c.17.14.27.35.27.58v8.57c0 .41-.34.75-.75.75z" style="fill:#33383d" id="Genesys"/></svg>