<svg xmlns="http://www.w3.org/2000/svg" viewBox="0 0 16 16" style="enable-background:new 0 0 16 16" xml:space="preserve"><style>.st0{display:none}.st5{display:inline}.st6{fill:none;stroke:#33383d;stroke-width:1.5;stroke-linecap:round;stroke-linejoin:round;stroke-miterlimit:10}.st11{fill:#33383d}</style><g id="Genesys"><path class="st11" d="M8 12.47c-.41 0-.75-.34-.75-.75v-8.2a.749.749 0 1 1 1.5 0v8.21c0 .41-.33.74-.75.74z"/><path class="st11" d="M8 16.01c-.19 0-.38-.07-.53-.22l-4.5-4.5c-.29-.29-.29-.77 0-1.06s.77-.29 1.06 0L8 14.2l3.97-3.97c.29-.29.77-.29 1.06 0s.29.77 0 1.06l-4.5 4.5c-.14.15-.34.22-.53.22zM14.5 6.27c-.41 0-.75-.34-.75-.75V1.51H2.25v4.01c0 .41-.34.75-.75.75s-.75-.34-.75-.75V.76c0-.41.34-.75.75-.75h13c.41 0 .75.34.75.75v4.76c0 .41-.33.75-.75.75z"/></g></svg>