<svg xmlns="http://www.w3.org/2000/svg" viewBox="0 0 16 16" style="enable-background:new 0 0 16 16" xml:space="preserve"><path d="M13.25 16H2.75C1.23 16 0 14.77 0 13.25V2.75C0 1.23 1.23 0 2.75 0h10.5C14.77 0 16 1.23 16 2.75V8.5c0 1.52-1.24 2.75-2.75 2.75h-2.13c-.11 0-.19.12-.22.22-.42 1.25-1.58 2.09-2.9 2.09s-2.49-.84-2.9-2.09c-.03-.1-.11-.22-.22-.22H2.75c-.45 0-.88-.11-1.25-.3v2.3c0 .69.56 1.25 1.25 1.25h10.5c.69 0 1.25-.56 1.25-1.25v-.5a.749.749 0 1 1 1.5 0v.5c0 1.52-1.23 2.75-2.75 2.75zM1.5 6.03V8.5c0 .69.56 1.25 1.25 1.25h2.13c.75 0 1.39.49 1.64 1.24.21.64.81 1.06 1.48 1.06s1.27-.43 1.48-1.06c.25-.75.9-1.24 1.64-1.24h2.13c.69 0 1.25-.56 1.25-1.25V2.75c0-.69-.56-1.25-1.25-1.25H2.75c-.69 0-1.25.56-1.25 1.25v3.28z" style="fill:#33383d"/></svg>