<svg xmlns="http://www.w3.org/2000/svg" viewBox="0 0 16 16" style="enable-background:new 0 0 16 16" xml:space="preserve"><style>.st0{display:none}.st4{display:inline;fill:none;stroke:#33383d;stroke-width:1.5;stroke-linecap:round;stroke-linejoin:round;stroke-miterlimit:10}.st8{fill:#33383d}</style><g id="Genesys"><path class="st8" d="M8 12.04c-2.23 0-4.04-1.81-4.04-4.04 0-.55.11-1.08.32-1.59.16-.38.6-.56.98-.4.38.17.56.61.4.99-.14.32-.2.65-.2 1 0 1.4 1.14 2.54 2.54 2.54 1.4 0 2.54-1.14 2.54-2.54S9.4 5.46 8 5.46c-.35 0-.68.07-1 .2a.75.75 0 0 1-.98-.4c-.17-.38.01-.82.39-.98.5-.22 1.04-.32 1.59-.32 2.23 0 4.04 1.81 4.04 4.04S10.23 12.04 8 12.04z"/><path class="st8" d="M7.99 14.68A8.3 8.3 0 0 1 .34 9.63a4.19 4.19 0 0 1 0-3.26 8.3 8.3 0 0 1 7.65-5.05c3.46 0 6.51 2.09 7.76 5.31.34.87.34 1.86 0 2.73-1.26 3.23-4.3 5.32-7.76 5.32zm0-11.86c-2.73 0-5.2 1.63-6.27 4.14a2.68 2.68 0 0 0 0 2.08 6.812 6.812 0 0 0 6.27 4.14c2.84 0 5.33-1.71 6.36-4.36.2-.52.2-1.12 0-1.65a6.793 6.793 0 0 0-6.36-4.35z"/></g></svg>