<svg xmlns="http://www.w3.org/2000/svg" viewBox="0 0 16 16" style="enable-background:new 0 0 16 16" xml:space="preserve"><style>.st0{display:none}.st4{display:inline;fill:none;stroke:#33383d;stroke-width:1.5;stroke-linecap:round;stroke-linejoin:round;stroke-miterlimit:10}.st8{fill:#33383d}</style><g id="Genesys"><path class="st8" d="M10.54 8.19a2.55 2.55 0 0 1-2.34 2.34c-.41.03-.72.39-.69.8.03.39.36.69.75.69h.06a4.067 4.067 0 0 0 3.72-3.72.752.752 0 0 0-1.5-.11z"/><path class="st8" d="M14.82 4.9a.75.75 0 0 0-1.04-.19c-.34.24-.42.7-.19 1.04.31.44.56.92.75 1.42.2.52.2 1.12 0 1.65-1.03 2.65-3.52 4.36-6.36 4.36-.64 0-1.27-.09-1.88-.26-.4-.12-.81.12-.93.51s.12.81.51.93c.74.21 1.51.32 2.3.32 3.46 0 6.51-2.09 7.76-5.31.34-.87.34-1.86 0-2.73-.23-.62-.54-1.2-.92-1.74zM15.78.22a.754.754 0 0 0-1.06 0l-2.37 2.37a8.18 8.18 0 0 0-4.36-1.27A8.3 8.3 0 0 0 .34 6.37a4.19 4.19 0 0 0 0 3.26 8.194 8.194 0 0 0 2.08 2.89l-2.2 2.2c-.29.29-.29.77 0 1.06.15.15.34.22.53.22s.38-.07.53-.22l14.5-14.5c.29-.29.29-.77 0-1.06zM1.71 9.04a2.68 2.68 0 0 1 0-2.08 6.812 6.812 0 0 1 6.27-4.14c1.16 0 2.28.3 3.28.85l-.99.99c-1.12-.75-2.6-.92-3.86-.38-.38.16-.56.6-.39.98.16.39.6.56.98.4.7-.3 1.51-.25 2.18.09L5.76 9.18A2.521 2.521 0 0 1 5.66 7a.745.745 0 0 0-.39-.98.748.748 0 0 0-.99.39c-.21.5-.32 1.04-.32 1.59 0 .82.25 1.61.71 2.28l-1.18 1.18a6.739 6.739 0 0 1-1.78-2.42z"/></g></svg>