<svg xmlns="http://www.w3.org/2000/svg" viewBox="0 0 16 16" style="enable-background:new 0 0 16 16" xml:space="preserve"><style>.st0{display:none}.st10{fill:#33383d}</style><g id="Genesys"><path class="st10" d="M4.05 16H.75c-.41 0-.75-.34-.75-.75v-3.29c0-.2.08-.39.22-.53L4.15 7.5c-.13-.5-.19-.99-.19-1.48C3.96 2.7 6.66 0 9.98 0S16 2.7 16 6.02a6.026 6.026 0 0 1-7.68 5.79.741.741 0 0 1-.51-.93c.11-.4.53-.63.93-.52.4.12.82.17 1.25.17 2.49 0 4.52-2.03 4.52-4.52S12.47 1.5 9.98 1.5 5.46 3.53 5.46 6.02c0 .47.08.96.25 1.45.09.27.02.57-.18.77L1.5 12.26v2.23h1.8v-1.23c0-.41.34-.75.75-.75h1.23v-1.43c0-.41.34-.75.75-.75s.75.34.75.75v2.18c0 .41-.34.75-.75.75H4.8v1.23c0 .42-.34.76-.75.76z"/><circle class="st10" cx="11.62" cy="4.38" r="1"/></g></svg>