<svg xmlns="http://www.w3.org/2000/svg" viewBox="0 0 16 16" style="enable-background:new 0 0 16 16" xml:space="preserve"><style>.st0{display:none}</style><path d="M16 6.87c0-3.58-3.58-6.5-8-6.5s-8 2.91-8 6.5c0 3.21 2.85 5.9 6.69 6.41.26.06.62.17.71.4.08.2.06.52.03.72l-.12.69c-.03.2-.16.79.69.43.85-.36 4.61-2.72 6.29-4.64C15.45 9.59 16 8.3 16 6.87zM5.18 8.78c0 .08-.07.15-.15.15H2.78a.15.15 0 0 1-.11-.04l-.01-.01c-.03-.02-.04-.06-.04-.1V5.3c0-.08.07-.15.15-.15h.56c.08 0 .15.07.15.15v2.77h1.53c.08 0 .15.07.15.15v.57h.02zm1.35 0c0 .08-.07.15-.15.15h-.57c-.08 0-.15-.07-.15-.15V5.3c0-.08.07-.15.15-.15h.56c.08 0 .15.07.15.15l.01 3.48zm3.86 0c0 .08-.07.15-.15.15h-.56c-.01 0-.03 0-.04-.01h-.02s-.01 0-.01-.01c0 0-.01 0-.01-.01h-.01l-.01-.01c-.01 0-.02-.01-.03-.03L7.94 6.7v2.07c0 .08-.07.15-.16.15h-.56c-.08 0-.15-.07-.15-.15V5.3c0-.08.07-.15.15-.15H7.86s.01 0 .01.01h.01l.01.01h.01l.01.01h.01l-.02-.01v.01l.01.01 1.6 2.16V5.3c0-.08.07-.15.16-.15h.56c.08 0 .15.07.15.15l.01 3.48zm3.1-2.92c0 .08-.07.15-.15.15h-1.53v.59h1.53c.08 0 .15.07.15.16v.56c0 .08-.07.15-.15.15h-1.53v.59h1.53c.08 0 .15.07.15.15v.56c0 .08-.07.15-.15.15h-2.25a.15.15 0 0 1-.11-.04l-.01-.01a.15.15 0 0 1-.04-.11V5.3c0-.04.01-.08.04-.11l.01-.01a.15.15 0 0 1 .11-.04h2.25c.08 0 .15.07.15.15v.57z" style="fill:#33383d" id="Genesys"/></svg>