<svg xmlns="http://www.w3.org/2000/svg" viewBox="0 0 16 16" style="enable-background:new 0 0 16 16" xml:space="preserve"><style>.st0{display:none}.st2{display:inline}.st3{fill:none;stroke:#33383d;stroke-width:1.5;stroke-linecap:round;stroke-linejoin:round;stroke-miterlimit:10}.st8{fill:#33383d}</style><g id="Genesys"><path class="st8" d="M10.25 12.25H7a.749.749 0 1 1 0-1.5h3.25c.28 0 .5-.22.5-.5V2c0-.28-.22-.5-.5-.5H2c-.28 0-.5.22-.5.5v8.25c0 .28.22.5.5.5.41 0 .75.34.75.75s-.34.75-.75.75c-1.1 0-2-.9-2-2V2C0 .9.9 0 2 0h8.25c1.1 0 2 .9 2 2v8.25c0 1.1-.9 2-2 2z"/><path class="st8" d="M14 16H5.75c-1.1 0-2-.9-2-2V5.75c0-1.1.9-2 2-2H9a.749.749 0 1 1 0 1.5H5.75c-.28 0-.5.22-.5.5V14c0 .28.22.5.5.5H14c.28 0 .5-.22.5-.5V5.75c0-.28-.22-.5-.5-.5-.41 0-.75-.34-.75-.75s.34-.75.75-.75c1.1 0 2 .9 2 2V14c0 1.1-.9 2-2 2z"/></g></svg>