<svg xmlns="http://www.w3.org/2000/svg" viewBox="0 0 16 16" style="enable-background:new 0 0 16 16" xml:space="preserve"><style>.st0{display:none}.st2{display:inline}.st3{fill:none;stroke:#33383d;stroke-width:1.5;stroke-linecap:round;stroke-linejoin:round;stroke-miterlimit:10}.st10{fill:#33383d}</style><g id="Genesys"><path class="st10" d="M11.71 8.75h-8.2a.749.749 0 1 1 0-1.5h8.21c.41 0 .75.34.75.75s-.34.75-.76.75z"/><path class="st10" d="M10.75 13.25c-.19 0-.38-.07-.53-.22a.754.754 0 0 1 0-1.06L14.19 8l-3.97-3.97c-.29-.29-.29-.77 0-1.06s.77-.29 1.06 0l4.5 4.5c.29.29.29.77 0 1.06l-4.5 4.5c-.15.15-.34.22-.53.22zM8 16H.75c-.42 0-.75-.34-.75-.75V.75C0 .34.33 0 .75 0H8c.41 0 .75.34.75.75s-.34.75-.75.75H1.5v13H8c.41 0 .75.34.75.75S8.41 16 8 16z"/></g></svg>