<svg xmlns="http://www.w3.org/2000/svg" viewBox="0 0 16 16" style="enable-background:new 0 0 16 16" xml:space="preserve"><style>.st0{display:none}.st8{display:inline;fill:none;stroke:#33383d;stroke-width:1.5;stroke-linecap:round;stroke-miterlimit:10}.st10{fill:#33383d}</style><g id="Genesys"><path class="st10" d="M15.78 5.22A10.922 10.922 0 0 0 8 2c-1.02 0-2.04.14-3.02.41-.4.11-.63.53-.52.93.11.4.53.63.93.52.85-.24 1.73-.36 2.61-.36 2.54 0 4.92.99 6.72 2.78.15.15.34.22.53.22s.38-.07.53-.22c.29-.29.29-.77 0-1.06zM8 5.3c-.4 0-.8.03-1.19.09-.41.07-.69.45-.63.86.06.41.45.69.86.63 1.93-.3 3.94.34 5.34 1.74.15.15.34.22.53.22s.38-.07.53-.22c.29-.29.29-.77 0-1.06A7.607 7.607 0 0 0 8 5.3zM9.02 8.73c-.41-.1-.81.15-.9.56-.1.4.15.81.56.9.52.12.99.39 1.37.77.15.15.34.22.53.22s.38-.07.53-.22c.29-.29.29-.77 0-1.06-.58-.58-1.31-.98-2.09-1.17zM8.33 12.07l-5.6-9.69a.735.735 0 0 0-1.02-.28c-.36.21-.48.66-.28 1.02l.44.76c-.59.4-1.15.83-1.65 1.33-.29.29-.29.77 0 1.06.15.15.34.23.53.23s.38-.07.53-.22c.41-.41.87-.77 1.34-1.09l.9 1.57c-.34.24-.66.5-.96.8-.29.29-.29.77 0 1.06.15.14.34.22.53.22s.38-.07.53-.22c.2-.2.43-.39.66-.57l.92 1.59c-.11.08-.21.16-.3.26-.29.29-.29.77 0 1.06.15.15.34.22.53.22s.38-.07.53-.22l1.08 1.87c-.02.05-.04.11-.04.17 0 .55.45 1 1 1s1-.45 1-1c0-.44-.28-.8-.67-.93z"/></g></svg>