<svg xmlns="http://www.w3.org/2000/svg" viewBox="0 0 16 16" style="enable-background:new 0 0 16 16" xml:space="preserve"><style>.st0{display:none}.st2{display:inline;fill:none;stroke:#33383d;stroke-width:1.5;stroke-linecap:round;stroke-linejoin:round;stroke-miterlimit:10}.st10{fill:#33383d}</style><g id="Genesys"><path class="st10" d="M13 16c-1.24 0-2.25-1.01-2.25-2.25v-2.37h-.25c-.96 0-1.75-.79-1.75-1.75V4.75C8.75 2.13 10.88 0 13.5 0c.96 0 1.75.79 1.75 1.75v12c0 1.24-1.01 2.25-2.25 2.25zm.5-14.5c-1.79 0-3.25 1.46-3.25 3.25v4.88c0 .14.11.25.25.25h1c.41 0 .75.34.75.75v3.12c0 .41.34.75.75.75s.75-.34.75-.75v-12c0-.14-.11-.25-.25-.25zM4.5 4.12c-.41 0-.75-.34-.75-.75V.75a.749.749 0 1 1 1.5 0v2.63c0 .41-.34.74-.75.74z"/><path class="st10" d="M4.5 16c-1.24 0-2.25-1.01-2.25-2.25V6.12C1.38 5.81.75 4.98.75 4V.75a.749.749 0 1 1 1.5 0V4c0 .41.33.75.75.75.41 0 .75.34.75.75v8.25a.749.749 0 1 0 1.5 0V5.5c0-.41.34-.75.75-.75s.75-.33.75-.75V.75c0-.42.33-.75.75-.75s.75.34.75.75V4c0 .98-.63 1.81-1.5 2.12v7.62C6.75 14.99 5.74 16 4.5 16z"/></g></svg>