<svg version="1.1" id="FNL_OL" xmlns="http://www.w3.org/2000/svg" x="0" y="0" viewBox="0 0 16 16" style="enable-background:new 0 0 16 16" xml:space="preserve"><style>.st0{fill:#33383d}</style><path class="st0" d="M6.02 16H5.7C2.56 16 0 13.45 0 10.3s2.55-5.7 5.69-5.7h6.29c.41 0 .75.34.75.75s-.34.75-.75.75H5.7c-2.31 0-4.19 1.88-4.19 4.2s1.88 4.2 4.19 4.2h.32a.749.749 0 1 1 0 1.5z"/><path class="st0" d="M10.64 10.72c-.19 0-.38-.07-.53-.22a.754.754 0 0 1 0-1.06l4.08-4.08-4.08-4.08c-.29-.29-.29-.77 0-1.06s.77-.29 1.06 0l4.62 4.62c.29.29.29.77 0 1.06l-4.62 4.62c-.15.13-.34.2-.53.2z"/></svg>