<svg version="1.1" id="FNL_OL" xmlns="http://www.w3.org/2000/svg" x="0" y="0" viewBox="0 0 16 16" style="enable-background:new 0 0 16 16" xml:space="preserve"><style>.st0{fill:#33383d}</style><path class="st0" d="M10.31 16h-.32c-.41 0-.75-.34-.75-.75s.34-.75.75-.75h.32a4.2 4.2 0 1 0 0-8.4H4.02c-.41 0-.75-.34-.75-.75s.33-.74.75-.74h6.29c3.14 0 5.7 2.55 5.7 5.7S13.45 16 10.31 16z"/><path class="st0" d="M5.37 10.72c-.19 0-.38-.07-.53-.22L.22 5.89a.754.754 0 0 1 0-1.06L4.84.21c.29-.29.77-.29 1.06 0s.29.77 0 1.06L1.81 5.36 5.9 9.44c.29.29.29.77 0 1.06-.15.15-.34.22-.53.22z"/></svg>