<svg version="1.1" id="Genesys" xmlns="http://www.w3.org/2000/svg" x="0" y="0" viewBox="0 0 16 16" style="enable-background:new 0 0 16 16" xml:space="preserve"><style>.st0{fill:#33383d}</style><path class="st0" d="M11.29 6.55c-.41 0-.75.34-.75.75V8c0 2.49-2.03 4.52-4.52 4.52S1.5 10.49 1.5 8v-.7c0-.41-.34-.75-.75-.75S0 6.89 0 7.3V8c0 3.07 2.31 5.6 5.27 5.97v.53H3.63a.749.749 0 1 0 0 1.5h4.79c.41 0 .75-.34.75-.75s-.34-.75-.76-.75H6.77v-.53A6.02 6.02 0 0 0 12.04 8v-.7c0-.41-.33-.75-.75-.75z"/><path class="st0" d="M6.02 10.96c1.93 0 3.5-1.57 3.5-3.5V3.5c0-1.93-1.57-3.5-3.5-3.5s-3.5 1.57-3.5 3.5v3.96c0 1.93 1.57 3.5 3.5 3.5zm-2-7.46c0-1.1.9-2 2-2s2 .9 2 2v1.24H5.77c-.41 0-.75.34-.75.75s.34.75.75.75h2.25v1.23c0 1.1-.9 2-2 2s-2-.9-2-2V3.5zM14.43.21c-.29-.29-.77-.29-1.06 0s-.29.77 0 1.06C14.1 2 14.5 2.97 14.5 4s-.4 2-1.13 2.72c-.29.29-.29.77 0 1.06.15.15.34.22.53.22s.38-.07.53-.22a5.35 5.35 0 0 0 0-7.57z"/><path class="st0" d="M12.59 2.05c-.29-.29-.77-.29-1.06 0s-.29.77 0 1.06c.49.49.49 1.28 0 1.77-.29.29-.29.77 0 1.06.15.15.34.22.53.22s.38-.07.53-.22a2.74 2.74 0 0 0 0-3.89z"/></svg>