<svg version="1.1" id="Genesys" xmlns="http://www.w3.org/2000/svg" x="0" y="0" viewBox="0 0 16 16" style="enable-background:new 0 0 16 16" xml:space="preserve"><style>.st0{fill:#33383d}</style><path class="st0" d="M13.27 6.55c-.41 0-.75.34-.75.75V8a4.528 4.528 0 0 1-6.01 4.27.748.748 0 0 0-.95.46c-.14.39.07.82.46.96.4.14.81.22 1.23.27v.54H5.61a.749.749 0 1 0 0 1.5h4.79c.41 0 .75-.34.75-.75s-.34-.75-.75-.75H8.75v-.53A6.02 6.02 0 0 0 14.02 8v-.7c0-.41-.33-.75-.75-.75z"/><path class="st0" d="M9.87 10.42c.44-.28.81-.65 1.09-1.09.22-.35.12-.81-.23-1.04a.758.758 0 0 0-1.04.23c-.16.26-.37.47-.62.63a.756.756 0 0 0 .4 1.39c.14-.01.28-.04.4-.12zM15.78.22a.754.754 0 0 0-1.06 0l-3.23 3.23A3.498 3.498 0 0 0 8 0C6.07 0 4.5 1.57 4.5 3.5v3.96c0 .82.28 1.58.78 2.2l-.96.96A4.54 4.54 0 0 1 3.48 8v-.7c0-.41-.34-.75-.75-.75s-.75.34-.75.75V8c0 1.35.45 2.64 1.27 3.69L.23 14.71c-.29.29-.29.77 0 1.06.14.15.33.23.52.23s.38-.07.53-.22l14.5-14.5c.29-.29.29-.77 0-1.06zM6 7.46V3.5c0-1.1.9-2 2-2s2 .9 2 2v1.24H7.75c-.42-.01-.75.33-.75.74s.34.75.75.75h.95L6.36 8.58C6.14 8.25 6 7.87 6 7.46z"/></svg>