<svg version="1.1" id="FNL_OL" xmlns="http://www.w3.org/2000/svg" x="0" y="0" viewBox="0 0 16 16" style="enable-background:new 0 0 16 16" xml:space="preserve"><style>.st0{fill:#33383d}</style><path class="st0" d="M13.27 6.55c-.41 0-.75.34-.75.75V8c0 2.49-2.03 4.52-4.52 4.52S3.48 10.49 3.48 8v-.7c0-.41-.34-.75-.75-.75s-.75.34-.75.75V8c0 3.07 2.31 5.6 5.27 5.97v.53H5.61a.749.749 0 1 0 0 1.5h4.79c.41 0 .75-.34.75-.75s-.34-.75-.75-.75H8.75v-.53A6.02 6.02 0 0 0 14.02 8v-.7c0-.41-.33-.75-.75-.75z"/><path class="st0" d="M8 10.96c1.93 0 3.5-1.57 3.5-3.5V3.5C11.5 1.57 9.93 0 8 0S4.5 1.57 4.5 3.5v3.96c0 1.93 1.57 3.5 3.5 3.5zM6 3.5c0-1.1.9-2 2-2s2 .9 2 2v1.24H7.75c-.42-.01-.75.33-.75.74s.34.75.75.75H10v1.23c0 1.1-.9 2-2 2s-2-.9-2-2V3.5z"/></svg>