<svg xmlns="http://www.w3.org/2000/svg" viewBox="0 0 16 16" style="enable-background:new 0 0 16 16" xml:space="preserve"><style>.st0{display:none}</style><path d="M8.18 16c-.21 0-.41-.01-.62-.02-4-.3-7.24-3.54-7.54-7.54A8.216 8.216 0 0 1 5.52.06c.46-.17.97 0 1.25.4s.26.92-.04 1.3a5.33 5.33 0 0 0-1.12 4.08c.31 2.32 2.23 4.24 4.55 4.55 1.47.2 2.92-.2 4.07-1.12.38-.31.9-.32 1.3-.04s.56.78.4 1.25A8.191 8.191 0 0 1 8.18 16zM4.77 2.05a6.725 6.725 0 0 0-3.25 6.27c.25 3.26 2.89 5.91 6.16 6.16 2.57.2 4.99-1.1 6.27-3.25-1.22.61-2.59.84-3.98.65-2.98-.4-5.44-2.86-5.84-5.84-.19-1.39.04-2.77.64-3.99zm10.4 8.39z" style="fill:#33383d" id="Genesys"/></svg>