<svg version="1.1" id="Genesys" xmlns="http://www.w3.org/2000/svg" x="0" y="0" viewBox="0 0 16 16" style="enable-background:new 0 0 16 16" xml:space="preserve"><style></style><path d="M15.72.16a.766.766 0 0 0-.64-.14L6.33 2.04c-.34.08-.58.38-.58.73v8.47c-.59-.31-1.32-.49-2.12-.49C1.59 10.75 0 11.9 0 13.37S1.59 16 3.63 16c2.03 0 3.62-1.15 3.62-2.63V3.36l7.25-1.67v1.47L8.83 4.48c-.4.09-.66.5-.56.9.08.35.38.58.73.58.06 0 .11-.01.17-.02l5.33-1.23v4.54c-.59-.31-1.32-.5-2.12-.5-2.03 0-3.62 1.16-3.62 2.64s1.59 2.64 3.62 2.64c2.03 0 3.62-1.16 3.62-2.63V.75c0-.23-.1-.44-.28-.59zM3.63 14.5c-1.22 0-2.13-.59-2.13-1.13 0-.53.91-1.13 2.13-1.13 1.22 0 2.12.59 2.12 1.13 0 .54-.91 1.13-2.12 1.13zm8.75-1.98c-1.22 0-2.12-.6-2.12-1.14s.91-1.14 2.12-1.14 2.12.6 2.12 1.14-.91 1.14-2.12 1.14z" style="fill:#33383d"/></svg>