<svg xmlns="http://www.w3.org/2000/svg" viewBox="0 0 16 16" style="enable-background:new 0 0 16 16" xml:space="preserve"><style>.st0{display:none}.st10{fill:#33383d}</style><g id="Genesys"><path class="st10" d="M4.05 13.36c-.37 0-.73-.15-1-.41-.32-.32-.47-.79-.39-1.24L3 9.77c.07-.42.27-.8.58-1.11L11.63.61c.78-.78 2.14-.78 2.92 0l.84.84c.81.81.81 2.12 0 2.92l-8.05 8.05c-.3.3-.68.5-1.11.58l-1.94.34c-.08.01-.16.02-.24.02zM13.09 1.5a.56.56 0 0 0-.4.17L4.63 9.72c-.08.08-.13.19-.15.3l-.32 1.81 1.81-.32a.55.55 0 0 0 .3-.16l8.05-8.05c.22-.22.22-.58 0-.8l-.84-.84a.57.57 0 0 0-.39-.16z"/><path class="st10" d="M12.61 16H2.07C.93 16 0 15.07 0 13.93V2.07C0 .93.93 0 2.07 0h6.94c.41 0 .75.34.75.75s-.34.75-.75.75H2.07c-.32 0-.57.25-.57.57v11.86c0 .31.25.57.57.57h10.54c.31 0 .57-.25.57-.57V8.3c0-.41.34-.75.75-.75s.75.34.75.75v5.62c0 1.15-.93 2.08-2.07 2.08z"/></g></svg>