<svg xmlns="http://www.w3.org/2000/svg" viewBox="0 0 16 16" style="enable-background:new 0 0 16 16" xml:space="preserve"><style>.st0{display:none}.st3{display:inline;fill:none;stroke:#33383d;stroke-width:1.5;stroke-linecap:round;stroke-linejoin:round;stroke-miterlimit:10}.st11{fill:#33383d}</style><g id="Genesys"><path class="st11" d="M15.6 11.99 14 9.4c-.27-.44-1-.44-1.27 0 0 .01-1.56 2.54-1.6 2.59-.25.41-.39.88-.39 1.37 0 1.44 1.17 2.62 2.62 2.62s2.62-1.17 2.62-2.62c.01-.48-.13-.96-.38-1.37zm-2.23 2.49a1.118 1.118 0 0 1-.95-1.71l.95-1.55.96 1.55c.11.17.16.38.16.58 0 .63-.5 1.13-1.12 1.13zM13.38 4.61 6.04.09a.757.757 0 0 0-1.03.25l-.38.61L4.54.9a2.715 2.715 0 0 0-3.74.89l-.38.62c-.38.62-.5 1.35-.33 2.06s.6 1.31 1.22 1.69l.09.05L.08 8.34c-.1.17-.14.37-.09.57s.17.36.34.46l7.35 4.52c.12.07.25.11.39.11.25 0 .5-.13.64-.36l4.92-8c.22-.35.11-.81-.25-1.03zM2.1 4.88c-.28-.17-.48-.44-.55-.76-.08-.32-.03-.65.15-.93l.38-.62c.17-.27.44-.47.75-.54.32-.08.65-.03.93.15l.08.05-1.66 2.7-.08-.05zm5.72 7.34L1.75 8.49l4.14-6.72 4.85 2.99h-5.1c-.41 0-.75.34-.75.75s.34.75.75.75h5.85l-3.67 5.96z"/></g></svg>