<svg xmlns="http://www.w3.org/2000/svg" viewBox="0 0 16 16" style="enable-background:new 0 0 16 16" xml:space="preserve"><style>.st0{display:none}.st1{fill:none;stroke:#33383d;stroke-width:1.5;stroke-linecap:round;stroke-linejoin:round;stroke-miterlimit:10}.st1,.st5{display:inline}.st19,.st5{fill:#33383d}</style><g id="Genesys"><circle class="st19" cx="4" cy="7" r="1"/><circle class="st19" cx="12" cy="7" r="1"/><circle class="st19" cx="6" cy="4" r="1"/><circle class="st19" cx="10" cy="4" r="1"/><path class="st19" d="M8.18 15.99c-.99 0-1.77-.45-2.09-1.21-.29-.69-.14-1.48.38-2.03.17-.17.28-.44.15-.58-.12-.13-.65-.12-.85-.12H4.71C2.11 12.04 0 9.86 0 7.18 0 3.65 2.99 0 8 0c4.41 0 8 3.59 8 8 0 1.27-.29 2.48-.85 3.6a.75.75 0 0 1-1.01.33.75.75 0 0 1-.33-1.01c.46-.91.69-1.89.69-2.92 0-3.58-2.92-6.5-6.5-6.5-4.07 0-6.5 2.89-6.5 5.68 0 1.82 1.47 3.37 3.2 3.37h.97c.62 0 1.49-.01 2.05.61.66.73.59 1.83-.17 2.63-.11.11-.14.27-.09.4.08.19.35.3.71.3.87 0 2.92-.4 4.42-1.9.29-.29.77-.29 1.06 0s.29.77 0 1.06c-1.83 1.85-4.3 2.34-5.47 2.34z"/></g></svg>