<svg xmlns="http://www.w3.org/2000/svg" viewBox="0 0 16 16" style="enable-background:new 0 0 16 16" xml:space="preserve"><style>.st0{display:none}.st8,.st9{fill:none;stroke:#33383d;stroke-width:1.5;stroke-linecap:round;stroke-linejoin:round}.st9{stroke-dasharray:1.5476,2.4762}.st11{fill:#33383d}</style><g id="Genesys"><path class="st11" d="M15.25 16H.75c-.41 0-.75-.34-.75-.75V.75C0 .33.34 0 .75 0h14.5c.41 0 .75.33.75.75v14.5c0 .41-.34.75-.75.75zM1.5 14.5h13v-13h-13v13z"/><path class="st11" d="M12.5 13.25h-1.25c-.41 0-.75-.34-.75-.75s.34-.75.75-.75h.5v-.5c0-.41.34-.75.75-.75s.75.34.75.75v1.25c0 .41-.34.75-.75.75zM12.5 9.52c-.41 0-.75-.34-.75-.75V7.22c0-.41.34-.75.75-.75s.75.34.75.75v1.55c0 .42-.34.75-.75.75zM12.5 5.5c-.41 0-.75-.34-.75-.75v-.5h-.5c-.41 0-.75-.34-.75-.75s.34-.75.75-.75h1.25c.41 0 .75.34.75.75v1.25c0 .41-.34.75-.75.75zM8.77 4.25H7.23c-.41 0-.75-.34-.75-.75s.34-.75.75-.75h1.55c.41 0 .75.34.75.75s-.34.75-.76.75zM3.5 5.5c-.41 0-.75-.34-.75-.75V3.5c0-.41.34-.75.75-.75h1.25c.41 0 .75.34.75.75s-.34.75-.75.75h-.5v.5c0 .41-.34.75-.75.75zM3.5 9.52c-.41 0-.75-.34-.75-.75V7.22c0-.41.34-.75.75-.75s.75.34.75.75v1.55c0 .42-.34.75-.75.75zM4.75 13.25H3.5c-.41 0-.75-.34-.75-.75v-1.25c0-.41.34-.75.75-.75s.75.34.75.75v.5h.5c.41 0 .75.34.75.75s-.34.75-.75.75zM8.77 13.25H7.23c-.41 0-.75-.34-.75-.75s.34-.75.75-.75h1.55c.41 0 .75.34.75.75s-.34.75-.76.75z"/></g></svg>