<svg version="1.1" id="FNL_OL" xmlns="http://www.w3.org/2000/svg" x="0" y="0" viewBox="0 0 16 16" style="enable-background:new 0 0 16 16" xml:space="preserve"><style>.st0{fill:#33383d}</style><path class="st0" d="M11.62 8.75c-2.41 0-4.38-1.96-4.38-4.38S9.21 0 11.62 0 16 1.96 16 4.37s-1.96 4.38-4.38 4.38zm0-7.25c-1.58 0-2.88 1.29-2.88 2.88a2.88 2.88 0 1 0 2.88-2.88z"/><path class="st0" d="M10.27 15.99c-.49 0-.98-.11-1.43-.33-1.82-.88-3.5-2.07-4.97-3.55A17.935 17.935 0 0 1 .33 7.15c-.68-1.41-.27-3.14.98-4.11l.6-.47c.85-.66 2.06-.6 2.81.14.46.45.89.94 1.27 1.46.49.67.55 1.51.17 2.33l-.36.77c-.17.36-.1.79.16 1.09.26.29.53.58.81.86s.57.55.86.81c.3.27.73.32 1.09.16l.89-.41c.72-.33 1.56-.25 2.2.22.51.38 1.01.81 1.46 1.27.77.78.8 1.98.07 2.91l-.39.5a3.39 3.39 0 0 1-2.68 1.31zM3.24 3.62a.7.7 0 0 0-.41.14l-.6.47c-.69.54-.93 1.5-.55 2.27.81 1.68 1.9 3.21 3.25 4.56 1.35 1.35 2.88 2.45 4.56 3.26.78.37 1.73.14 2.28-.56l.39-.5c.25-.33.27-.7.04-.94-.4-.4-.83-.78-1.28-1.11a.65.65 0 0 0-.67-.07l-.89.41c-.9.42-1.97.27-2.72-.39-.32-.28-.62-.57-.93-.87-.3-.3-.59-.61-.87-.93-.66-.75-.82-1.82-.4-2.72l.36-.77c.15-.32.14-.58-.01-.8-.34-.45-.71-.88-1.12-1.28a.613.613 0 0 0-.43-.17zM12.75 5.52c-.08 0-.17-.02-.25-.07l-1.12-.65a.484.484 0 0 1-.25-.43V2.62c0-.28.22-.5.5-.5s.5.22.5.5v1.46l.87.51c.24.14.32.44.18.68-.09.16-.26.25-.43.25z"/></svg>