<svg version="1.1" id="Genesys" xmlns="http://www.w3.org/2000/svg" x="0" y="0" viewBox="0 0 16 16" style="enable-background:new 0 0 16 16" xml:space="preserve"><style>.st0{fill:#33383d}</style><path class="st0" d="M10.27 16c-.49 0-.98-.11-1.43-.33-1.83-.88-3.5-2.08-4.97-3.55A18.235 18.235 0 0 1 .33 7.16c-.68-1.41-.27-3.14.99-4.11l.6-.47c.85-.66 2.06-.6 2.81.14.46.45.88.94 1.27 1.46.49.66.55 1.5.17 2.32l-.37.77c-.16.37-.1.79.16 1.09.26.29.53.58.81.86s.57.55.86.81c.3.26.73.32 1.09.16l.89-.42c.72-.33 1.56-.25 2.2.22.51.38 1 .81 1.46 1.27.77.78.8 1.98.07 2.91l-.39.5A3.38 3.38 0 0 1 10.27 16zM3.24 3.62a.7.7 0 0 0-.41.14l-.6.47c-.69.54-.93 1.5-.55 2.27.81 1.67 1.9 3.21 3.25 4.56 1.35 1.35 2.89 2.45 4.56 3.26.78.37 1.73.14 2.28-.56l.39-.5c.26-.33.28-.7.04-.94-.4-.41-.83-.78-1.28-1.11a.652.652 0 0 0-.67-.07l-.89.42c-.9.42-1.97.27-2.72-.39a19.129 19.129 0 0 1-1.8-1.8c-.66-.76-.82-1.83-.39-2.73l.35-.77c.15-.32.14-.58-.01-.8-.33-.45-.71-.88-1.12-1.28a.613.613 0 0 0-.43-.17z"/><path class="st0" d="M15.25 7H8.69c-.42 0-.75-.33-.75-.75s.33-.75.75-.75h6.56c.41 0 .75.34.75.75s-.34.75-.75.75zM15.25 4.25H8.69c-.41 0-.75-.34-.75-.75s.34-.75.75-.75h6.56c.41 0 .75.34.75.75s-.34.75-.75.75zM15.25 1.5H8.69a.749.749 0 1 1 0-1.5h6.56c.41 0 .75.34.75.75s-.34.75-.75.75z"/></svg>