<svg version="1.1" id="FNL_OL" xmlns="http://www.w3.org/2000/svg" x="0" y="0" viewBox="0 0 16 16" style="enable-background:new 0 0 16 16" xml:space="preserve"><style>.st0{fill:#33383d}</style><path class="st0" d="M14.59 6.05H8.4c-.41 0-.75-.34-.75-.75 0-.29.17-.65.43-.77.26-.13.46-.36.55-.64l.71-2.31C9.64.62 10.49 0 11.5 0c1.01 0 1.86.62 2.16 1.59l.71 2.31c.08.28.28.51.55.63.26.12.43.39.43.68v.1c-.01.4-.34.74-.76.74zm-4.6-1.5h3.03c-.03-.07-.05-.14-.08-.21l-.71-2.3c-.16-.5-.6-.54-.73-.54s-.57.04-.72.53l-.71 2.31c-.03.07-.06.14-.08.21zM11.97 8.25h-.95c-.41 0-.75-.34-.75-.75s.34-.75.75-.75h.95a.749.749 0 1 1 0 1.5z"/><path class="st0" d="M10.27 15.99c-.49 0-.98-.11-1.43-.33-1.83-.88-3.5-2.08-4.97-3.55A17.935 17.935 0 0 1 .33 7.15c-.68-1.41-.27-3.14.98-4.11l.6-.47c.85-.66 2.06-.6 2.81.14.46.45.89.94 1.27 1.46.49.67.55 1.51.17 2.33l-.36.77c-.17.36-.1.79.16 1.09.26.29.53.58.81.86s.57.55.86.81c.3.26.73.33 1.09.16l.89-.41c.72-.33 1.56-.25 2.2.22.51.38 1.01.81 1.46 1.27.77.78.8 1.98.07 2.91l-.39.5a3.39 3.39 0 0 1-2.68 1.31zM3.24 3.62a.7.7 0 0 0-.41.14l-.6.47c-.69.54-.93 1.5-.55 2.27.81 1.67 1.9 3.21 3.26 4.56 1.35 1.35 2.88 2.45 4.56 3.26.78.37 1.73.14 2.28-.56l.39-.5c.25-.33.27-.7.04-.94-.4-.4-.83-.78-1.28-1.11a.652.652 0 0 0-.67-.07l-.89.41c-.91.42-1.97.27-2.72-.39-.31-.28-.62-.57-.93-.87s-.6-.62-.88-.93c-.66-.75-.82-1.82-.4-2.72l.36-.77c.15-.32.14-.58-.01-.8-.34-.45-.71-.88-1.12-1.28a.613.613 0 0 0-.43-.17z"/></svg>