<svg version="1.1" id="FNL_OL" xmlns="http://www.w3.org/2000/svg" x="0" y="0" viewBox="0 0 16 16" style="enable-background:new 0 0 16 16" xml:space="preserve"><style>.st0{fill:#33383d}</style><path class="st0" d="M15.25 2.88H9.81l1.35-1.35c.29-.29.29-.77 0-1.06s-.77-.29-1.06 0L7.47 3.1c-.29.29-.29.77 0 1.06l2.63 2.63c.15.15.34.22.53.22s.38-.07.53-.22c.29-.29.29-.77 0-1.06L9.81 4.38h5.44c.41 0 .75-.34.75-.75s-.34-.75-.75-.75zM11.81 10c-.64-.47-1.48-.56-2.2-.22l-.89.41c-.37.17-.79.11-1.09-.16-.29-.26-.58-.53-.86-.81s-.55-.57-.81-.86c-.26-.3-.33-.73-.16-1.09l.36-.77c.38-.82.32-1.66-.17-2.32-.38-.51-.81-1-1.27-1.46-.76-.74-1.97-.8-2.81-.14l-.6.47C.06 4.02-.35 5.75.33 7.16c.88 1.83 2.08 3.5 3.55 4.97a18.38 18.38 0 0 0 4.97 3.55c.46.22.94.33 1.43.33 1.02 0 2.02-.46 2.68-1.31l.39-.5c.72-.93.7-2.13-.07-2.91-.46-.48-.95-.91-1.47-1.29zm.35 3.26-.39.5c-.54.7-1.5.93-2.28.56a16.65 16.65 0 0 1-4.56-3.26A16.675 16.675 0 0 1 1.68 6.5c-.38-.77-.14-1.73.55-2.27l.6-.47c.12-.1.27-.14.41-.14.16 0 .31.06.43.17.41.4.78.83 1.11 1.28.16.21.16.48.01.8l-.35.77c-.42.9-.26 1.97.4 2.72.28.31.57.62.87.93.3.3.61.59.93.87.75.66 1.81.81 2.72.39l.89-.41c.22-.1.48-.08.67.07.45.33.88.71 1.28 1.11.23.23.21.61-.04.94z"/></svg>