<svg version="1.1" id="FNL_OL" xmlns="http://www.w3.org/2000/svg" x="0" y="0" viewBox="0 0 16 16" style="enable-background:new 0 0 16 16" xml:space="preserve"><style>.st0{fill:#33383d}</style><path class="st0" d="M13.33 9.72c-.39 0-.78-.09-1.14-.27-1.2-.59-2.3-1.39-3.28-2.36-.97-.97-1.77-2.07-2.36-3.27A2.59 2.59 0 0 1 7.27.63l.35-.27a1.69 1.69 0 0 1 2.22.12c.31.31.6.64.86.99.38.51.43 1.17.14 1.8l-.08.18c-.07.15-.04.32.07.45.2.22.4.44.62.66.21.21.43.42.66.62.12.11.3.14.45.07l.26-.12c.56-.26 1.2-.2 1.68.15.37.27.72.57 1.04.9.59.6.62 1.56.07 2.27l-.23.29c-.51.63-1.27.98-2.05.98zM8.66 1.5c-.04 0-.08.01-.12.04l-.35.28c-.4.31-.53.87-.3 1.33.52 1.06 1.22 2.03 2.08 2.88.86.86 1.83 1.56 2.88 2.08.46.23 1.02.1 1.33-.3l.23-.29c.07-.09.12-.22.05-.3a6.63 6.63 0 0 0-.85-.74c-.04-.03-.11-.03-.17 0l-.26.12c-.69.32-1.5.2-2.07-.3-.25-.22-.49-.45-.73-.68-.24-.23-.47-.47-.69-.72-.5-.57-.62-1.39-.3-2.07l.08-.18c.08-.18.03-.25.02-.28-.21-.29-.45-.57-.71-.82a.166.166 0 0 0-.12-.05z"/><path class="st0" d="M10.27 15.99c-.49 0-.98-.11-1.43-.33-1.82-.88-3.5-2.08-4.97-3.55A17.935 17.935 0 0 1 .33 7.15c-.68-1.41-.27-3.14.98-4.11l.6-.47c.85-.66 2.06-.6 2.81.14.46.45.89.94 1.27 1.46.49.67.55 1.51.17 2.33l-.36.77c-.17.36-.1.79.16 1.09.26.29.53.58.81.86s.57.55.86.81c.3.26.73.33 1.09.16l.89-.41c.72-.33 1.56-.25 2.2.22.52.38 1.01.81 1.46 1.27.77.78.8 1.98.07 2.91l-.39.5a3.39 3.39 0 0 1-2.68 1.31zM3.24 3.62a.7.7 0 0 0-.41.14l-.6.47c-.69.54-.93 1.5-.55 2.27.81 1.67 1.9 3.21 3.26 4.56 1.35 1.35 2.88 2.45 4.56 3.26.78.37 1.73.14 2.28-.55l.39-.5c.25-.33.27-.7.04-.94-.4-.4-.83-.78-1.28-1.11a.652.652 0 0 0-.67-.07l-.89.41c-.9.42-1.97.27-2.72-.39-.31-.28-.62-.57-.93-.87s-.6-.63-.88-.94c-.66-.75-.82-1.82-.4-2.72l.36-.77c.15-.32.14-.58-.01-.8-.34-.45-.71-.88-1.12-1.28a.613.613 0 0 0-.43-.17z"/></svg>