<svg version="1.1" id="FNL_OL" xmlns="http://www.w3.org/2000/svg" x="0" y="0" viewBox="0 0 16 16" style="enable-background:new 0 0 16 16" xml:space="preserve"><style>.st0{fill:#33383d}</style><path class="st0" d="M8 15.7c-.41 0-.75-.34-.75-.75v-7.2a.749.749 0 1 1 1.5 0v7.21c0 .41-.34.74-.75.74z"/><path class="st0" d="M8 16a.75.75 0 0 1-.53-.22l-2.63-2.63c-.29-.29-.29-.77 0-1.06s.77-.29 1.06 0l2.1 2.1 2.1-2.1c.29-.29.77-.29 1.06 0s.29.77 0 1.06l-2.63 2.63A.75.75 0 0 1 8 16zM2.26 7.55h-.1C1.09 7.54.25 6.73.1 5.59l-.07-.62c-.19-1.53.71-3.01 2.15-3.51 3.7-1.29 7.93-1.29 11.64 0 1.44.5 2.34 1.98 2.15 3.51l-.09.73c-.13 1.04-1.01 1.84-2.04 1.85-.61.01-1.25-.04-1.87-.13-.79-.12-1.42-.66-1.72-1.49l-.28-.77a.953.953 0 0 0-.83-.62c-.75-.05-1.53-.05-2.28 0-.37.02-.7.27-.83.62l-.32.89c-.27.73-.91 1.25-1.68 1.37-.58.08-1.17.13-1.77.13zm-.08-1.5c.54.01 1.1-.03 1.63-.11.22-.04.41-.19.49-.4l.32-.89c.34-.92 1.18-1.55 2.15-1.61.81-.05 1.65-.05 2.46 0 .97.06 1.81.69 2.15 1.6l.28.77c.11.31.29.48.53.52.54.08 1.1.11 1.63.11.29 0 .53-.23.57-.53l.09-.73c.1-.83-.38-1.63-1.16-1.9-3.39-1.18-7.27-1.18-10.65 0-.77.27-1.26 1.07-1.15 1.91l.07.61c.05.39.28.64.59.65z"/></svg>