<svg version="1.1" id="FNL_OL" xmlns="http://www.w3.org/2000/svg" x="0" y="0" viewBox="0 0 16 16" style="enable-background:new 0 0 16 16" xml:space="preserve"><style>.st0{fill:#33383d}</style><path class="st0" d="M13.82 9.42c-3.7-1.29-7.94-1.29-11.64 0-1.44.5-2.34 1.98-2.15 3.51l.08.61c.14 1.15.99 1.95 2.06 1.96.62 0 1.25-.04 1.87-.13.76-.12 1.4-.64 1.67-1.37l.32-.89c.13-.35.46-.6.83-.62.75-.04 1.53-.04 2.28 0 .37.02.7.27.83.62l.28.77c.3.83.93 1.37 1.72 1.49.57.09 1.17.13 1.77.13h.1c1.04-.01 1.91-.8 2.04-1.85l.09-.73c.19-1.53-.71-3-2.15-3.5zm.57 4.05c-.04.3-.28.53-.57.53-.54 0-1.1-.03-1.63-.11-.24-.04-.42-.21-.53-.52l-.28-.77a2.444 2.444 0 0 0-2.15-1.61c-.4-.02-.82-.03-1.23-.03s-.83.01-1.23.04c-.97.06-1.81.69-2.15 1.61l-.32.88c-.08.21-.26.36-.49.39-.54.08-1.09.13-1.63.12-.31 0-.54-.26-.59-.65l-.08-.61c-.1-.83.38-1.63 1.16-1.91 3.38-1.18 7.27-1.18 10.65 0 .77.27 1.26 1.07 1.16 1.9l-.09.74zM2.75 6c.41 0 .75-.33.75-.75v-2.2l3.97 3.97c.14.15.33.23.53.23s.39-.08.53-.22l3.75-3.75c.29-.29.29-.77 0-1.06s-.77-.29-1.06 0L8 5.44 4.56 2h2.2c.41 0 .75-.34.75-.75S7.17.5 6.76.5H2.75C2.34.5 2 .83 2 1.25v4.01c0 .41.34.74.75.74z"/></svg>