<svg version="1.1" id="FNL_OL" xmlns="http://www.w3.org/2000/svg" x="0" y="0" viewBox="0 0 16 16" style="enable-background:new 0 0 16 16" xml:space="preserve"><style>.st0{fill:#33383d}</style><path class="st0" d="M11.73 8.75c-.41 0-.75-.34-.75-.75 0-1.64-1.34-2.98-2.98-2.98-.41 0-.75-.34-.75-.75s.34-.75.75-.75c2.47 0 4.48 2.01 4.48 4.48 0 .41-.33.75-.75.75z"/><path class="st0" d="M14.75 8.75c-.41 0-.75-.33-.75-.75 0-3.31-2.69-6-6-6-.41 0-.75-.34-.75-.75S7.59.5 8 .5c4.14 0 7.5 3.37 7.5 7.5 0 .42-.33.75-.75.75zM10.27 15.99c-.49 0-.97-.11-1.43-.33-1.83-.88-3.5-2.08-4.97-3.55A17.935 17.935 0 0 1 .33 7.15c-.68-1.41-.27-3.14.98-4.11l.6-.47c.85-.66 2.06-.6 2.81.14.46.45.89.94 1.27 1.46.49.67.55 1.51.17 2.33l-.36.77c-.17.36-.1.79.16 1.09.26.29.53.58.81.86s.57.55.86.81c.3.27.73.33 1.09.16l.89-.42c.72-.33 1.56-.25 2.2.22.51.38 1 .81 1.46 1.27.77.78.8 1.98.07 2.91l-.39.5a3.37 3.37 0 0 1-2.68 1.32zM3.24 3.62a.7.7 0 0 0-.41.14l-.6.47c-.69.54-.93 1.5-.55 2.27.81 1.68 1.9 3.21 3.25 4.56 1.35 1.35 2.88 2.45 4.56 3.26.77.37 1.73.14 2.28-.56l.39-.5c.25-.33.27-.7.04-.94-.4-.41-.83-.78-1.28-1.11a.652.652 0 0 0-.67-.07l-.89.41c-.91.42-1.98.27-2.72-.39-.31-.28-.62-.57-.93-.87-.3-.31-.6-.61-.88-.93-.65-.75-.81-1.82-.39-2.72l.36-.77c.15-.32.14-.58-.01-.8-.34-.45-.71-.88-1.12-1.28a.613.613 0 0 0-.43-.17z"/></svg>