<svg version="1.1" id="FNL_OL" xmlns="http://www.w3.org/2000/svg" x="0" y="0" viewBox="0 0 16 16" style="enable-background:new 0 0 16 16" xml:space="preserve"><style>.st0{fill:#33383d}</style><path class="st0" d="M4.05 4.8H.75C.34 4.8 0 4.46 0 4.05V.75C0 .34.34 0 .75 0h3.3c.41 0 .75.34.75.75v3.3c0 .41-.34.75-.75.75zM1.5 3.3h1.8V1.5H1.5v1.8zM9.65 4.8h-3.3c-.41 0-.75-.34-.75-.75V.75c0-.41.34-.75.75-.75h3.3c.41 0 .75.34.75.75v3.3c0 .41-.34.75-.75.75zM7.1 3.3h1.8V1.5H7.1v1.8zM15.25 4.8h-3.3c-.41 0-.75-.34-.75-.75V.75c0-.41.34-.75.75-.75h3.3c.41 0 .75.34.75.75v3.3c0 .41-.34.75-.75.75zM12.7 3.3h1.8V1.5h-1.8v1.8zM4.05 10.4H.75c-.41 0-.75-.34-.75-.75v-3.3c0-.41.34-.75.75-.75h3.3c.41 0 .75.34.75.75v3.3c0 .41-.34.75-.75.75zM1.5 8.9h1.8V7.1H1.5v1.8zM9.65 10.4h-3.3c-.41 0-.75-.34-.75-.75v-3.3c0-.41.34-.75.75-.75h3.3c.41 0 .75.34.75.75v3.3c0 .41-.34.75-.75.75zM7.1 8.9h1.8V7.1H7.1v1.8zM15.25 10.4h-3.3c-.41 0-.75-.34-.75-.75v-3.3c0-.41.34-.75.75-.75h3.3c.41 0 .75.34.75.75v3.3c0 .41-.34.75-.75.75zM12.7 8.9h1.8V7.1h-1.8v1.8zM4.05 16H.75c-.41 0-.75-.34-.75-.75v-3.3c0-.41.34-.75.75-.75h3.3c.41 0 .75.34.75.75v3.3c0 .41-.34.75-.75.75zM1.5 14.5h1.8v-1.8H1.5v1.8zM9.65 16h-3.3c-.41 0-.75-.34-.75-.75v-3.3c0-.41.34-.75.75-.75h3.3c.41 0 .75.34.75.75v3.3c0 .41-.34.75-.75.75zM7.1 14.5h1.8v-1.8H7.1v1.8zM15.25 16h-3.3c-.41 0-.75-.34-.75-.75v-3.3c0-.41.34-.75.75-.75h3.3c.41 0 .75.34.75.75v3.3c0 .41-.34.75-.75.75zm-2.55-1.5h1.8v-1.8h-1.8v1.8z"/></svg>