<svg xmlns="http://www.w3.org/2000/svg" viewBox="0 0 16 16" style="enable-background:new 0 0 16 16" xml:space="preserve"><style>.st0{display:none}.st3{display:inline;fill:none;stroke:#33383d;stroke-width:1.5;stroke-linecap:round;stroke-linejoin:round;stroke-miterlimit:10}</style><path d="M15.78 4.83 11.17.22a.754.754 0 0 0-1.06 0c-.29.28-.29.74-.02 1.03L6.51 4.83c-2.25-.6-4.63.03-6.29 1.69-.14.15-.22.34-.22.54s.08.39.22.53l3.57 3.57-3.56 3.56c-.29.29-.29.77 0 1.06.14.14.33.22.52.22s.38-.07.53-.22l3.56-3.56 3.56 3.56c.16.14.35.22.54.22s.38-.07.53-.22a6.492 6.492 0 0 0 1.69-6.29l3.58-3.58c.14.13.32.2.51.2s.38-.07.53-.22c.29-.3.29-.77 0-1.06zm-5.46 3.38L8.89 6.78c-.29-.29-.77-.29-1.06 0s-.29.77 0 1.06l1.82 1.82a5 5 0 0 1-.75 4.48L1.85 7.1c1.32-.98 3.03-1.25 4.63-.71.27.09.57.02.77-.18l3.89-3.89 2.53 2.53-3.35 3.36z" style="fill:#33383d" id="Genesys"/></svg>