<svg xmlns="http://www.w3.org/2000/svg" viewBox="0 0 16 16" style="enable-background:new 0 0 16 16" xml:space="preserve"><style>.st0{display:none}.st2{display:inline;fill:none;stroke:#33383d;stroke-width:1.5;stroke-linecap:round;stroke-linejoin:round;stroke-miterlimit:10}.st10{fill:#33383d}</style><g id="Genesys"><path class="st10" d="M15.25 0H4.5c-.42 0-.75.34-.75.75v5h-3c-.41 0-.75.33-.75.75v6.88C0 14.82 1.18 16 2.62 16s2.62-1.18 2.62-2.62V1.5h9.25v11.88c0 .62-.5 1.12-1.12 1.12H7c-.41 0-.75.34-.75.75s.34.75.75.75h6.38c1.45 0 2.62-1.18 2.62-2.62V.75c0-.41-.34-.75-.75-.75zM3.75 13.38c0 .62-.5 1.12-1.12 1.12S1.5 14 1.5 13.38V7.25h2.25v6.13z"/><path class="st10" d="M7 7.25h5.75c.41 0 .75-.34.75-.75v-3c0-.41-.34-.75-.75-.75H7c-.41 0-.75.34-.75.75v3c0 .41.33.75.75.75zm.75-3H12v1.5H7.75v-1.5zM7 10.17h5.75c.41 0 .75-.34.75-.75s-.34-.75-.75-.75H7c-.42 0-.75.33-.75.75s.33.75.75.75zM7 13.08h5.75c.41 0 .75-.34.75-.75s-.34-.75-.75-.75H7a.749.749 0 1 0 0 1.5z"/></g></svg>