<svg xmlns="http://www.w3.org/2000/svg" viewBox="0 0 16 16" style="enable-background:new 0 0 16 16" xml:space="preserve"><style>.st0{display:none}.st1{fill:none;stroke:#33383d;stroke-width:1.3;stroke-linecap:round;stroke-linejoin:round;stroke-miterlimit:10}.st1,.st2{display:inline}.st9{fill:none;stroke:#33383d;stroke-width:1.5;stroke-linecap:round;stroke-linejoin:round;stroke-miterlimit:10}.st21{fill:#33383d}</style><g id="Genesys"><path class="st21" d="M15.25 1.75H9.5c-.41 0-.75.34-.75.75v6c0 .41.34.75.75.75h3.25c.41 0 .75-.34.75-.75s-.34-.75-.75-.75h-2.5v-4.5h4.25v6.42c0 1.7-1.38 3.08-3.08 3.08-.41 0-.75.34-.75.75s.34.75.75.75c2.52 0 4.58-2.05 4.58-4.58V2.5c0-.42-.34-.75-.75-.75zM6.5 1.75H.75c-.41 0-.75.33-.75.75v6c0 .41.34.75.75.75H4c.41 0 .75-.34.75-.75s-.34-.75-.75-.75H1.5v-4.5h4.25v6.42c0 1.7-1.38 3.08-3.08 3.08-.41 0-.75.34-.75.75s.34.75.75.75c2.52 0 4.58-2.05 4.58-4.58V2.5c0-.42-.34-.75-.75-.75z"/></g></svg>