<svg xmlns="http://www.w3.org/2000/svg" viewBox="0 0 16 16" style="enable-background:new 0 0 16 16" xml:space="preserve"><style>.st0{display:none}</style><path d="M15.93 6.03c-.18-.56-.68-.94-1.27-.97l-3.91-.16-1.44-3.73C9.1.62 8.59.27 8 .27c-.59 0-1.1.35-1.31.9L5.33 4.84l-3.99.22c-.59.03-1.09.41-1.27.97-.18.56 0 1.16.45 1.53l3.06 2.48-1.02 3.81a1.4 1.4 0 0 0 .54 1.5c.25.18.54.27.83.27.27 0 .53-.08.77-.23L8 13.25l3.31 2.14c.49.32 1.12.3 1.59-.04.48-.35.69-.94.53-1.5l-1.06-3.77 3.1-2.52c.46-.37.64-.97.46-1.53z" style="fill:#33383d" id="Genesys"/></svg>