<svg xmlns="http://www.w3.org/2000/svg" viewBox="0 0 16 16" style="enable-background:new 0 0 16 16" xml:space="preserve"><style>.st0{display:none}</style><path d="M15.93 6.03c-.18-.56-.68-.94-1.26-.97l-3.92-.16-1.43-3.73C9.1.62 8.59.27 8 .27c-.59 0-1.1.35-1.31.9L5.33 4.84l-3.99.22c-.59.03-1.09.41-1.27.97-.18.56 0 1.16.45 1.53l3.06 2.48-1.02 3.81a1.4 1.4 0 0 0 .54 1.5c.48.35 1.1.36 1.59.04L8 13.25l3.31 2.14c.24.15.5.23.77.23.29 0 .58-.09.83-.27.48-.34.69-.94.53-1.5l-1.02-3.81 3.06-2.48c.45-.37.63-.97.45-1.53zm-4.5 2.88a1.4 1.4 0 0 0-.47 1.46l.96 3.63-3.16-2.05c-.23-.15-.5-.23-.76-.23V1.94l1.35 3.5c.2.52.69.87 1.24.9l3.76.2-2.92 2.37z" style="fill:#33383d" id="Genesys"/></svg>