<svg xmlns="http://www.w3.org/2000/svg" viewBox="0 0 16 16" style="enable-background:new 0 0 16 16" xml:space="preserve"><style>.st0{display:none}</style><path d="M3.93 15.62c-.29 0-.58-.09-.83-.27-.48-.35-.69-.94-.53-1.5l1.02-3.81L.52 7.56c-.45-.37-.63-.97-.45-1.53s.68-.94 1.27-.97l3.99-.21 1.36-3.67C6.9.62 7.41.27 8 .27c.59 0 1.1.35 1.31.9l1.44 3.73 3.91.16c.59.03 1.08.41 1.27.97.18.56 0 1.16-.45 1.53l-3.1 2.52 1.06 3.77a1.4 1.4 0 0 1-.53 1.5c-.48.35-1.1.36-1.59.04L8 13.25l-3.31 2.14c-.23.15-.5.23-.76.23zM1.65 6.54l2.92 2.37c.43.35.62.92.48 1.46L4.08 14l3.16-2.05c.46-.3 1.07-.3 1.53 0L11.92 14l-.97-3.64c-.14-.53.05-1.1.48-1.45l2.92-2.37-3.76-.2c-.55-.03-1.04-.38-1.24-.9L8 1.93 6.65 5.44c-.2.52-.69.87-1.24.9l-3.76.2zm6.27-4.83z" style="fill:#33383d" id="Genesys"/></svg>