<svg xmlns="http://www.w3.org/2000/svg" viewBox="0 0 16 16" style="enable-background:new 0 0 16 16" xml:space="preserve"><path d="M12 0H4C1.79 0 0 1.79 0 4v8c0 2.21 1.79 4 4 4h8c2.21 0 4-1.79 4-4V4c0-2.21-1.79-4-4-4zm0 14.5H4A2.5 2.5 0 0 1 1.5 12v-.12c.63-.58.88-1.98 1.2-3.75.12-.66.29-1.62.47-2.26.18.64.35 1.6.47 2.27.41 2.34.71 4.04 1.95 4.04 1.23 0 1.53-1.69 1.95-4.04.12-.66.29-1.62.47-2.26.07.24.15.58.25 1.05.06.39.45.65.86.57a.75.75 0 0 0 .59-.88c-.29-1.47-.64-2.79-1.72-2.79-1.23 0-1.53 1.69-1.95 4.04-.11.66-.28 1.63-.46 2.27-.18-.64-.35-1.61-.47-2.27-.41-2.34-.71-4.04-1.95-4.04-.95 0-1.34 1.01-1.66 2.53V4A2.5 2.5 0 0 1 4 1.5h8A2.5 2.5 0 0 1 14.5 4v2.39c-.32-1.54-.72-2.56-1.67-2.56-1.23 0-1.53 1.69-1.95 4.04-.12.66-.29 1.63-.47 2.27-.07-.25-.15-.59-.25-1.06a.75.75 0 0 0-.88-.59c-.4.08-.67.48-.59.88.29 1.47.65 2.8 1.72 2.8 1.23 0 1.53-1.69 1.95-4.04.12-.66.29-1.63.47-2.27.18.64.35 1.61.47 2.27.31 1.77.56 3.17 1.2 3.75V12a2.5 2.5 0 0 1-2.5 2.5z" style="fill:#33383d"/></svg>