<svg xmlns="http://www.w3.org/2000/svg" viewBox="0 0 16 16" style="enable-background:new 0 0 16 16" xml:space="preserve"><style>.st0{display:none}.st2{display:inline}.st3{stroke-width:1.3;stroke-linejoin:round}.st12,.st3,.st7,.st9{fill:none;stroke:#33383d;stroke-linecap:round;stroke-miterlimit:10}.st7{display:inline;stroke-width:1.3}.st12,.st9{stroke-width:1.5}.st9{stroke-linejoin:round}.st12{display:inline}.st21{fill:#33383d}</style><g id="Genesys"><path class="st21" d="M14.5 5.25h-3.74c-.41 0-.75-.34-.75-.75s.34-.75.75-.75h2.99v-3c0-.41.34-.75.75-.75s.75.34.75.75V4.5c0 .41-.33.75-.75.75z"/><path class="st21" d="M.75 8.75C.34 8.75 0 8.41 0 8c0-4.41 3.59-8 8-8 1.83 0 3.63.64 5.05 1.79.32.26.37.73.11 1.06-.26.32-.73.37-1.06.11A6.504 6.504 0 0 0 8 1.5C4.42 1.5 1.5 4.42 1.5 8c0 .41-.33.75-.75.75zM1.5 16c-.41 0-.75-.34-.75-.75V11.5c0-.41.34-.75.75-.75h3.74c.41 0 .75.34.75.75s-.34.75-.75.75H2.25v2.99c0 .42-.34.76-.75.76z"/><path class="st21" d="M8 16c-1.84 0-3.63-.64-5.05-1.8a.758.758 0 0 1-.11-1.06c.26-.32.74-.37 1.05-.11 1.16.95 2.62 1.47 4.11 1.47 3.58 0 6.5-2.92 6.5-6.5 0-.41.34-.75.75-.75s.75.34.75.75c0 4.41-3.59 8-8 8z"/></g></svg>