<svg xmlns="http://www.w3.org/2000/svg" viewBox="0 0 16 16" style="enable-background:new 0 0 16 16" xml:space="preserve"><style>.st0{display:none}.st3{display:inline;fill:none;stroke:#33383d;stroke-width:1.5;stroke-linecap:round;stroke-linejoin:round;stroke-miterlimit:10}.st11{fill:#33383d}</style><g id="Genesys"><path class="st11" d="M10.31 16H9.5c-.41 0-.75-.34-.75-.75s.34-.75.75-.75h.81c2.31 0 4.19-1.88 4.19-4.19s-1.88-4.19-4.19-4.19H4.29c-.41 0-.75-.34-.75-.75s.34-.75.75-.75h6.02c3.14 0 5.69 2.55 5.69 5.69S13.45 16 10.31 16z"/><path class="st11" d="M5.37 10.72c-.19 0-.38-.07-.53-.22L.23 5.89a.754.754 0 0 1 0-1.06L4.84.22c.29-.29.77-.29 1.06 0s.29.77 0 1.06L1.82 5.36 5.9 9.44c.29.29.29.77 0 1.06-.15.15-.34.22-.53.22zM7 16h-.66c-.41 0-.75-.34-.75-.75s.34-.75.75-.75H7c.41 0 .75.34.75.75S7.41 16 7 16zM3.83 16h-.65c-.41 0-.75-.34-.75-.75s.34-.75.75-.75h.66c.41 0 .75.34.75.75s-.34.75-.76.75z"/></g></svg>