<svg xmlns="http://www.w3.org/2000/svg" viewBox="0 0 16 16" style="enable-background:new 0 0 16 16" xml:space="preserve"><style>.st0{display:none}.st2{display:inline;fill:none;stroke:#33383d;stroke-width:1.5;stroke-linecap:round;stroke-linejoin:round;stroke-miterlimit:10}.st10{fill:#33383d}</style><g id="Genesys"><path class="st10" d="M15.25 0H2.5c-.41 0-.75.33-.75.75v1h-1c-.41 0-.75.34-.75.75s.34.75.75.75h1V4.5h-1c-.41 0-.75.34-.75.75S.34 6 .75 6h1v1.25h-1C.34 7.25 0 7.59 0 8s.34.75.75.75h1V10h-1c-.41.01-.75.34-.75.76s.34.75.75.75h1v1.25h-1a.749.749 0 1 0 0 1.5h1v.99c0 .41.34.75.75.75s.75-.34.75-.75V1.5H14.5v13H4.99c-.41 0-.75.34-.75.75s.34.75.75.75h10.26c.41 0 .75-.34.75-.75V.75c0-.42-.34-.75-.75-.75z"/><path class="st10" d="M5.8 5.25h6.15c.41 0 .75-.34.75-.75s-.34-.75-.75-.75H5.8c-.41 0-.75.34-.75.75s.34.75.75.75zM5.8 8.25h6.15c.41 0 .75-.34.75-.75s-.34-.75-.75-.75H5.8c-.41 0-.75.34-.75.75s.34.75.75.75z"/></g></svg>