<svg xmlns="http://www.w3.org/2000/svg" viewBox="0 0 16 16" style="enable-background:new 0 0 16 16" xml:space="preserve"><style>.st0{display:none}.st2{display:inline}.st3,.st4{fill:none;stroke:#33383d;stroke-width:1.5;stroke-linecap:round;stroke-linejoin:round;stroke-miterlimit:10}.st4{display:inline}.st8{fill:#33383d}</style><g id="Genesys"><path class="st8" d="M7.81 12.52H5.36c-.68 0-1.23-.55-1.23-1.23V2.56l1.36 1.36c.15.15.34.22.53.22s.38-.07.53-.22c.29-.29.29-.77 0-1.06L3.92.22a.754.754 0 0 0-1.06 0L.22 2.86c-.29.29-.29.77 0 1.06s.77.29 1.06 0l1.36-1.36v8.74c0 1.5 1.22 2.73 2.73 2.73h2.45c.41 0 .75-.34.75-.75s-.34-.76-.76-.76zM15.78 12.08a.754.754 0 0 0-1.06 0l-1.36 1.36V4.7c0-1.5-1.22-2.73-2.73-2.73H8.18c-.41 0-.75.34-.75.75s.34.75.75.75h2.45c.68 0 1.23.55 1.23 1.23v8.74l-1.36-1.36c-.29-.29-.77-.29-1.06 0s-.29.77 0 1.06l2.64 2.64a.75.75 0 0 0 1.06 0l2.64-2.64c.29-.29.29-.76 0-1.06z"/></g></svg>