<svg version="1.1" id="FNL_OL" xmlns="http://www.w3.org/2000/svg" x="0" y="0" viewBox="0 0 16 16" style="enable-background:new 0 0 16 16" xml:space="preserve"><style>.st0{fill:#33383d}</style><path class="st0" d="M.75 12.46c.41 0 .75-.34.75-.75V5.64l2.98 2.44c.14.11.31.17.47.17.22 0 .43-.09.58-.28.27-.32.23-.79-.09-1.05L1.71 3.87a.58.58 0 0 1-.21-.44V3c0-.28.22-.5.5-.5h8.71a.749.749 0 1 0 0-1.5H2C.9 1 0 1.9 0 3v8.71c0 .41.34.75.75.75zM15.78 1.28c.29-.29.29-.77 0-1.06s-.77-.29-1.06 0L.22 14.72c-.29.29-.29.77 0 1.06.15.14.34.22.53.22s.38-.07.53-.22l.78-.78h11.93c1.1 0 2-.9 2-2V7.29c0-.41-.34-.75-.75-.75s-.75.34-.75.75V13c0 .28-.22.5-.5.5H3.56l3.62-3.62c.27.08.55.12.82.12.73 0 1.46-.25 2.05-.74l5.18-4.24c.48-.39.76-.98.76-1.6V3c0-.53-.21-1.01-.56-1.38l.35-.34zM14.49 3v.43c0 .17-.08.33-.21.44L9.11 8.11c-.12.1-.25.18-.39.24l5.66-5.66c.07.08.11.19.11.31z"/></svg>