<svg version="1.1" id="FNL_OL" xmlns="http://www.w3.org/2000/svg" x="0" y="0" viewBox="0 0 16 16" style="enable-background:new 0 0 16 16" xml:space="preserve"><style></style><path d="M13.99 15H2c-1.1 0-2-.9-2-2V3c0-1.1.9-2 2-2h11.99c.54 0 1.04.21 1.42.59.38.37.59.88.58 1.41v.43c0 .62-.28 1.21-.76 1.6l-5.18 4.24c-1.19.98-2.92.97-4.11 0L1.5 5.64V13c0 .28.22.5.5.5h11.99c.28 0 .5-.22.5-.5V7.29c0-.41.34-.75.75-.75s.75.34.75.75V13a2 2 0 0 1-2 2zM1.5 3.2v.23c0 .17.08.33.21.44l5.18 4.24c.64.53 1.57.53 2.22 0l5.18-4.24a.58.58 0 0 0 .21-.44V3a.47.47 0 0 0-.15-.35.51.51 0 0 0-.35-.15H2c-.27 0-.5.22-.5.5v.2z" style="fill:#33383d"/></svg>