<svg version="1.1" id="FNL_OL" xmlns="http://www.w3.org/2000/svg" x="0" y="0" viewBox="0 0 16 16" style="enable-background:new 0 0 16 16" xml:space="preserve"><style>.st0{fill:#33383d}</style><path class="st0" d="M14.29 13.03c1.04-.74 1.7-1.84 1.7-3.06 0-2.22-2.16-4.02-4.82-4.02s-4.82 1.8-4.82 4.02c0 2.22 2.16 4.02 4.82 4.02.58 0 1.13-.08 1.64-.24a.32.32 0 0 1 .27.03l1.05.61c.23.13.37.03.3-.23l-.23-.86c-.03-.1.01-.21.09-.27m-4.73-3.7c-.36 0-.65-.29-.65-.65 0-.36.29-.65.65-.65.36 0 .65.29.65.65 0 .36-.29.65-.65.65zm3.2 0c-.36 0-.65-.29-.65-.65 0-.36.29-.65.65-.65.36 0 .65.29.65.65 0 .36-.29.65-.65.65z"/><path class="st0" d="M5.81 1.5c-3.2 0-5.8 2.16-5.8 4.82 0 1.46.78 2.78 2.02 3.66.12.08.17.23.13.37l-.27 1.02c-.08.31.07.43.35.27l1.24-.72c.11-.07.25-.08.37-.04.61.18 1.27.28 1.95.28.1 0 .21 0 .31-.01-.13-.38-.2-.78-.2-1.19 0-2.42 2.37-4.39 5.3-4.39.1 0 .2 0 .31.01C11.1 3.26 8.7 1.5 5.81 1.5M3.86 5.54c-.43 0-.77-.34-.77-.77 0-.42.35-.77.77-.77a.77.77 0 0 1 0 1.54zm3.87 0c-.43 0-.77-.34-.77-.77 0-.42.35-.77.77-.77a.77.77 0 0 1 0 1.54z"/></svg>