<svg version="1.1" id="FNL_OL" xmlns="http://www.w3.org/2000/svg" x="0" y="0" viewBox="0 0 16 16" style="enable-background:new 0 0 16 16" xml:space="preserve"><style>.st0{fill:#33383d}</style><path class="st0" d="M15.99 9.97c0-2.22-2.16-4.02-4.82-4.02-.44 0-.86.07-1.27.16l-3.51 3.5c-.01.12-.05.24-.05.36 0 2.22 2.16 4.02 4.82 4.02.58 0 1.13-.08 1.64-.24a.32.32 0 0 1 .27.03l1.05.61c.23.13.37.03.3-.23l-.22-.86c-.03-.1.01-.2.1-.26 1.03-.74 1.69-1.84 1.69-3.07zm-6.43-.64c-.36 0-.65-.29-.65-.65 0-.36.29-.65.65-.65.36 0 .65.29.65.65 0 .36-.29.65-.65.65zm3.2 0c-.36 0-.65-.29-.65-.65 0-.36.29-.65.65-.65s.65.29.65.65c0 .36-.29.65-.65.65zM2.03 9.98c.12.08.17.23.13.37l-.27 1.02c-.03.11-.02.19.01.25l6.14-6.14c-.1.04-.2.07-.32.07-.43 0-.77-.34-.77-.77.01-.43.36-.78.78-.78s.77.35.77.77c0 .11-.03.22-.07.32l1.84-1.84C9.21 2.18 7.6 1.5 5.81 1.5c-3.2 0-5.8 2.16-5.8 4.82 0 1.46.78 2.78 2.02 3.66zM3.86 4c.43 0 .77.34.77.77s-.34.77-.77.77-.77-.34-.77-.77c0-.42.35-.77.77-.77z"/><path class="st0" d="M.75 16c-.19 0-.38-.07-.53-.22a.754.754 0 0 1 0-1.06L14.72.22c.29-.29.77-.29 1.06 0s.29.77 0 1.06l-14.5 14.5c-.14.14-.34.22-.53.22z"/></svg>