<svg version="1.1" id="FNL_OL" xmlns="http://www.w3.org/2000/svg" x="0" y="0" viewBox="0 0 16 16" style="enable-background:new 0 0 16 16" xml:space="preserve"><style></style><path d="M7.99.49C3.96.5.67 3.82.71 7.85a7.26 7.26 0 0 0 2.25 5.19c.16.15.25.37.25.59v1.21c0 .47.49.78.91.59l1.33-.61c.18-.08.38-.09.56-.04.63.18 1.29.27 1.97.27 4.01 0 7.29-3.27 7.29-7.29.02-4.01-3.25-7.27-7.28-7.27zm4.54 5.57-2.17 3.43c-.36.56-1.11.71-1.65.32l-.62-.43-1.08-.77a.555.555 0 0 0-.67.02L4.19 10.4c-.35.29-.84-.14-.59-.53l2.17-3.43c.36-.56 1.11-.71 1.65-.32l.9.64.8.57c.2.14.48.14.67-.02l2.16-1.76c.34-.3.83.13.58.51z" style="fill:#33383d"/></svg>