<svg version="1.1" id="FNL_OL" xmlns="http://www.w3.org/2000/svg" x="0" y="0" viewBox="0 0 16 16" style="enable-background:new 0 0 16 16" xml:space="preserve"><style></style><path d="M16 2.78c-.59.26-1.22.44-1.88.52.68-.41 1.2-1.05 1.44-1.82-.63.38-1.34.65-2.08.8-.6-.64-1.45-1.04-2.39-1.04-1.81 0-3.28 1.47-3.28 3.28 0 .26.03.51.08.75a9.278 9.278 0 0 1-6.77-3.42C.83 2.33.67 2.89.67 3.5c0 1.14.58 2.14 1.46 2.73-.54-.02-1.04-.17-1.48-.41v.04c0 1.59 1.13 2.92 2.63 3.22-.28.07-.57.11-.87.11-.21 0-.41-.02-.61-.06a3.3 3.3 0 0 0 3.07 2.28 6.575 6.575 0 0 1-4.85 1.35c1.45.93 3.18 1.47 5.03 1.47 6.04 0 9.34-5 9.34-9.34 0-.14 0-.28-.01-.42.62-.45 1.18-1.03 1.62-1.69z" style="fill:#33383d"/></svg>