<svg version="1.1" id="FNL_OL" xmlns="http://www.w3.org/2000/svg" x="0" y="0" viewBox="0 0 16 16" style="enable-background:new 0 0 16 16" xml:space="preserve"><style>.st0{fill:#33383d}</style><path class="st0" d="M6.15 4.27s-.5-.01-.61-.01c-.11 0-.32.13-.32.13-.63.38-.76 1.31-.78 1.51-.02.2-.05.63.27 1.36.12.28.34.61.59.96l1.1-1.1c.02-.04.04-.06.04-.06s.34-.38.5-.58c.16-.2.07-.43.03-.53-.04-.09-.53-1.31-.6-1.48s-.22-.2-.22-.2z"/><path class="st0" d="m1.83 11.69.98-.98c-.34-.66-.77-1.72-.77-2.9 0-3.35 2.72-6.07 6.07-6.07 1.06 0 2.05.27 2.92.75l.89-.89C10.82.9 9.52.5 8.12.5 4.09.5.82 3.78.82 7.8c0 1.89.96 3.61 1.05 3.78l-.04.11zM15.78.22a.754.754 0 0 0-1.06 0L.22 14.72c-.29.29-.29.77 0 1.06.15.14.34.22.53.22s.38-.07.53-.22l.74-.74 2.59-.83c.15.09 1.6.89 3.51.89 4.03 0 7.3-3.28 7.3-7.3 0-1.72-.6-3.31-1.61-4.56l1.96-1.96c.3-.29.3-.77.01-1.06zM14.19 7.8c0 3.35-2.72 6.07-6.07 6.07-1.84 0-3.33-.99-3.35-1l-.01-.01-.83.27 3.05-3.05c.97.83 2.33 1.22 2.76 1.35.46.14 1.44-.07 1.9-.56.47-.49.37-1 .37-1.17s-.16-.2-.16-.2-1.25-.64-1.51-.76-.39.07-.39.07-.39.47-.52.63c-.13.16-.2.3-.52.18-.21-.07-.57-.27-.94-.53l4.97-4.97c.78 1.03 1.25 2.3 1.25 3.68z"/></svg>