<svg version="1.1" id="FNL_OL" xmlns="http://www.w3.org/2000/svg" x="0" y="0" viewBox="0 0 16 16" style="enable-background:new 0 0 16 16" xml:space="preserve"><style>.st0{fill:#33383d}</style><path class="st0" d="m14.23 2.83 1.55-1.55c.29-.29.29-.77 0-1.06s-.77-.29-1.06 0L.22 14.72c-.29.29-.29.77 0 1.06.15.14.34.22.53.22s.38-.07.53-.22l3.12-3.12c.71.29 1.47.5 2.29.61.26.06.61.17.7.39.08.2.05.52.03.72l-.11.68c-.04.21-.16.8.69.44.85-.36 4.6-2.71 6.27-4.64 1.16-1.27 1.71-2.56 1.71-3.99.01-1.53-.65-2.93-1.75-4.04zm-3.84 5.95c0 .09-.07.15-.16.15h-.56c-.01 0-.03 0-.04-.01l-.02.01h-.02s-.01 0-.01-.01c-.01-.02-.03-.04-.04-.05l-.57-.78 1.42-1.42v2.11zm3.09-2.92c0 .09-.07.16-.16.16H11.8v.59h1.52c.09 0 .16.07.16.16v.56c0 .09-.07.15-.16.15H11.8v.59h1.52c.09 0 .16.07.16.16v.56c0 .09-.07.16-.16.16h-2.24a.21.21 0 0 1-.11-.04.15.15 0 0 1-.04-.11V6.13l.98-.98h1.41c.09 0 .16.07.16.16v.55zM2.19 11.32l2.39-2.39H2.79a.21.21 0 0 1-.11-.04.16.16 0 0 1-.05-.11V5.3c0-.09.07-.16.16-.16h.56c.09 0 .16.07.16.16v2.76h1.52c.09 0 .16.07.16.16v.11l.48-.48V5.3c0-.09.07-.16.16-.16h.56c.09 0 .16.07.16.16v1.68l.54-.54V5.3c0-.09.07-.16.16-.16H7.91l.01.01.01.01-.03.03.01.01c0 .01.01.01.01.02l.16.22 4.08-4.08A9.24 9.24 0 0 0 8 .39C3.6.39.01 3.3.01 6.87c0 1.72.83 3.29 2.18 4.45z"/></svg>