<svg version="1.1" id="FNL_OL" xmlns="http://www.w3.org/2000/svg" x="0" y="0" viewBox="0 0 16 16" style="enable-background:new 0 0 16 16" xml:space="preserve"><style>.st0{fill:#33383d}</style><path class="st0" d="M3.56 9.96c.01-.03.01-.06.03-.09l2.17-3.43c.35-.56 1.1-.71 1.64-.33l4.48-4.48A7.15 7.15 0 0 0 7.98.5C3.96.5.67 3.82.71 7.85c.01 1.4.43 2.71 1.13 3.81l1.72-1.7zM15.78.22a.754.754 0 0 0-1.06 0L.22 14.72c-.29.29-.29.77 0 1.06.15.14.34.22.53.22s.38-.07.53-.22l1.93-1.93v1.01c0 .47.49.78.91.59l1.33-.61c.18-.08.38-.09.56-.04.63.18 1.29.27 1.97.27 4.01 0 7.29-3.27 7.29-7.29 0-1.69-.58-3.23-1.54-4.47l2.03-2.03c.31-.29.31-.77.02-1.06zm-6 7.08 2.16-1.76c.35-.29.84.14.59.53L10.36 9.5c-.36.56-1.11.71-1.65.32l-.62-.44-.24-.17 1.87-1.87c.02-.02.04-.02.06-.04z"/></svg>