<svg version="1.1" id="FNL_OL" xmlns="http://www.w3.org/2000/svg" x="0" y="0" viewBox="0 0 16 16" style="enable-background:new 0 0 16 16" xml:space="preserve"><style>.st0{fill:#33383d}</style><path class="st0" d="m15.31 1.75.47-.47c.29-.29.29-.77 0-1.06s-.77-.29-1.06 0L.22 14.72c-.29.29-.29.77 0 1.06.15.14.34.22.53.22s.38-.07.53-.22l2.32-2.32c.14.01.27.04.4.04h2.62c.41 0 .75-.34.75-.75S7.04 12 6.63 12H5.06l2.75-2.75h.39c.02 0 .04-.01.04-.03l.1-.49.64-.64v1.12c0 .02.02.04.04.04h.77c.02 0 .04-.02.04-.04V7.24l.96-.96c.19.26.43.48.67.68.41.34.76.64.76 1.08 0 .27-.17.43-.48.43-.28 0-.46-.27-.49-.74 0-.01-.01-.02-.02-.03-.01-.01-.02-.01-.03-.01l-.84.12c-.02 0-.04.02-.03.04.03.73.47 1.47 1.37 1.47.89 0 1.44-.52 1.44-1.36 0-.8-.57-1.29-1.07-1.71-.26-.22-.48-.42-.61-.64l.62-.62c.05.08.09.18.1.33 0 .01.01.02.01.03s.02.01.03.01l.84-.09c.02 0 .04-.02.04-.04-.04-.37-.17-.67-.37-.88l1.48-1.48c.18.33.29.72.29 1.13v5.5A2.5 2.5 0 0 1 12 12H9.89c-.2 0-.39.08-.53.22l-2.5 2.5c-.29.29-.29.77 0 1.06.15.14.34.22.53.22s.38-.07.53-.22l2.28-2.28H12c2.21 0 4-1.79 4-4V4c0-.81-.25-1.59-.69-2.25zM1.25 11.97c.14 0 .27-.04.4-.11.35-.22.46-.68.24-1.03-.26-.41-.39-.86-.39-1.33V4A2.5 2.5 0 0 1 4 1.5h7.71c.41 0 .75-.34.75-.75S12.12 0 11.71 0H4C1.8 0 0 1.79 0 4v5.5c0 .75.21 1.48.61 2.12.14.22.39.35.64.35z"/><path class="st0" d="M6.18 4c-.02 0-.04.02-.04.04v3.34l.85-.85V5.51l.17.85.59-.59-.37-1.74c0-.02-.02-.03-.04-.03H6.18zM4.23 8.47c-.28 0-.46-.27-.49-.74 0-.01-.01-.02-.01-.03-.01-.01-.02-.02-.03-.01l-.85.12c-.02 0-.04.02-.03.04.03.73.47 1.47 1.37 1.47h.01l1.43-1.43c-.04-.76-.58-1.23-1.07-1.65-.39-.33-.73-.62-.73-.99 0-.3.14-.47.4-.47.12 0 .39.05.43.54 0 .01.01.02.01.03s.03.01.04 0l.84-.09c.02 0 .04-.02.04-.04-.09-.8-.57-1.29-1.27-1.29-.9 0-1.41.48-1.41 1.33 0 .83.55 1.29 1.04 1.7.41.34.76.64.76 1.08 0 .27-.17.43-.48.43zM8.34 5.18 9.51 4h-.9c-.01 0-.03.01-.03.03l-.24 1.15z"/></svg>