<svg version="1.1" id="FNL_OL" xmlns="http://www.w3.org/2000/svg" x="0" y="0" viewBox="0 0 16 16" style="enable-background:new 0 0 16 16" xml:space="preserve"><style>.st0{fill:#33383d}</style><path class="st0" d="M8.12.5C4.09.5.82 3.78.82 7.8c0 1.89.96 3.61 1.05 3.78L.58 15.5l4.03-1.29c.15.09 1.6.89 3.51.89 4.03 0 7.3-3.28 7.3-7.3S12.14.5 8.12.5zM3.23 11.41c-.01-.02-1.18-1.66-1.18-3.6 0-3.35 2.72-6.07 6.07-6.07s6.07 2.72 6.07 6.07-2.72 6.07-6.07 6.07c-1.84 0-3.33-.99-3.35-1l-.01-.01-2.25.73.73-2.18-.01-.01z"/><path class="st0" d="M6.79 9.92c.98.95 2.49 1.37 2.95 1.51.46.14 1.44-.07 1.9-.56.47-.49.37-1 .37-1.17-.01-.17-.16-.2-.16-.2s-1.25-.64-1.51-.76-.39.07-.39.07-.39.47-.52.63c-.13.16-.2.3-.52.18-.32-.11-.96-.47-1.47-.95s-.91-1.11-1.02-1.31c-.11-.19.02-.3.02-.3s.34-.38.5-.58c.16-.2.07-.43.03-.53s-.53-1.31-.6-1.48c-.07-.17-.23-.2-.23-.2s-.5-.01-.61-.01c-.11 0-.32.13-.32.13-.62.38-.75 1.31-.77 1.51-.02.2-.05.63.27 1.35.31.73 1.1 1.72 2.08 2.67z"/></svg>