<svg version="1.1" id="FNL_OL" xmlns="http://www.w3.org/2000/svg" x="0" y="0" viewBox="0 0 16 16" style="enable-background:new 0 0 16 16" xml:space="preserve"><style>.st0{fill:#33383d}</style><path class="st0" d="M3.28 9.08c-.28.07-.57.11-.87.11-.21 0-.41-.02-.61-.06.2.61.57 1.14 1.06 1.53l9.24-9.24c-.32-.11-.66-.18-1.02-.18-1.81 0-3.28 1.47-3.28 3.28 0 .26.03.51.08.75a9.274 9.274 0 0 1-6.76-3.42C.83 2.33.67 2.89.67 3.5c0 1.14.58 2.14 1.46 2.73-.54-.02-1.04-.17-1.48-.41v.04c0 1.59 1.13 2.91 2.63 3.22zM15.54 1.52l.24-.24c.29-.29.29-.77 0-1.06s-.77-.29-1.06 0L.22 14.72c-.29.29-.29.77 0 1.06.15.14.34.22.53.22s.38-.07.53-.22l1.76-1.76c.64.14 1.3.23 1.99.23 6.04 0 9.34-5 9.34-9.34 0-.14 0-.28-.01-.42.64-.47 1.2-1.05 1.64-1.71-.59.26-1.22.44-1.88.52.66-.4 1.17-1.03 1.42-1.78z"/></svg>