<svg version="1.1" id="FNL_OL" xmlns="http://www.w3.org/2000/svg" x="0" y="0" viewBox="0 0 16 16" style="enable-background:new 0 0 16 16" xml:space="preserve"><style>.st0{fill:#33383d}</style><path class="st0" d="M7.96 5.25c0-.41-.34-.75-.75-.75H3.75c-.42 0-.75.33-.75.75s.33.75.75.75h3.46c.41 0 .75-.34.75-.75zM12.25 9a.749.749 0 1 0 0-1.5h-1.51c-.41 0-.74.33-.74.75s.33.75.75.75h1.5zM3.75 7.5c-.42 0-.75.33-.75.75s.33.75.75.75h.46c.41 0 .75-.34.75-.75s-.34-.75-.75-.75h-.46z"/><path class="st0" d="m15.31 1.75.47-.47c.29-.29.29-.77 0-1.06s-.77-.29-1.06 0L.22 14.72c-.29.29-.29.77 0 1.06.15.14.34.22.53.22s.38-.07.53-.22l2.32-2.32c.14.01.27.04.4.04h2.62c.41 0 .75-.34.75-.75S7.04 12 6.63 12H5.06l6-6h1.19c.42 0 .75-.34.75-.75 0-.32-.21-.59-.49-.7l1.7-1.7c.18.35.29.74.29 1.15v5.5A2.5 2.5 0 0 1 12 12H9.89c-.2 0-.39.08-.53.22l-2.5 2.5c-.29.29-.29.77 0 1.06.15.14.34.22.53.22s.38-.07.53-.22l2.28-2.28H12c2.21 0 4-1.79 4-4V4c0-.81-.25-1.59-.69-2.25zM1.25 11.97c.14 0 .27-.04.4-.11.35-.22.46-.68.24-1.03-.26-.41-.39-.86-.39-1.33V4A2.5 2.5 0 0 1 4 1.5h7.71c.41 0 .75-.34.75-.75S12.12 0 11.71 0H4C1.8 0 0 1.79 0 4v5.5c0 .75.21 1.48.61 2.12.14.22.39.35.64.35z"/></svg>