<svg version="1.1" id="FNL_OL" xmlns="http://www.w3.org/2000/svg" x="0" y="0" viewBox="0 0 16 16" style="enable-background:new 0 0 16 16" xml:space="preserve"><style>.st0{fill:#33383d}</style><path class="st0" d="M12.25 6h-8.5a.749.749 0 1 1 0-1.5h8.51c.41 0 .74.33.74.75s-.33.75-.75.75zM12.25 9h-1.51c-.41 0-.74-.34-.74-.75s.34-.75.75-.75h1.51c.41 0 .74.33.74.75s-.33.75-.75.75zM8.25 9h-4.5a.749.749 0 1 1 0-1.5h4.5a.749.749 0 1 1 0 1.5z"/><path class="st0" d="M7.39 16c-.19 0-.38-.07-.53-.22a.754.754 0 0 1 0-1.06l2.5-2.5a.71.71 0 0 1 .53-.22H12a2.5 2.5 0 0 0 2.5-2.5V4A2.5 2.5 0 0 0 12 1.5H4A2.5 2.5 0 0 0 1.5 4v5.5C1.5 10.87 2.62 12 4 12h2.62c.41 0 .75.34.75.75s-.33.75-.74.75H4c-2.21 0-4-1.79-4-4V4c0-2.21 1.8-4 4-4h8c2.21 0 4 1.79 4 4v5.5c0 2.21-1.79 4-4 4h-1.8l-2.28 2.28c-.15.14-.34.22-.53.22z"/></svg>