<svg version="1.1" id="FNL_OL" xmlns="http://www.w3.org/2000/svg" x="0" y="0" viewBox="0 0 16 16" style="enable-background:new 0 0 16 16" xml:space="preserve"><style></style><path d="M15.99 6.87C15.99 3.3 12.41.39 8 .39S.01 3.3.01 6.87c0 3.2 2.84 5.89 6.68 6.39.26.06.61.17.7.39.08.2.05.52.03.72l-.11.68c-.04.22-.16.81.69.45.85-.36 4.6-2.71 6.27-4.64 1.16-1.27 1.72-2.56 1.72-3.99zM5.18 8.78c0 .09-.07.16-.16.16H2.79a.21.21 0 0 1-.11-.04.208.208 0 0 1-.05-.12V5.3c0-.09.07-.16.16-.16h.56c.09 0 .16.07.16.16v2.76h1.52c.09 0 .16.07.16.16v.56zm1.35 0c0 .09-.07.16-.16.15h-.55c-.09 0-.15-.07-.15-.15V5.3c0-.09.07-.16.16-.16h.56c.09 0 .16.07.16.16v3.48zm3.86 0c0 .09-.07.16-.16.15h-.56c-.01 0-.03 0-.04-.01l-.02.01h-.02s-.01 0-.01-.01c-.01-.02-.03-.04-.04-.05l-1.6-2.16v2.07c0 .09-.07.15-.16.15h-.55c-.09 0-.15-.07-.15-.15V5.3c0-.09.07-.16.16-.16H7.9l.01.01-.01.04.01.01s.01.01.01.02l1.6 2.15V5.3c0-.09.07-.16.16-.16h.56c.09 0 .16.07.16.16v3.48zm3.09-2.92c0 .09-.07.16-.16.16H11.8v.59h1.52c.09 0 .16.07.16.16v.56c0 .09-.07.15-.16.15H11.8v.59h1.52c.09 0 .16.07.16.16v.56c0 .09-.07.16-.16.16h-2.24a.21.21 0 0 1-.11-.04.15.15 0 0 1-.04-.11V5.3c0-.04.02-.08.04-.11a.15.15 0 0 1 .11-.04h2.24c.09 0 .16.07.16.16v.55z" style="fill:#33383d"/></svg>