<svg version="1.1" id="FNL_OL" xmlns="http://www.w3.org/2000/svg" x="0" y="0" viewBox="0 0 16 16" style="enable-background:new 0 0 16 16" xml:space="preserve"><style>.st0{fill:#33383d}</style><path class="st0" d="M7.39 16c-.19 0-.38-.07-.53-.22a.754.754 0 0 1 0-1.06l2.5-2.5a.71.71 0 0 1 .53-.22H12a2.5 2.5 0 0 0 2.5-2.5V4A2.5 2.5 0 0 0 12 1.5H4A2.5 2.5 0 0 0 1.5 4v5.5C1.5 10.87 2.62 12 4 12h2.62c.41 0 .75.34.75.75s-.33.75-.74.75H4c-2.21 0-4-1.79-4-4V4c0-2.21 1.8-4 4-4h8c2.21 0 4 1.79 4 4v5.5c0 2.21-1.79 4-4 4h-1.8l-2.28 2.28c-.15.14-.34.22-.53.22z"/><path class="st0" d="M4.56 6.24c-.39-.33-.73-.62-.73-.99 0-.3.14-.47.4-.47.12 0 .39.05.43.54 0 .01.01.02.01.03s.03.01.04 0l.84-.09c.02 0 .04-.02.04-.04-.09-.8-.57-1.29-1.27-1.29-.9 0-1.41.48-1.41 1.33 0 .83.55 1.29 1.04 1.7.41.34.76.64.76 1.08 0 .27-.17.43-.48.43-.28 0-.46-.27-.49-.74 0-.01-.01-.02-.01-.03-.01-.01-.02-.02-.03-.01l-.85.12c-.02 0-.04.02-.03.04.03.73.47 1.47 1.37 1.47.89 0 1.44-.52 1.44-1.36 0-.8-.57-1.29-1.07-1.72zM8.62 4c-.02 0-.04.01-.04.03l-.6 2.87-.6-2.87c0-.02-.02-.03-.04-.03H6.18c-.02 0-.04.02-.04.04v5.17c0 .02.02.04.04.04h.77c.02 0 .04-.02.04-.04v-3.7l.74 3.71c0 .02.02.03.04.03h.43c.02 0 .04-.01.04-.03l.74-3.71v3.7c0 .02.02.04.04.04h.77c.02 0 .04-.02.04-.04V4.04C9.82 4.02 9.81 4 9.78 4H8.62zM12.07 6.24c-.39-.33-.73-.62-.73-.99 0-.3.14-.47.4-.47.12 0 .39.05.43.54 0 .01.01.02.01.03s.02.01.03.01l.84-.09c.02 0 .04-.02.04-.04-.09-.79-.57-1.29-1.27-1.29-.9 0-1.41.48-1.41 1.33 0 .83.55 1.29 1.04 1.7.41.34.76.64.76 1.08 0 .27-.17.43-.48.43-.28 0-.46-.27-.49-.74 0-.01-.01-.02-.02-.03-.01-.01-.02-.01-.03-.01l-.84.12c-.02 0-.04.02-.03.04.03.73.47 1.47 1.37 1.47.89 0 1.44-.52 1.44-1.36.01-.81-.56-1.3-1.06-1.73z"/></svg>