<svg xmlns="http://www.w3.org/2000/svg" viewBox="0 0 16 16" style="enable-background:new 0 0 16 16" xml:space="preserve"><style>.st0{display:none}.st10,.st11{fill-rule:evenodd;clip-rule:evenodd;fill:#33383d}.st11{fill:#fefefe}</style><g id="Genesys"><circle transform="rotate(-76.438 8 8)" class="st10" cx="8" cy="8" r="8"/><path class="st11" d="M11.79 12.76c-.26 0-.52-.01-.78 0-.12 0-.16-.03-.16-.16-.03-1.46-.44-2.81-1.26-4.02-1.25-1.84-2.98-2.94-5.17-3.31-.34-.06-.68-.08-1.02-.08-.11 0-.13-.04-.13-.14 0-.54.01-1.08 0-1.62 0-.11.04-.13.14-.13 4.24.07 7.87 2.92 8.99 6.95.21.78.32 1.57.34 2.37 0 .11-.03.15-.14.14-.27-.01-.54 0-.81 0z"/><path class="st11" d="M8.62 12.76c-.25 0-.51-.01-.76 0-.12 0-.15-.03-.15-.15a4.46 4.46 0 0 0-4.32-4.29c-.09 0-.12-.02-.12-.11 0-.54.01-1.07 0-1.61 0-.12.06-.11.14-.11.97.02 1.89.25 2.75.71 1.9 1.03 3.01 2.62 3.33 4.76.03.23.05.45.05.68 0 .09-.03.12-.12.12-.27-.01-.53 0-.8 0z"/><path class="st11" d="M3.27 11.47c0-.72.57-1.3 1.29-1.3.71 0 1.3.58 1.3 1.29 0 .72-.57 1.3-1.29 1.3-.72 0-1.3-.57-1.3-1.29z"/></g></svg>