<svg xmlns="http://www.w3.org/2000/svg" viewBox="0 0 16 16" style="enable-background:new 0 0 16 16" xml:space="preserve"><style>.st0{display:none}.st10{fill:#33383d}</style><g id="Genesys"><path class="st10" d="M6.63 13.25C2.97 13.25 0 10.28 0 6.63S2.97 0 6.63 0c3.65 0 6.62 2.97 6.62 6.62s-2.97 6.63-6.62 6.63zm0-11.75C3.8 1.5 1.5 3.8 1.5 6.63s2.3 5.12 5.12 5.12 5.12-2.3 5.12-5.12S9.45 1.5 6.63 1.5zM15.25 16c-.19 0-.38-.07-.53-.22l-2.7-2.7c-.29-.29-.29-.77 0-1.06s.77-.29 1.06 0l2.7 2.7c.29.29.29.77 0 1.06-.15.15-.34.22-.53.22z"/></g></svg>