<svg version="1.1" id="FNL_OL" xmlns="http://www.w3.org/2000/svg" x="0" y="0" viewBox="0 0 16 16" style="enable-background:new 0 0 16 16" xml:space="preserve"><style></style><path d="M15.78.22a.735.735 0 0 0-.82-.16L3.23 5.04a.75.75 0 0 0-.4.98c.16.38.6.56.98.4L12 2.95 6.15 8.79 1.09 6.23a.75.75 0 0 0-1.01.33c-.18.37-.04.82.33 1.01l5.32 2.69 2.69 5.32c.14.26.4.42.68.42h.03c.29-.01.55-.19.67-.46l6.15-14.5c.11-.28.05-.61-.17-.82zM9.04 13.47 7.21 9.85 13.06 4l-4.02 9.47z" style="fill:#33383d"/></svg>