<svg xmlns="http://www.w3.org/2000/svg" viewBox="0 0 16 16" style="enable-background:new 0 0 16 16" xml:space="preserve"><style>.st0{display:none}.st4{fill:none;stroke:#33383d;stroke-width:1.5;stroke-linecap:round;stroke-linejoin:round;stroke-miterlimit:10}.st4,.st6{display:inline}.st6,.st8{fill:#33383d}</style><g id="Genesys"><path class="st8" d="M15.25 0H.75C.34 0 0 .33 0 .75V11.5c0 .41.34.75.75.75h14.5c.41 0 .75-.34.75-.75V.75c0-.42-.34-.75-.75-.75zm-.75 1.5v3.87h-13V1.5h13zm-13 9.25V6.87h13v3.88h-13zM15.25 14.5h-6.5V14c0-.41-.34-.75-.75-.75s-.75.34-.75.75v.5H.75a.749.749 0 1 0 0 1.5h14.5c.41 0 .75-.34.75-.75s-.34-.75-.75-.75z"/><circle class="st8" cx="12" cy="8.81" r="1"/><circle class="st8" cx="12" cy="3.43" r="1"/></g></svg>