<svg xmlns="http://www.w3.org/2000/svg" viewBox="0 0 16 16" style="enable-background:new 0 0 16 16" xml:space="preserve"><style>.st0{display:none}.st8{fill:#33383d}</style><g id="Genesys"><path class="st8" d="M8 11.25a3.256 3.256 0 0 1-3.13-4.14c.11-.4.53-.63.93-.52.4.11.63.53.52.93-.05.15-.07.31-.07.48 0 .96.79 1.75 1.75 1.75S9.75 8.96 9.75 8 8.96 6.25 8 6.25c-.16 0-.32.02-.48.07-.4.11-.81-.12-.93-.52s.12-.81.52-.93A3.256 3.256 0 0 1 11.25 8c0 1.79-1.46 3.25-3.25 3.25z"/><path class="st8" d="M8.66 16H7.6c-.99 0-1.83-.71-2.04-1.71l-.09-.46a.556.556 0 0 0-.29-.38c-.19-.1-.38-.21-.56-.33-.04-.03-.15-.09-.25-.06l-.9.3c-.78.26-1.65-.07-2.07-.79l-.66-1.14c-.41-.71-.26-1.63.36-2.18l.59-.52c.13-.11.19-.27.19-.44 0-.09-.01-.19-.01-.29 0-.09 0-.18.01-.28a.531.531 0 0 0-.19-.44l-.6-.53C.48 6.21.33 5.29.74 4.57l.53-.92c.5-.86 1.53-1.23 2.5-.91l.44.15c.16.05.33.03.47-.06.19-.12.38-.23.57-.32.05-.02.15-.09.18-.19l.2-.92C5.79.59 6.51 0 7.34 0H8.4c.99 0 1.83.71 2.04 1.71l.09.46c.03.16.14.3.29.38.2.1.38.21.56.33.04.03.16.09.25.06l.9-.3c.79-.26 1.65.07 2.07.79l.66 1.14c.41.71.27 1.63-.35 2.18l-.59.53c-.13.11-.19.27-.19.44 0 .09.01.18.01.28 0 .09 0 .18-.01.28-.01.17.06.33.19.45l.59.53c.62.55.77 1.47.35 2.18l-.66 1.14c-.41.71-1.28 1.05-2.06.79l-.9-.3c-.1-.03-.21.03-.25.06-.21.14-.42.26-.64.37-.04.02-.15.09-.17.19l-.19.93c-.18.79-.9 1.38-1.73 1.38zm-4.23-4.45c.35 0 .7.11 1.02.32.13.09.28.17.42.25.55.29.94.8 1.07 1.41l.09.46c.07.31.29.51.57.51h1.06c.12 0 .22-.08.25-.2l.19-.93c.11-.53.46-.97.97-1.23.17-.08.33-.18.49-.28.48-.32 1.04-.4 1.55-.23l.9.3c.11.04.24-.01.3-.11l.66-1.14c.06-.1.04-.23-.05-.31l-.59-.53a2.04 2.04 0 0 1-.69-1.63v-.42c-.03-.62.22-1.22.69-1.63l.59-.53c.09-.08.11-.21.05-.31l-.67-1.14a.252.252 0 0 0-.3-.11l-.9.3c-.51.17-1.08.08-1.55-.23-.14-.09-.28-.17-.43-.25a2.11 2.11 0 0 1-1.06-1.42l-.09-.45c-.07-.32-.29-.52-.57-.52H7.34c-.12 0-.22.08-.25.2l-.19.92c-.1.53-.46.98-.97 1.23a3.7 3.7 0 0 0-.43.25c-.52.33-1.16.41-1.76.22l-.44-.15c-.3-.1-.59-.01-.73.24l-.53.91c-.06.1-.04.24.05.31l.59.53c.47.41.72 1.01.69 1.63v.43c.03.61-.22 1.21-.69 1.62l-.59.52c-.09.09-.11.22-.05.32l.66 1.14c.06.1.18.15.3.11l.9-.3c.17-.05.35-.08.53-.08z"/></g></svg>