<svg xmlns="http://www.w3.org/2000/svg" viewBox="0 0 16 16" style="enable-background:new 0 0 16 16" xml:space="preserve"><style>.st0{display:none}.st4{display:inline;fill:none;stroke:#33383d;stroke-width:1.5;stroke-linecap:round;stroke-linejoin:round;stroke-miterlimit:10}.st8{fill:#33383d}</style><g id="Genesys"><path class="st8" d="M12.94 9.88c-.92 0-1.74.42-2.3 1.07l-4.6-2.3a3.06 3.06 0 0 0-2.99-3.71A3.07 3.07 0 0 0 0 8c0 1.68 1.37 3.06 3.06 3.06.92 0 1.74-.42 2.3-1.07l4.6 2.3A3.06 3.06 0 0 0 12.95 16c1.69 0 3.05-1.38 3.05-3.06s-1.38-3.06-3.06-3.06zm-9.88-.32C2.2 9.56 1.5 8.86 1.5 8c0-.86.7-1.56 1.56-1.56.86 0 1.56.7 1.56 1.56-.01.86-.7 1.56-1.56 1.56zm9.88 4.93c-.86 0-1.56-.7-1.56-1.56s.7-1.56 1.56-1.56 1.56.7 1.56 1.56-.7 1.56-1.56 1.56z"/><path class="st8" d="M7.18 6.69c.11 0 .23-.03.33-.08l3.13-1.56c.56.64 1.38 1.06 2.3 1.06C14.62 6.1 16 4.73 16 3.05a3.06 3.06 0 1 0-6.12 0c0 .23.03.45.08.66L6.85 5.26c-.37.19-.52.64-.34 1.01.13.26.4.42.67.42zm5.76-5.2c.86 0 1.56.7 1.56 1.56 0 .86-.7 1.56-1.56 1.56s-1.56-.7-1.56-1.56c0-.86.7-1.56 1.56-1.56z"/></g></svg>