<svg xmlns="http://www.w3.org/2000/svg" viewBox="0 0 16 16" style="enable-background:new 0 0 16 16" xml:space="preserve"><style>.st0{display:none}.st3{display:inline;fill:none;stroke:#33383d;stroke-width:1.5;stroke-linecap:round;stroke-linejoin:round;stroke-miterlimit:10}.st11{fill:#33383d}</style><g id="Genesys"><path class="st11" d="M14.5 16H9.75c-.41 0-.75-.34-.75-.75v-2H7v2c0 .41-.33.75-.75.75H1.5c-.41 0-.75-.34-.75-.75V.75c0-.42.33-.75.75-.75h13c.41 0 .75.34.75.75v11.99c0 .41-.34.75-.75.75s-.75-.34-.75-.75V1.5H2.25v13H5.5v-2c0-.41.34-.75.75-.75h3.5c.41 0 .75.34.75.75v2h4a.749.749 0 1 1 0 1.5z"/><path class="st11" d="M11.5 4.25h-7a.749.749 0 1 1 0-1.5h7.01c.41 0 .75.34.75.75s-.34.75-.76.75zM11.5 10.25h-7a.749.749 0 1 1 0-1.5h7.01c.41 0 .75.34.75.75s-.34.75-.76.75zM11.5 7.25h-7a.749.749 0 1 1 0-1.5h7.01c.41 0 .75.34.75.75s-.34.75-.76.75z"/></g></svg>