<svg version="1.1" id="FNL_OL" xmlns="http://www.w3.org/2000/svg" x="0" y="0" viewBox="0 0 16 16" style="enable-background:new 0 0 16 16" xml:space="preserve"><style>.st0{fill:#33383d}</style><path class="st0" d="M4.84 9.9c.15.15.34.22.53.22s.38-.07.53-.22L8 7.8l2.09 2.09c.15.15.34.22.53.22s.38-.07.53-.22c.29-.29.29-.77 0-1.06L9.06 6.74l2.09-2.09c.29-.29.29-.77 0-1.06s-.77-.29-1.06 0L8 5.68 5.91 3.59c-.29-.29-.77-.29-1.06 0s-.29.77 0 1.06l2.09 2.09-2.1 2.1c-.29.29-.29.77 0 1.06z"/><path class="st0" d="M12 0H4C1.8 0 0 1.79 0 4v5.5c0 2.21 1.79 4 4 4h2.62c.41 0 .75-.34.75-.75S7.04 12 6.63 12H4a2.5 2.5 0 0 1-2.5-2.5V4A2.5 2.5 0 0 1 4 1.5h8A2.5 2.5 0 0 1 14.5 4v5.5A2.5 2.5 0 0 1 12 12H9.89c-.2 0-.39.08-.53.22l-2.5 2.5c-.29.29-.29.77 0 1.06.15.14.34.22.53.22s.38-.07.53-.22l2.28-2.28H12c2.21 0 4-1.79 4-4V4c0-2.21-1.8-4-4-4z"/></svg>