<svg xmlns="http://www.w3.org/2000/svg" viewBox="0 0 16 16" style="enable-background:new 0 0 16 16" xml:space="preserve"><style>.st0{display:none}</style><path d="M14.6 9.75h-3.51c-.64-.4-1.03-1.09-1.03-1.85 0-.73.3-1.15.67-1.68.49-.69 1.1-1.54.92-3.09C11.44 1.35 9.9 0 8.07 0 6.08 0 4.4 1.58 4.33 3.52c-.05 1.31.5 2.08.95 2.7.37.53.67.94.67 1.68 0 .59-.24 1.14-.67 1.56-.2.19-.49.29-.79.29H1.4c-.77 0-1.4.63-1.4 1.4v3.45c0 .77.63 1.4 1.4 1.4h13.2c.77 0 1.4-.63 1.4-1.4v-3.45c0-.77-.63-1.4-1.4-1.4zm-.11 4.75h-13v-3.25h2.98c.7 0 1.35-.25 1.83-.71.74-.7 1.15-1.64 1.15-2.64 0-1.22-.53-1.95-.95-2.55-.39-.55-.7-.98-.67-1.78.04-1.14 1.05-2.07 2.24-2.07 1.07 0 1.96.78 2.08 1.81.11.98-.21 1.43-.65 2.05-.42.59-.95 1.32-.95 2.54 0 .67.18 1.3.5 1.85h-.77c-.41 0-.75.34-.75.75s.34.75.75.75h6.22l-.01 3.25z" style="fill:#33383d" id="Genesys"/></svg>