<svg xmlns="http://www.w3.org/2000/svg" viewBox="0 0 16 16" style="enable-background:new 0 0 16 16" xml:space="preserve"><style>.st0{display:none}.st8{fill:#33383d}.st13{display:inline;fill:none;stroke:#33383d;stroke-width:1.5;stroke-linecap:round;stroke-miterlimit:10}</style><g id="Genesys"><path class="st8" d="M8 12.25c-2.34 0-4.25-1.91-4.25-4.25S5.66 3.75 8 3.75 12.25 5.66 12.25 8 10.34 12.25 8 12.25zm0-7C6.48 5.25 5.25 6.48 5.25 8S6.48 10.75 8 10.75 10.75 9.52 10.75 8 9.52 5.25 8 5.25zM8 2.49c-.41 0-.75-.34-.75-.75V.75C7.25.34 7.59 0 8 0s.75.34.75.75v.98c0 .42-.34.76-.75.76zM3.57 4.32c-.19 0-.38-.07-.53-.22l-.7-.7a.754.754 0 0 1 0-1.06c.29-.29.77-.29 1.06 0l.7.7c.29.29.29.77 0 1.06-.15.15-.34.22-.53.22zM1.73 8.75H.75a.749.749 0 1 1 0-1.5h.98a.749.749 0 1 1 0 1.5zM2.87 13.88c-.19 0-.38-.07-.53-.22a.754.754 0 0 1 0-1.06l.7-.7c.29-.29.77-.29 1.06 0s.29.77 0 1.06l-.7.7a.75.75 0 0 1-.53.22zM8 16c-.41 0-.75-.34-.75-.75v-.98c0-.41.34-.75.75-.75s.75.34.75.75v.98c0 .42-.34.75-.75.75zM13.13 13.88c-.19 0-.38-.07-.53-.22l-.7-.7c-.29-.29-.29-.77 0-1.06s.77-.29 1.06 0l.7.7c.29.29.29.77 0 1.06-.15.14-.34.22-.53.22zM15.25 8.75h-.98c-.41 0-.75-.34-.75-.75s.34-.75.75-.75h.98c.41 0 .75.34.75.75s-.34.75-.75.75zM12.43 4.32c-.19 0-.38-.07-.53-.22a.754.754 0 0 1 0-1.06l.7-.7c.29-.29.77-.29 1.06 0 .29.29.29.77 0 1.06l-.7.7c-.15.15-.34.22-.53.22z"/></g></svg>