<svg xmlns="http://www.w3.org/2000/svg" viewBox="0 0 16 16" style="enable-background:new 0 0 16 16" xml:space="preserve"><style>.st0{display:none}.st3{display:inline;fill:none;stroke:#33383d;stroke-width:1.5;stroke-linecap:round;stroke-linejoin:round;stroke-miterlimit:10}.st11{fill:#33383d}</style><g id="Genesys"><path class="st11" d="M15.25 12.5H14v-1.25c0-.41-.34-.75-.75-.75s-.75.34-.75.75v1.25h-1.25c-.41 0-.75.34-.75.75s.34.75.75.75h1.25v1.25a.749.749 0 1 0 1.5 0V14h1.25c.41 0 .75-.34.75-.75s-.34-.75-.75-.75zM15.34 6.16V2.08c0-1.14-.93-2.07-2.07-2.07H9.19c-.55 0-1.07.21-1.46.61L.61 7.73C.21 8.12 0 8.64 0 9.2c0 .55.22 1.07.61 1.46l4.08 4.08c.4.4.93.6 1.46.6.53 0 1.06-.2 1.46-.6l7.12-7.12c.4-.39.61-.91.61-1.46zm-1.5 0c0 .15-.06.29-.17.4l-7.12 7.12c-.21.21-.59.22-.8 0L1.67 9.6a.56.56 0 0 1-.17-.4c0-.15.06-.29.17-.4l7.12-7.12a.56.56 0 0 1 .4-.17h4.08c.31 0 .57.25.57.57v4.08z"/><circle class="st11" cx="11.34" cy="4" r="1"/></g></svg>