<svg xmlns="http://www.w3.org/2000/svg" viewBox="0 0 16 16" style="enable-background:new 0 0 16 16" xml:space="preserve"><style>.st0{display:none}.st11{fill:#33383d}</style><g id="Genesys"><path class="st11" d="M6.15 15.35c-.53 0-1.06-.2-1.46-.6L.61 10.67C.21 10.27 0 9.75 0 9.2c0-.55.22-1.07.61-1.46L7.73.62c.39-.39.91-.61 1.46-.61h4.08c1.14 0 2.07.93 2.07 2.07v4.08c0 .55-.21 1.07-.6 1.46l-7.12 7.12c-.41.41-.94.61-1.47.61zM9.19 1.51a.56.56 0 0 0-.4.17L1.67 8.79a.566.566 0 0 0 0 .81l4.08 4.08c.21.22.59.21.8 0l7.12-7.12a.56.56 0 0 0 .17-.4V2.08a.57.57 0 0 0-.57-.57H9.19z"/><circle class="st11" cx="11.34" cy="4" r="1"/><path class="st11" d="M15.25 14h-4c-.41 0-.75-.34-.75-.75s.34-.75.75-.75h4c.41 0 .75.34.75.75s-.34.75-.75.75z"/></g></svg>