<svg xmlns="http://www.w3.org/2000/svg" viewBox="0 0 16 16" style="enable-background:new 0 0 16 16" xml:space="preserve"><style>.st0{display:none}.st11{fill:#33383d}</style><g id="Genesys"><path class="st11" d="M6.41 16c-.54 0-1.09-.21-1.51-.62L.62 11.1a2.13 2.13 0 0 1 0-3.01L8.08.63c.4-.4.95-.63 1.51-.63h4.28C15.04 0 16 .96 16 2.13v4.28c0 .56-.23 1.11-.62 1.51l-7.46 7.46c-.42.41-.97.62-1.51.62zM9.59 1.5c-.17 0-.33.07-.45.18L1.68 9.15c-.25.25-.25.65 0 .89l4.28 4.28c.25.25.65.25.89 0l7.46-7.46c.12-.12.18-.28.18-.45V2.13c0-.35-.28-.63-.63-.63H9.59z"/><circle class="st11" cx="12" cy="4" r="1"/></g></svg>