<svg xmlns="http://www.w3.org/2000/svg" viewBox="0 0 16 16" style="enable-background:new 0 0 16 16" xml:space="preserve"><style>.st0{display:none}.st8{fill:#33383d}.st9{fill:#fff}</style><g id="Genesys"><g id="Layer_2_1_"><circle id="circle2_2_" class="st8" cx="8" cy="8" r="8"/></g><g id="Layer_3_2_"><path id="path5_2_" class="st9" d="M3.33 7.93s4-1.64 5.39-2.22c.53-.23 2.34-.97 2.34-.97s.83-.32.76.46c-.02.32-.21 1.46-.39 2.68-.28 1.73-.58 3.63-.58 3.63s-.05.53-.44.62c-.39.09-1.04-.32-1.16-.42-.09-.07-1.73-1.11-2.34-1.62-.16-.12-.34-.4.03-.73.83-.76 1.82-1.71 2.42-2.31.28-.28.55-.92-.6-.14-1.64 1.14-3.26 2.2-3.26 2.2s-.37.23-1.06.02c-.69-.21-1.5-.49-1.5-.49s-.56-.34.39-.71z"/></g></g></svg>