<svg xmlns="http://www.w3.org/2000/svg" viewBox="0 0 16 16" style="enable-background:new 0 0 16 16" xml:space="preserve"><style>.st0{display:none}.st2{display:inline;fill:none;stroke:#33383d;stroke-width:1.5;stroke-linecap:round;stroke-linejoin:round;stroke-miterlimit:10}</style><path d="M15.56 3.36 8.31.06a.746.746 0 0 0-.62 0L.44 3.36a.76.76 0 0 0-.44.69v7.9c0 .29.17.56.44.68l7.25 3.3h.01c.09.04.19.07.3.07s.21-.02.3-.07h.01l7.25-3.3c.27-.12.44-.39.44-.68v-7.9c0-.3-.17-.56-.44-.69zM1.5 4.53 8 1.57l5.44 2.47L8 6.52l-3.96-1.8c-.38-.17-.82 0-.99.37s0 .82.37.99l3.83 1.74v6.25l-5.75-2.6V4.53zm7.25 9.55V7.83l5.75-2.62v6.26l-5.75 2.61z" style="fill:#33383d" id="Genesys"/></svg>