<svg xmlns="http://www.w3.org/2000/svg" viewBox="0 0 16 16" style="enable-background:new 0 0 16 16" xml:space="preserve"><style>.st0{display:none}</style><path d="M15.38 6.26a2.72 2.72 0 0 0-2.1-.99h-3.4c.06-.27.11-.54.14-.82.13-1.08 0-2.14-.39-3.13a2.047 2.047 0 0 0-2.2-1.3c-.94.12-1.68.87-1.78 1.82a4.96 4.96 0 0 1-1.43 2.97c-.04.04-.09.07-.13.11a.758.758 0 0 0-.59-.31H.75c-.42 0-.75.34-.75.75v9.23c0 .41.34.75.75.75H3.5c.41 0 .75-.34.75-.75v-7.9c.37-.24.72-.51 1.03-.82A6.485 6.485 0 0 0 7.14 2c.03-.26.23-.47.49-.5.26-.03.51.11.6.36.3.77.4 1.58.3 2.42-.06.48-.19.97-.41 1.43-.11.23-.09.5.05.72.14.21.38.34.63.34h4.46c.37 0 .71.16.95.45s.33.65.26 1.01l-.89 4.61c-.11.58-.62.99-1.21.99H6a.755.755 0 0 0 0 1.51h6.38c1.3 0 2.43-.93 2.68-2.21l.89-4.61a2.74 2.74 0 0 0-.57-2.26zM2.75 13.84H1.5V6.11h1.25v7.73z" style="fill:#33383d" id="Genesys"/></svg>