<svg xmlns="http://www.w3.org/2000/svg" viewBox="0 0 16 16" style="enable-background:new 0 0 16 16" xml:space="preserve"><style>.st0{display:none}</style><path d="M15.25.66H12.5c-.41 0-.75.34-.75.75v7.9c-.37.24-.72.51-1.03.82a6.486 6.486 0 0 0-1.86 3.86c-.03.26-.23.47-.49.5a.56.56 0 0 1-.6-.36c-.3-.77-.4-1.58-.3-2.42.06-.49.19-.97.41-1.43.11-.23.09-.5-.05-.72a.8.8 0 0 0-.64-.33H2.73c-.37 0-.71-.16-.95-.45s-.33-.65-.26-1.01l.89-4.61c.11-.58.62-.99 1.21-.99H10c.41 0 .75-.34.75-.75S10.41.66 10 .66H3.62c-1.3 0-2.43.93-2.68 2.21L.05 7.48c-.15.81.05 1.63.57 2.26.52.63 1.29.99 2.1.99h3.4c-.06.27-.11.54-.14.82-.13 1.08 0 2.14.39 3.13.31.81 1.08 1.32 1.92 1.32.09 0 .18-.01.27-.02a2.06 2.06 0 0 0 1.79-1.82 4.96 4.96 0 0 1 1.43-2.97c.04-.04.09-.07.13-.11.14.18.34.31.59.31h2.75c.41 0 .75-.34.75-.75V1.41c0-.41-.34-.75-.75-.75zm-.75 9.23h-1.25V2.16h1.25v7.73z" style="fill:#33383d" id="Genesys"/></svg>