<svg xmlns="http://www.w3.org/2000/svg" viewBox="0 0 16 16" style="enable-background:new 0 0 16 16" xml:space="preserve"><style>.st0{display:none}.st3{display:inline}.st4{fill:none;stroke:#33383d;stroke-width:1.5;stroke-linecap:round;stroke-linejoin:round;stroke-miterlimit:10}.st10{fill:#33383d}</style><g id="Genesys"><path class="st10" d="M8 0C3.59 0 0 3.59 0 8c0 2.18.91 4.25 2.45 5.75H1.21c-.41 0-.75.34-.75.75s.34.75.75.75h3.3c.41 0 .75-.34.75-.75v-3.3c0-.41-.34-.75-.75-.75s-.75.34-.75.75v1.71A6.479 6.479 0 0 1 1.5 8c0-3.58 2.92-6.5 6.5-6.5s6.5 2.92 6.5 6.5-2.92 6.5-6.5 6.5c-.41 0-.75.34-.75.75s.34.75.75.75c4.41 0 8-3.59 8-8s-3.59-8-8-8z"/><path class="st10" d="M8 2.75c-.41 0-.75.34-.75.75V8c0 .41.34.75.75.75h3.5c.41 0 .75-.34.75-.75s-.34-.75-.75-.75H8.75V3.5c0-.42-.34-.75-.75-.75z"/></g></svg>