<svg version="1.1" id="FNL_OL" xmlns="http://www.w3.org/2000/svg" x="0" y="0" viewBox="0 0 16 16" style="enable-background:new 0 0 16 16" xml:space="preserve"><style>.st0{fill:#33383d}</style><path class="st0" d="m14.16 2.9 1.62-1.62c.29-.29.29-.77 0-1.06s-.77-.29-1.06 0L.22 14.72c-.29.29-.29.77 0 1.06.15.14.34.22.53.22s.38-.07.53-.22l1.62-1.62A7.941 7.941 0 0 0 8 16c4.41 0 8-3.59 8-8 0-1.89-.65-3.67-1.84-5.1zM14.5 8c0 1.52-.53 2.92-1.41 4.03l-1.61-1.61c.48-.69.77-1.52.77-2.42 0-.88-.27-1.71-.77-2.42l1.61-1.61A6.418 6.418 0 0 1 14.5 8zm-4.11-1.33c.23.4.36.86.36 1.33 0 1.52-1.23 2.75-2.75 2.75-.48 0-.93-.13-1.33-.36l3.72-3.72zm-6.42 6.42 1.61-1.61c.71.49 1.54.77 2.42.77.9 0 1.73-.29 2.42-.77l1.61 1.61a6.47 6.47 0 0 1-8.06 0zM1.42 11.79c.11 0 .21-.02.31-.07.38-.17.54-.62.37-1a6.47 6.47 0 0 1 .81-6.75l1.61 1.61c-.47.68-.76 1.49-.77 2.37 0 .41.33.75.74.76h.01c.41 0 .75-.33.75-.74.02-1.48 1.24-2.71 2.72-2.72.41 0 .75-.34.74-.76 0-.41-.3-.75-.76-.74-.88.01-1.7.3-2.37.77L3.97 2.91A6.47 6.47 0 0 1 8 1.5c.95 0 1.87.2 2.73.6.37.17.82.01 1-.37.17-.38.01-.82-.37-1A8.095 8.095 0 0 0 8 0C3.59 0 0 3.59 0 8c0 1.17.25 2.3.74 3.36.12.27.4.43.68.43z"/></svg>