<svg xmlns="http://www.w3.org/2000/svg" viewBox="0 0 16 16" style="enable-background:new 0 0 16 16" xml:space="preserve"><path d="M4.14 15.71c-.36 0-.72-.11-1.03-.34-.59-.43-.85-1.16-.66-1.87l.85-3.19c.03-.09-.01-.2-.08-.26L.65 7.97c-.57-.46-.79-1.21-.56-1.9.22-.69.84-1.17 1.57-1.21l3.3-.18c.1-.01.18-.07.22-.16l1.19-3.08C6.63.76 7.27.32 8 .32c.73 0 1.37.44 1.63 1.12l1.19 3.08c.04.09.12.15.22.16l3.3.18c.73.04 1.35.51 1.57 1.21.23.69.01 1.44-.56 1.9l-2.57 2.08c-.08.06-.11.16-.08.26l.58 2.19c.11.4-.13.81-.53.92-.4.1-.81-.13-.92-.53l-.58-2.19c-.18-.67.05-1.38.59-1.81l2.57-2.08c.11-.09.1-.2.08-.27-.02-.07-.08-.17-.22-.17l-3.3-.18c-.69-.04-1.29-.48-1.54-1.12l-1.2-3.09c-.1-.26-.36-.27-.47 0L6.58 5.07c-.25.64-.85 1.08-1.54 1.12l-3.3.18c-.14.01-.2.1-.22.17-.03.07-.03.18.08.27l2.57 2.08c.53.43.77 1.14.59 1.81l-.86 3.19c-.04.14.03.22.09.27.06.05.16.08.28.01l2.77-1.8c.58-.38 1.33-.38 1.9 0l2.9 1.88c.35.23.45.69.22 1.04-.23.35-.69.45-1.04.22l-2.9-1.88a.262.262 0 0 0-.27 0l-2.77 1.8c-.28.18-.61.28-.94.28z" style="fill:#33383d"/></svg>