<svg xmlns="http://www.w3.org/2000/svg" viewBox="0 0 16 16" style="enable-background:new 0 0 16 16" xml:space="preserve"><style>.st0{display:none}.st3{display:inline}.st11{fill:none;stroke:#33383d;stroke-width:1.5;stroke-linejoin:round;stroke-miterlimit:10}</style><path d="M11.91 15.98c-.55 0-1.1-.12-1.62-.37a21.243 21.243 0 0 1-5.78-4.13A21.29 21.29 0 0 1 .38 5.69C-.39 4.1.08 2.14 1.5 1.03l.7-.54c.94-.73 2.29-.67 3.13.16.53.52 1.02 1.09 1.47 1.69.54.73.61 1.68.18 2.59l-.42.9c-.22.47-.14 1.03.21 1.42.31.34.62.68.96 1.02.32.33.66.65 1.01.95.39.34.94.42 1.42.2l1.04-.49c.8-.37 1.73-.28 2.44.25.6.44 1.17.94 1.7 1.47.85.87.88 2.2.07 3.24l-.46.59a3.84 3.84 0 0 1-3.04 1.5zM3.68 1.48c-.2 0-.39.06-.56.19l-.7.54c-.87.68-1.16 1.87-.69 2.83.96 1.98 2.25 3.79 3.84 5.38 1.59 1.59 3.4 2.88 5.38 3.84.96.47 2.15.18 2.82-.69l.46-.59c.34-.44.36-.95.04-1.27-.47-.48-.98-.92-1.52-1.32a.899.899 0 0 0-.92-.09l-1.04.49c-1.02.47-2.21.3-3.05-.44-.37-.33-.73-.67-1.08-1.02-.35-.36-.69-.72-1.02-1.09A2.8 2.8 0 0 1 5.2 5.2l.42-.9c.13-.29.24-.71-.03-1.06a11.9 11.9 0 0 0-1.32-1.51.794.794 0 0 0-.59-.25z" style="fill:#33383d" id="Genesys"/></svg>