<svg xmlns="http://www.w3.org/2000/svg" viewBox="0 0 16 16" style="enable-background:new 0 0 16 16" xml:space="preserve"><style>.st0{display:none}.st1{display:inline;fill:none;stroke:#33383d;stroke-width:1.5;stroke-linecap:round;stroke-linejoin:round;stroke-miterlimit:10}</style><path d="M9.98 16H1.41c-.28 0-.53-.15-.66-.4s-.11-.54.04-.77l1.76-2.57A6.002 6.002 0 0 1 0 7.34V6.02C0 2.7 2.7 0 6.02 0h3.96C13.3 0 16 2.7 16 6.02v3.96C16 13.3 13.3 16 9.98 16zm-7.15-1.5h7.14c2.49 0 4.52-2.03 4.52-4.52V6.02c0-2.49-2.03-4.52-4.52-4.52H6.02C3.53 1.5 1.5 3.53 1.5 6.02v1.32c0 1.7.94 3.24 2.46 4.02.19.1.33.27.38.48s.01.43-.11.61l-1.4 2.05z" style="fill:#33383d" id="Genesys"/></svg>