<svg version="1.1" id="Genesys" xmlns="http://www.w3.org/2000/svg" x="0" y="0" viewBox="0 0 16 16" style="enable-background:new 0 0 16 16" xml:space="preserve"><style>.st0{fill:#33383d}</style><path class="st0" d="M.75 12.46c.41 0 .75-.34.75-.75V3.98c0-.28.22-.5.5-.5h7.73c.41 0 .75-.34.75-.75s-.34-.75-.75-.75H2c-1.1 0-2 .9-2 2v7.73c0 .42.34.75.75.75zM15.22 4.74a1.76 1.76 0 0 0-1.65-.15L12 5.26v-.2l3.78-3.78c.29-.29.29-.77 0-1.06s-.77-.29-1.06 0L.22 14.72c-.29.29-.29.77 0 1.06.15.15.34.22.53.22s.38-.07.53-.22l1.76-1.76H10c1.1 0 2-.9 2-2v-1.28l1.57.67c.54.23 1.16.17 1.65-.15.49-.33.78-.88.78-1.47V6.2c0-.59-.29-1.13-.78-1.46zM10 12.52H4.54l5.96-5.96v5.46c0 .28-.23.5-.5.5zm4.5-2.73c0 .12-.07.18-.11.21-.04.03-.12.07-.24.02L12 9.11V6.89l2.15-.92a.25.25 0 0 1 .35.23v3.59z"/></svg>