<svg version="1.1" id="Genesys" xmlns="http://www.w3.org/2000/svg" x="0" y="0" viewBox="0 0 16 16" style="enable-background:new 0 0 16 16" xml:space="preserve"><style>.st0{fill:#33383d}</style><path class="st0" d="M5.5 7.25H1.75C.79 7.25 0 6.46 0 5.5V1.75C0 .78.79 0 1.75 0H5.5c.96 0 1.75.79 1.75 1.75V5.5c0 .96-.79 1.75-1.75 1.75zM1.75 1.5c-.14 0-.25.11-.25.25V5.5c0 .14.11.25.25.25H5.5c.14 0 .25-.11.25-.25V1.75c0-.14-.11-.25-.25-.25H1.75zM13 7.25h-2.5c-.96 0-1.75-.79-1.75-1.75V3c0-.96.79-1.75 1.75-1.75H13c.96 0 1.75.79 1.75 1.75v2.5c0 .96-.78 1.75-1.75 1.75zm-2.5-4.5c-.14 0-.25.11-.25.25v2.5c0 .14.11.25.25.25H13c.14 0 .25-.11.25-.25V3c0-.14-.11-.25-.25-.25h-2.5zM5.5 14.75H3c-.96 0-1.75-.79-1.75-1.75v-2.5c0-.96.79-1.75 1.75-1.75h2.5c.96 0 1.75.79 1.75 1.75V13c0 .97-.78 1.75-1.75 1.75zM3 10.25c-.14 0-.25.11-.25.25V13c0 .14.11.25.25.25h2.5c.14 0 .25-.11.25-.25v-2.5c0-.14-.11-.25-.25-.25H3zM14.25 16H10.5c-.96 0-1.75-.79-1.75-1.75V10.5c0-.96.79-1.75 1.75-1.75h3.75c.96 0 1.75.79 1.75 1.75v3.75c0 .96-.79 1.75-1.75 1.75zm-3.75-5.75c-.14 0-.25.11-.25.25v3.75c0 .14.11.25.25.25h3.75c.14 0 .25-.11.25-.25V10.5c0-.14-.11-.25-.25-.25H10.5z"/></svg>