<svg version="1.1" id="Genesys" xmlns="http://www.w3.org/2000/svg" x="0" y="0" viewBox="0 0 16 16" style="enable-background:new 0 0 16 16" xml:space="preserve"><style>.st1{fill:#fff}</style><circle cx="8" cy="8" r="8" style="fill:#33383d"/><path class="st1" d="M8 10c-.28 0-.5-.22-.5-.5v-.16c0-1.18.79-1.76 1.42-2.22C9.59 6.64 10 6.3 10 5.55 10 4.68 9.09 4 7.93 4c-1 0-1.8.62-1.93 1.52-.04.27-.3.45-.57.42a.505.505 0 0 1-.42-.57C5.21 4 6.44 3 7.93 3 9.65 3 11 4.12 11 5.55c0 1.3-.83 1.9-1.49 2.38-.65.47-1.01.77-1.01 1.41v.16c0 .28-.22.5-.5.5z"/><circle class="st1" cx="8" cy="12" r=".87"/></svg>