<svg version="1.1" id="Genesys" xmlns="http://www.w3.org/2000/svg" x="0" y="0" viewBox="0 0 16 16" style="enable-background:new 0 0 16 16" xml:space="preserve"><style>.st0{fill:#33383d}</style><path class="st0" d="M10.14 16c-.48 0-.96-.1-1.42-.32-1.8-.87-3.45-2.05-4.9-3.5s-2.63-3.1-3.5-4.9c-.67-1.39-.26-3.1.97-4.07l.59-.46c.84-.66 2.04-.59 2.79.14.45.45.88.93 1.25 1.44.48.65.54 1.49.17 2.3l-.34.76c-.17.35-.11.77.15 1.06.25.29.52.58.8.85.28.28.56.54.85.8.29.26.71.32 1.07.15l.88-.41c.71-.33 1.55-.25 2.18.22.51.38.99.8 1.44 1.25.76.77.79 1.96.07 2.88l-.39.5c-.66.85-1.65 1.31-2.66 1.31zM3.21 3.79a.67.67 0 0 0-.4.14l-.59.46c-.68.53-.91 1.47-.54 2.23.8 1.65 1.88 3.16 3.21 4.49s2.84 2.41 4.49 3.21c.76.36 1.7.14 2.23-.54l.39-.5c.25-.32.27-.68.04-.91-.39-.4-.82-.77-1.26-1.1a.653.653 0 0 0-.66-.07l-.88.41c-.9.42-1.95.26-2.69-.39a18.396 18.396 0 0 1-1.78-1.78c-.65-.74-.81-1.8-.39-2.69L4.74 6c.14-.31.14-.57-.01-.78-.33-.45-.7-.87-1.1-1.26a.607.607 0 0 0-.42-.17z"/><path class="st0" d="M9.74 8.75c-.41 0-.75-.34-.75-.75 0-.55-.45-.99-.99-.99-.41 0-.75-.34-.75-.75s.34-.75.75-.75A2.49 2.49 0 0 1 10.49 8c0 .41-.33.75-.75.75z"/><path class="st0" d="M12.5 8.75c-.41 0-.75-.34-.75-.75 0-2.07-1.68-3.75-3.75-3.75-.41 0-.75-.34-.75-.75s.34-.75.75-.75c2.89 0 5.25 2.35 5.25 5.25 0 .41-.34.75-.75.75z"/><path class="st0" d="M15.25 8.75c-.41 0-.75-.34-.75-.75 0-3.58-2.92-6.5-6.5-6.5-.41 0-.75-.34-.75-.75S7.59 0 8 0c4.41 0 8 3.59 8 8 0 .41-.34.75-.75.75z"/></svg>