<svg xmlns="http://www.w3.org/2000/svg" viewBox="0 0 16 16" style="enable-background:new 0 0 16 16" xml:space="preserve"><style>.st0{display:none}.st1{display:inline;fill:none;stroke:#33383d;stroke-width:1.5;stroke-linecap:round;stroke-linejoin:round;stroke-miterlimit:10}.st19{fill:#33383d}</style><g id="Genesys"><path class="st19" d="M9.98 16H.75a.74.74 0 0 1-.69-.46c-.12-.28-.05-.6.16-.82L14.72.22c.29-.29.77-.29 1.06 0s.29.77 0 1.06l-1.05 1.05A5.978 5.978 0 0 1 16 6.02v3.96C16 13.3 13.3 16 9.98 16zm-7.42-1.5h7.42c2.49 0 4.52-2.03 4.52-4.52V6.02c0-.95-.29-1.86-.84-2.62L2.56 14.5zM2 11.49c-.21 0-.42-.09-.57-.26A6.042 6.042 0 0 1 0 7.34V6.02C0 2.7 2.7 0 6.02 0h3.96c.67 0 1.33.11 1.97.33.39.14.6.56.46.95s-.56.6-.95.46a4.68 4.68 0 0 0-1.48-.24H6.02C3.53 1.5 1.5 3.53 1.5 6.02v1.32c0 1.07.38 2.1 1.07 2.91.27.32.23.79-.09 1.06-.14.12-.31.18-.48.18z"/></g></svg>