<svg version="1.1" id="Genesys" xmlns="http://www.w3.org/2000/svg" x="0" y="0" viewBox="0 0 16 16" style="enable-background:new 0 0 16 16" xml:space="preserve"><style>.st0{fill:#33383d}</style><path class="st0" d="M1.75 7.25H5.5c.96 0 1.75-.79 1.75-1.75V1.75C7.25.78 6.46 0 5.5 0H1.75C.79 0 0 .78 0 1.75V5.5c0 .96.79 1.75 1.75 1.75zm-.25-5.5c0-.14.11-.25.25-.25H5.5c.14 0 .25.11.25.25V5.5c0 .14-.11.25-.25.25H1.75c-.14 0-.25-.12-.25-.25V1.75zM13.25 5.5c0 .14-.11.25-.25.25-.41 0-.75.34-.75.75s.34.75.75.75c.96 0 1.75-.79 1.75-1.75a.749.749 0 1 0-1.5 0zM6.5 12.25c-.41 0-.75.34-.75.75 0 .14-.11.25-.25.25-.41 0-.75.34-.75.75s.34.75.75.75c.96 0 1.75-.79 1.75-1.75 0-.41-.34-.75-.75-.75zM14.25 8.75H10.5c-.96 0-1.75.79-1.75 1.75v3.75c0 .96.79 1.75 1.75 1.75h3.75c.96 0 1.75-.79 1.75-1.75V10.5c0-.96-.79-1.75-1.75-1.75zm.25 5.5c0 .14-.11.25-.25.25H10.5c-.14 0-.25-.11-.25-.25V10.5c0-.14.11-.25.25-.25h3.75c.14 0 .25.11.25.25v3.75z"/><path class="st0" d="M15.78.22a.754.754 0 0 0-1.06 0l-1.13 1.13c-.19-.06-.39-.1-.59-.1h-2.5c-.96 0-1.75.78-1.75 1.75v2.5c0 .2.04.4.11.58L6.08 8.86c-.18-.07-.38-.11-.58-.11H3c-.96 0-1.75.79-1.75 1.75V13c0 .2.04.39.1.58L.22 14.71c-.29.29-.29.77 0 1.06.15.15.34.23.53.23s.38-.07.53-.22l14.5-14.5c.29-.29.29-.77 0-1.06zM10.25 3c0-.14.11-.25.25-.25h1.69l-1.94 1.94V3zm-7.5 7.5c0-.14.11-.25.25-.25h1.68l-1.93 1.93V10.5z"/></svg>