<svg xmlns="http://www.w3.org/2000/svg" viewBox="0 0 16 16" style="enable-background:new 0 0 16 16" xml:space="preserve"><path d="M8 0C3.59 0 0 3.59 0 8s3.59 8 8 8 8-3.59 8-8-3.59-8-8-8zm5.09 12.03-2.08-2.09a.754.754 0 0 0-1.06 0c-1.04 1.04-2.85 1.04-3.89 0-.52-.52-.81-1.21-.81-1.94s.29-1.42.81-1.94c1.04-1.04 2.85-1.04 3.89 0 .52.52.81 1.21.81 1.94 0 .09 0 .17-.01.25-.04.41.27.78.68.81.41.04.78-.27.81-.68.01-.13.02-.26.02-.39 0-.88-.27-1.72-.77-2.42l1.61-1.61c.87 1.12 1.4 2.52 1.4 4.04s-.53 2.92-1.41 4.03zm-1.06-9.12-1.61 1.61c-.7-.5-1.54-.77-2.42-.77-.88 0-1.72.27-2.42.77L3.97 2.91A6.47 6.47 0 0 1 8 1.5c1.52 0 2.92.53 4.03 1.41zM2.91 3.97l1.61 1.61c-.5.7-.77 1.54-.77 2.42 0 .88.27 1.72.77 2.42l-1.61 1.61A6.47 6.47 0 0 1 1.5 8c0-1.52.53-2.92 1.41-4.03zm1.06 9.12 1.61-1.61c.71.49 1.54.77 2.42.77.88 0 1.72-.27 2.43-.76l1.6 1.6A6.47 6.47 0 0 1 8 14.5a6.47 6.47 0 0 1-4.03-1.41z" style="fill:#33383d"/></svg>