<svg xmlns="http://www.w3.org/2000/svg" viewBox="0 0 16 16" style="enable-background:new 0 0 16 16" xml:space="preserve"><style>.st0{display:none}.st1{fill:none;stroke:#33383d;stroke-width:1.5;stroke-linecap:round;stroke-linejoin:round;stroke-miterlimit:10}.st1,.st2{display:inline}.st3{fill:none;stroke:#33383d;stroke-width:1.5;stroke-linecap:round;stroke-linejoin:round;stroke-miterlimit:10}.st10{fill:#33383d}</style><g id="Genesys"><path class="st10" d="M11.71 5.25H1.5c-.41 0-.75-.34-.75-.75s.34-.75.75-.75h10.21a.749.749 0 1 1 0 1.5z"/><path class="st10" d="M11.5 8.99c-.19 0-.38-.07-.53-.22a.754.754 0 0 1 0-1.06l3.22-3.22-3.22-3.22c-.29-.29-.29-.77 0-1.06s.77-.29 1.06 0l3.75 3.75c.29.29.29.77 0 1.06l-3.75 3.75a.71.71 0 0 1-.53.22zM14.5 12.25H4.29c-.41 0-.75-.34-.75-.75s.34-.75.75-.75H14.5a.749.749 0 1 1 0 1.5z"/><path class="st10" d="M4.5 16c-.19 0-.38-.07-.53-.22L.22 12.03a.75.75 0 0 1 0-1.06l3.75-3.75c.29-.29.77-.29 1.06 0s.29.77 0 1.06L1.81 11.5l3.22 3.21c.29.29.29.77 0 1.06-.15.15-.34.23-.53.23z"/></g></svg>