<svg xmlns="http://www.w3.org/2000/svg" viewBox="0 0 16 16" style="enable-background:new 0 0 16 16" xml:space="preserve"><style>.st0{display:none}</style><path d="M16 2.78c-.59.26-1.22.44-1.89.52.68-.41 1.2-1.05 1.44-1.82-.63.38-1.34.65-2.08.8a3.282 3.282 0 0 0-5.68 2.24c0 .26.03.51.08.75a9.285 9.285 0 0 1-6.76-3.43C.83 2.33.67 2.89.67 3.49c0 1.14.58 2.14 1.46 2.73-.54-.01-1.04-.16-1.49-.4v.04c0 1.59 1.13 2.92 2.63 3.22-.27.07-.56.11-.86.11-.21 0-.42-.02-.62-.06a3.3 3.3 0 0 0 3.07 2.28 6.59 6.59 0 0 1-4.08 1.41c-.26 0-.53-.02-.78-.05 1.45.93 3.18 1.47 5.03 1.47 6.04 0 9.34-5 9.34-9.34 0-.14 0-.28-.01-.42A6.63 6.63 0 0 0 16 2.78z" style="fill:#33383d" id="Genesys"/></svg>