<svg xmlns="http://www.w3.org/2000/svg" viewBox="0 0 16 16" style="enable-background:new 0 0 16 16" xml:space="preserve"><style>.st0{display:none}.st1,.st8{display:inline;fill:none;stroke:#33383d;stroke-width:1.3;stroke-linecap:round;stroke-linejoin:round;stroke-miterlimit:10}.st8{stroke-width:1.5}</style><path d="M15.25 0H.75C.34 0 0 .33 0 .75v14.5c0 .41.34.75.75.75h10.97c.41 0 .75-.34.75-.75s-.34-.75-.75-.75H2.55L8 9.06l6.72 6.72c.14.14.34.22.53.22a.753.753 0 0 0 .75-.75V.75c0-.42-.34-.75-.75-.75zm-1.8 1.5L8 6.94 2.56 1.5h10.89zM1.5 13.44V2.56L6.94 8 1.5 13.44zm7.56-5.45 5.44-5.44v10.88L9.06 7.99z" style="fill:#33383d" id="Genesys"/></svg>