<svg xmlns="http://www.w3.org/2000/svg" viewBox="0 0 16 16" style="enable-background:new 0 0 16 16" xml:space="preserve"><style>.st0{display:none}.st2{display:inline}.st3{fill:none;stroke:#33383d;stroke-width:1.5;stroke-linecap:round;stroke-linejoin:round;stroke-miterlimit:10}.st8{fill:#33383d}</style><g id="Genesys"><path class="st8" d="M15.78.22a.754.754 0 0 0-1.06 0l-2.47 2.47V2c0-1.1-.9-2-2-2H2C.9 0 0 .9 0 2v8.25c0 1.1.9 2 2 2 .41 0 .75-.34.75-.75s-.34-.75-.75-.75c-.28 0-.5-.22-.5-.5V2c0-.28.22-.5.5-.5h8.25c.28 0 .5.22.5.5v2.19l-5.5 5.5V5.75c0-.28.22-.5.5-.5H9a.749.749 0 1 0 0-1.5H5.75c-1.1 0-2 .9-2 2v5.44L.22 14.72c-.29.29-.29.77 0 1.06.15.15.34.22.53.22s.38-.07.53-.22l14.5-14.5c.29-.29.29-.77 0-1.06zM10.75 8.04v2.21c0 .28-.22.5-.5.5H8.04c-.41 0-.75.34-.75.75s.34.75.75.75h2.21c1.1 0 2-.9 2-2V8.04a.749.749 0 1 0-1.5 0z"/><path class="st8" d="M15.23 4.18c-.33-.26-.8-.2-1.05.13-.26.33-.2.8.13 1.05.12.1.19.24.19.39V14c0 .28-.22.5-.5.5H5.75c-.15 0-.3-.07-.4-.19a.759.759 0 0 0-1.05-.13.75.75 0 0 0-.13 1.05c.39.49.96.77 1.58.77H14c1.1 0 2-.9 2-2V5.75c0-.62-.28-1.19-.77-1.57z"/></g></svg>