<svg xmlns="http://www.w3.org/2000/svg" viewBox="0 0 16 16" style="enable-background:new 0 0 16 16" xml:space="preserve"><style>.st0{display:none}.st2{display:inline}.st9{fill:none;stroke:#33383d;stroke-width:1.5;stroke-linecap:round;stroke-linejoin:round;stroke-miterlimit:10}</style><path d="M13.25 7.75h-6v-2.5c0-.42.33-.75.75-.75s.75.34.75.75v.25c0 .41.34.75.75.75h3c.41 0 .75-.34.75-.75v-.25a5.25 5.25 0 1 0-10.5 0v2.5c-1.1 0-2 .9-2 2V14c0 1.1.9 2 2 2h8c.41 0 .75-.34.75-.75s-.34-.75-.75-.75h-8c-.28 0-.5-.22-.5-.5V9.75c0-.28.22-.5.5-.5h10.5c.28 0 .5.22.5.5V14c0 .28-.22.5-.5.5-.41 0-.75.34-.75.75s.34.75.75.75c1.1 0 2-.9 2-2V9.75c0-1.1-.9-2-2-2zm-9-2.5C4.25 3.18 5.93 1.5 8 1.5c1.9 0 3.47 1.42 3.72 3.25H10.2a2.253 2.253 0 0 0-4.45.5v2.5h-1.5v-2.5z" style="fill:#33383d" id="Genesys"/></svg>