<svg xmlns="http://www.w3.org/2000/svg" viewBox="0 0 16 16" style="enable-background:new 0 0 16 16" xml:space="preserve"><style>.st0{display:none}.st3{display:inline;fill:none;stroke:#33383d;stroke-width:1.5;stroke-linecap:round;stroke-linejoin:round;stroke-miterlimit:10}.st11{fill:#33383d}</style><g id="Genesys"><path class="st11" d="M8 16c-.41 0-.75-.34-.75-.75V7.04c0-.41.34-.75.75-.75s.75.34.75.75v8.21c0 .42-.33.75-.75.75z"/><path class="st11" d="M12.5 8.75c-.19 0-.38-.07-.53-.22L8 4.56 4.03 8.53c-.29.29-.77.29-1.06 0s-.29-.77 0-1.06l4.5-4.5c.29-.29.77-.29 1.06 0l4.5 4.5c.29.29.29.77 0 1.06-.14.15-.34.22-.53.22zM13.93 1.5H2.07a.749.749 0 1 1 0-1.5h11.87c.41 0 .75.34.75.75s-.34.75-.76.75z"/></g></svg>