<svg version="1.1" id="FNL_OL" xmlns="http://www.w3.org/2000/svg" x="0" y="0" viewBox="0 0 16 16" style="enable-background:new 0 0 16 16" xml:space="preserve"><style>.st0{fill:#33383d}</style><path class="st0" d="M8 0C3.59 0 0 3.59 0 8s3.59 8 8 8 8-3.59 8-8-3.59-8-8-8zm0 14.5c-3.58 0-6.5-2.92-6.5-6.5S4.42 1.5 8 1.5s6.5 2.92 6.5 6.5-2.92 6.5-6.5 6.5z"/><path class="st0" d="M8 8.69c1.65 0 3-1.35 3-3s-1.35-3-3-3-3 1.35-3 3 1.35 3 3 3zm0-4.5c.83 0 1.5.67 1.5 1.5s-.67 1.5-1.5 1.5-1.5-.67-1.5-1.5.67-1.5 1.5-1.5zM12.08 10.86A2.725 2.725 0 0 0 9.72 9.5H6.28c-.97 0-1.88.52-2.36 1.36l-.19.33c-.21.36-.09.82.27 1.03.36.21.82.08 1.02-.27l.19-.33c.22-.39.63-.62 1.07-.62h3.45c.44 0 .84.24 1.06.61l.19.33c.14.24.39.38.65.38a.754.754 0 0 0 .65-1.12l-.2-.34z"/></svg>