<svg version="1.1" id="FNL_OL" xmlns="http://www.w3.org/2000/svg" x="0" y="0" viewBox="0 0 16 16" style="enable-background:new 0 0 16 16" xml:space="preserve"><style>.st0{fill:#33383d}</style><path class="st0" d="M10.31 8.5c-2.07 0-3.75-1.68-3.75-3.75S8.24 1 10.31 1s3.75 1.68 3.75 3.75-1.69 3.75-3.75 3.75zm0-6c-1.24 0-2.25 1.01-2.25 2.25S9.07 7 10.31 7s2.25-1.01 2.25-2.25-1.01-2.25-2.25-2.25zM15.25 16c-.33 0-.64-.22-.73-.56l-.75-2.88c-.2-.77-.9-1.31-1.69-1.31H8.53c-.8 0-1.49.54-1.69 1.31l-.75 2.88a.75.75 0 0 1-1.45-.37l.75-2.88a3.254 3.254 0 0 1 3.15-2.43h3.55c1.48 0 2.77 1 3.15 2.43l.75 2.88c.1.4-.14.81-.54.91-.07.01-.14.02-.2.02zM5.71 8.5c-2.07 0-3.75-1.68-3.75-3.75S3.64 1 5.71 1c.41 0 .75.34.75.75s-.34.75-.75.75c-1.24 0-2.25 1.01-2.25 2.25S4.47 7 5.71 7c.41 0 .75.34.75.75s-.34.75-.75.75zM.75 16c-.06 0-.13-.01-.19-.02a.75.75 0 0 1-.54-.91l.75-2.88a3.254 3.254 0 0 1 3.15-2.43c.41 0 .75.34.75.75s-.34.75-.75.75c-.8 0-1.49.54-1.69 1.31l-.75 2.88c-.09.33-.4.55-.73.55z"/></svg>