<svg version="1.1" id="FNL_OL" xmlns="http://www.w3.org/2000/svg" x="0" y="0" viewBox="0 0 16 16" style="enable-background:new 0 0 16 16" xml:space="preserve"><style>.st0{fill:#33383d}</style><path class="st0" d="M13.25.75H2.75C1.23.75 0 1.98 0 3.5v9.09c0 1.52 1.23 2.75 2.75 2.75h7.56c.23 0 .45-.11.59-.29.14-.19.19-.43.13-.65l-.39-1.44a3.253 3.253 0 0 0-3.14-2.41H4.54c-1.36 0-2.57.85-3.04 2.1V3.5c0-.69.56-1.25 1.25-1.25h10.5c.69 0 1.25.56 1.25 1.25v9.09c0 .69-.56 1.25-1.25 1.25h-.64c-.41 0-.75.34-.75.75s.34.75.75.75h.64c1.52 0 2.75-1.23 2.75-2.75V3.5C16 1.98 14.77.75 13.25.75zM2.85 13.34c.2-.76.9-1.3 1.69-1.3H7.5c.79 0 1.49.53 1.69 1.3l.13.5H2.72l.13-.5z"/><path class="st0" d="M2.75 6.24c0 1.79 1.46 3.25 3.25 3.25s3.25-1.46 3.25-3.25S7.79 2.99 6 2.99 2.75 4.44 2.75 6.24zm5 0c0 .96-.79 1.75-1.75 1.75S4.25 7.2 4.25 6.24 5.04 4.49 6 4.49s1.75.78 1.75 1.75zM10.64 11h2.64c.41 0 .75-.34.75-.75s-.34-.75-.75-.75h-2.64a.749.749 0 1 0 0 1.5zM10.64 8.25h2.64c.41 0 .75-.34.75-.75s-.34-.75-.75-.75h-2.64a.749.749 0 1 0 0 1.5z"/></svg>