<svg version="1.1" id="FNL_OL" xmlns="http://www.w3.org/2000/svg" x="0" y="0" viewBox="0 0 16 16" style="enable-background:new 0 0 16 16" xml:space="preserve"><style>.st0{fill:#33383d}</style><path class="st0" d="M6 8.75c-2.21 0-4-1.79-4-4s1.79-4 4-4 4 1.79 4 4-1.79 4-4 4zm0-6.5a2.5 2.5 0 0 0 0 5 2.5 2.5 0 0 0 0-5zM11.25 16c-.33 0-.63-.22-.72-.56l-.7-2.62c-.22-.81-.95-1.37-1.79-1.37H3.97c-.84 0-1.57.56-1.79 1.37l-.7 2.62a.75.75 0 1 1-1.45-.39l.7-2.62a3.352 3.352 0 0 1 3.24-2.48h4.06a3.37 3.37 0 0 1 3.24 2.48l.7 2.62c.11.4-.13.81-.53.92-.06.02-.13.03-.19.03zM15.25 9h-3.5a.749.749 0 1 1 0-1.5h3.5c.41 0 .75.34.75.75s-.34.75-.75.75zM15.25 11.5h-3.5a.749.749 0 1 1 0-1.5h3.5c.41 0 .75.34.75.75s-.34.75-.75.75zM15.25 6.49h-3.5c-.42 0-.75-.33-.75-.75s.34-.75.75-.75h3.5c.41 0 .75.34.75.75s-.34.75-.75.75z"/></svg>