<svg version="1.1" id="FNL_OL" xmlns="http://www.w3.org/2000/svg" x="0" y="0" viewBox="0 0 16 16" style="enable-background:new 0 0 16 16" xml:space="preserve"><style>.st0{fill:#33383d}</style><path class="st0" d="M13.01 6.57A.746.746 0 0 0 12 6.25c-.37.19-.51.64-.32 1.01.32.62.21 1.38-.29 1.87-.29.29-.29.77 0 1.06.15.15.34.22.53.22s.38-.07.53-.22c.97-.96 1.19-2.42.56-3.62z"/><path class="st0" d="M13.8 4.41a.75.75 0 0 0-.15 1.05c1.26 1.67 1.09 4.05-.4 5.54-.29.29-.29.77 0 1.06.15.15.34.22.53.22s.38-.07.53-.22c2.01-2.01 2.24-5.23.53-7.5-.23-.33-.7-.4-1.04-.15zM15.78.22a.754.754 0 0 0-1.06 0L9.98 4.96c0-.07.02-.14.02-.21 0-2.21-1.79-4-4-4s-4 1.79-4 4 1.79 4 4 4c.07 0 .14-.02.21-.02L5.05 9.88H4.01c-1.53 0-2.87 1.03-3.27 2.51l-.71 2.66c-.09.33.06.67.35.84.11.07.24.11.37.11.19 0 .39-.08.53-.22l14.5-14.5c.29-.29.29-.77 0-1.06zM3.5 4.75a2.5 2.5 0 0 1 5 0 2.5 2.5 0 0 1-5 0zm-1.3 7.99c.18-.62.67-1.1 1.28-1.28L2.2 12.74zM11.3 12.39a3.365 3.365 0 0 0-2.58-2.44c-.4-.08-.8.17-.89.58-.08.41.18.8.58.89.7.15 1.25.67 1.44 1.36l.71 2.66c.09.34.39.56.72.56.06 0 .13-.01.19-.03.4-.11.64-.52.53-.92l-.7-2.66z"/></svg>