<svg xmlns="http://www.w3.org/2000/svg" viewBox="0 0 16 16" style="enable-background:new 0 0 16 16" xml:space="preserve"><style>.st0{display:none}.st8{fill:#33383d}.st9{fill:#fff}</style><g id="Genesys"><path class="st8" d="M13.62 1.38C13.25 1.04 11.63.02 8.25.01c0 0-4-.26-5.93 1.49C1.24 2.57.87 4.16.83 6.09.79 8.02.58 11.72 4.12 12.7c0 0-.01 2.74-.02 2.98 0 .17.03.28.12.31.07.02.17-.02.26-.11.57-.57 2.38-2.75 2.38-2.75 2.43.16 4.36-.32 4.57-.39.49-.16 3.14-.39 3.59-4.01.47-3.73-.16-6.28-1.4-7.35z"/><path class="st9" d="M9.97 6.16a.23.23 0 0 1-.23-.21c-.04-.77-.4-1.15-1.13-1.18a.24.24 0 0 1-.22-.24c.01-.13.11-.22.24-.22.97.05 1.51.61 1.56 1.61.01.12-.09.23-.21.24h-.01z"/><path class="st9" d="M11.12 6.55c-.13 0-.23-.11-.23-.23.02-.77-.2-1.4-.67-1.91-.46-.51-1.11-.79-1.96-.86-.13 0-.22-.11-.21-.24.01-.12.12-.21.24-.21.96.07 1.72.41 2.27 1 .54.59.81 1.34.79 2.22 0 .13-.1.23-.23.23z"/><path class="st9" d="M12.31 7.01c-.12 0-.22-.1-.23-.22-.01-1.36-.42-2.44-1.21-3.22-.8-.78-1.8-1.17-2.99-1.18-.12 0-.22-.1-.22-.23 0-.12.1-.22.23-.22 1.31.01 2.42.45 3.3 1.31.88.86 1.34 2.05 1.35 3.54-.01.12-.11.22-.23.22zM8.66 8.95s.32.03.49-.18l.33-.42c.16-.21.55-.34.93-.13.28.16.56.34.83.53.25.19.77.62.77.62.25.21.3.51.14.83v.01c-.18.32-.42.61-.69.85h-.01c-.24.2-.47.31-.7.34-.03.01-.07.01-.1.01-.1 0-.2-.01-.3-.05l-.01-.01c-.35-.1-.95-.35-1.93-.89-.57-.31-1.11-.67-1.62-1.07-.26-.2-.5-.42-.73-.65l-.05-.03-.02-.02-.02-.03c-.01 0-.02-.01-.03-.02-.23-.23-.45-.47-.65-.73-.4-.51-.76-1.05-1.07-1.63-.54-.98-.79-1.57-.9-1.93l-.01-.01c-.03-.1-.05-.2-.05-.3 0-.03 0-.07.01-.1.03-.23.14-.46.34-.7v-.01c.25-.27.53-.51.85-.69h.01c.33-.17.64-.11.84.13 0 0 .43.52.62.77.19.27.37.54.53.83.21.38.07.77-.13.93l-.42.33c-.21.17-.19.49-.19.49s.63 2.34 2.94 2.93z"/></g></svg>