<svg xmlns="http://www.w3.org/2000/svg" viewBox="0 0 16 16" style="enable-background:new 0 0 16 16" xml:space="preserve"><style>.st0{display:none}.st1,.st8{display:inline;fill:none;stroke:#33383d;stroke-width:1.3;stroke-linecap:round;stroke-linejoin:round;stroke-miterlimit:10}.st8{stroke-width:1.5}</style><path d="M15.25 0H.75C.34 0 0 .33 0 .75v14.5c0 .41.34.75.75.75h12c.41 0 .75-.34.75-.75s-.34-.75-.75-.75H8.76v-3.25h5.74v4c0 .41.34.75.75.75s.75-.34.75-.75V.75c0-.42-.34-.75-.75-.75zm-.75 4.75H8.76V1.5h5.74v3.25zM7.26 1.5v3.25H1.5V1.5h5.76zM1.5 6.25h5.76v3.5H1.5v-3.5zm5.76 8.25H1.5v-3.25h5.76v3.25zm1.5-4.75v-3.5h5.74v3.5H8.76z" style="fill:#33383d" id="Genesys"/></svg>