<svg xmlns="http://www.w3.org/2000/svg" viewBox="0 0 16 16" style="enable-background:new 0 0 16 16" xml:space="preserve"><style>.st0{display:none}.st1,.st8{display:inline;fill:none;stroke:#33383d;stroke-width:1.3;stroke-linecap:round;stroke-linejoin:round;stroke-miterlimit:10}.st8{stroke-width:1.5}</style><path d="M15.25 0H.75C.34 0 0 .33 0 .75v14.5c0 .41.34.75.75.75h12c.41 0 .75-.34.75-.75s-.34-.75-.75-.75h-1.5v-3.25h3.25v4c0 .41.34.75.75.75s.75-.34.75-.75V.75c0-.42-.34-.75-.75-.75zm-.75 4.75h-3.25V1.5h3.25v3.25zm-13 1.5h3.25v3.5H1.5v-3.5zm4.75 0h3.5v3.5h-3.5v-3.5zm0-1.5V1.5h3.5v3.25h-3.5zM4.75 1.5v3.25H1.5V1.5h3.25zM1.5 11.25h3.25v3.25H1.5v-3.25zm8.25 3.25h-3.5v-3.25h3.5v3.25zm1.5-4.75v-3.5h3.25v3.5h-3.25z" style="fill:#33383d" id="Genesys"/></svg>