<svg xmlns="http://www.w3.org/2000/svg" viewBox="0 0 16 16" style="enable-background:new 0 0 16 16" xml:space="preserve"><style>.st0{display:none}.st1,.st8{display:inline;fill:none;stroke:#33383d;stroke-width:1.3;stroke-linecap:round;stroke-linejoin:round;stroke-miterlimit:10}.st8{stroke-width:1.5}</style><path d="M15.25 0H.75C.34 0 0 .33 0 .75v14.5c0 .41.34.75.75.75h12c.41 0 .75-.34.75-.75s-.34-.75-.75-.75H1.5V6.25h13v9c0 .41.34.75.75.75s.75-.34.75-.75V.75c0-.42-.34-.75-.75-.75zm-5.5 1.5v3.25h-3.5V1.5h3.5zm-8.25 0h3.25v3.25H1.5V1.5zm9.75 3.25V1.5h3.25v3.25h-3.25z" style="fill:#33383d" id="Genesys"/></svg>