<svg xmlns="http://www.w3.org/2000/svg" viewBox="0 0 16 16" style="enable-background:new 0 0 16 16" xml:space="preserve"><path d="M12.25 4.25C10.18 4.25 8.5 5.94 8.5 8c0 .85.29 1.62.77 2.25H6.75a3.751 3.751 0 0 0-3-6C1.68 4.25 0 5.94 0 8c0 .91.33 1.79.93 2.47.27.31.75.34 1.06.07.31-.27.34-.74.07-1.05a2.253 2.253 0 0 1 1.69-3.74C4.99 5.75 6 6.76 6 8s-1.01 2.25-2.25 2.25c-.41 0-.75.34-.75.75s.34.75.75.75h8.5C14.32 11.75 16 10.07 16 8s-1.68-3.75-3.75-3.75zm0 6C11.01 10.25 10 9.24 10 8s1.01-2.25 2.25-2.25S14.5 6.76 14.5 8s-1.01 2.25-2.25 2.25z" style="fill:#33383d"/></svg>