<svg xmlns="http://www.w3.org/2000/svg" viewBox="0 0 16 16" style="enable-background:new 0 0 16 16" xml:space="preserve"><style>.st0{display:none}.st1{display:inline;fill:none;stroke:#33383d;stroke-width:1.5;stroke-linecap:round;stroke-linejoin:round;stroke-miterlimit:10}</style><path d="M10.47 14.62c-.5 0-.98-.19-1.37-.55l-1.85-1.75c-.3-.29-.31-.76-.03-1.06s.76-.31 1.06-.03l1.85 1.75c.21.2.45.14.54.1.09-.04.3-.16.3-.46V3.38c0-.3-.21-.42-.3-.46a.472.472 0 0 0-.54.1L7.31 5.7c-.37.35-.86.55-1.37.55H3.75c-.28 0-.5.22-.5.5v2.5c0 .28.22.5.5.5h1.88c.41 0 .75.34.75.75s-.34.75-.75.75H3.75c-1.1 0-2-.9-2-2v-2.5c0-1.1.9-2 2-2h2.19c.13 0 .25-.05.34-.14L9.1 1.93a1.98 1.98 0 0 1 2.17-.39c.75.32 1.21 1.02 1.21 1.84v9.23c0 .81-.46 1.52-1.21 1.84-.26.11-.53.17-.8.17z" style="fill:#33383d" id="Genesys"/></svg>