<svg version="1.1" id="Genesys" xmlns="http://www.w3.org/2000/svg" x="0" y="0" viewBox="0 0 16 16" style="enable-background:new 0 0 16 16" xml:space="preserve"><style>.st0{fill:#33383d}</style><path class="st0" d="M11.73 7.06c-.41 0-.75.34-.75.75v4.81c0 .3-.21.42-.3.46-.09.04-.33.11-.54-.1l-1.85-1.75a.746.746 0 0 0-1.06.03c-.29.3-.27.78.03 1.06l1.85 1.75c.38.36.87.55 1.37.55.27 0 .54-.05.8-.17.75-.32 1.21-1.02 1.21-1.84v-4.8a.764.764 0 0 0-.76-.75zM15.78.22a.754.754 0 0 0-1.06 0l-2.41 2.41a1.95 1.95 0 0 0-1.05-1.08c-.74-.32-1.57-.18-2.16.38L6.28 4.61c-.09.09-.21.14-.34.14H3.75c-1.1 0-2 .9-2 2v2.5a2 2 0 0 0 1.95 1.99L.22 14.72c-.29.29-.29.77 0 1.06.15.15.34.22.53.22s.38-.07.53-.22l14.5-14.5c.29-.29.29-.77 0-1.06zM3.75 9.75c-.28 0-.5-.22-.5-.5v-2.5c0-.28.22-.5.5-.5h2.19c.51 0 1-.19 1.38-.55l2.82-2.68c.21-.2.45-.14.54-.1.09.04.3.16.3.46v.58L5.19 9.75H3.75z"/></svg>