<svg xmlns="http://www.w3.org/2000/svg" viewBox="0 0 16 16" style="enable-background:new 0 0 16 16" xml:space="preserve"><style>.st0{display:none}.st1,.st2{display:inline;fill:none;stroke:#33383d;stroke-width:1.5;stroke-linecap:round;stroke-linejoin:round;stroke-miterlimit:10}.st2{stroke-width:1.3}.st19{fill:#33383d}</style><g id="Genesys"><path class="st19" d="M13.32 10.4c-.19 0-.38-.07-.53-.22a.754.754 0 0 1 0-1.06c.62-.62.62-1.62 0-2.24-.29-.29-.29-.77 0-1.06s.77-.29 1.06 0a3.09 3.09 0 0 1 0 4.36c-.15.14-.34.22-.53.22zM9.97 14.62c-.5 0-.98-.19-1.37-.55l-1.85-1.75a.755.755 0 0 1-.03-1.06c.29-.3.76-.31 1.06-.03l1.85 1.75c.22.21.45.13.54.1.09-.04.3-.16.3-.46V3.38c0-.3-.21-.42-.3-.46a.472.472 0 0 0-.54.1L6.82 5.7c-.38.35-.87.55-1.38.55H3.25c-.28 0-.5.22-.5.5v2.5c0 .28.22.5.5.5h1.88c.41 0 .75.34.75.75s-.34.75-.75.75H3.25c-1.1 0-2-.9-2-2v-2.5c0-1.1.9-2 2-2h2.19c.13 0 .25-.05.35-.14L8.6 1.93a1.98 1.98 0 0 1 2.17-.39c.75.32 1.21 1.02 1.21 1.84v9.23c0 .81-.46 1.52-1.21 1.84-.26.11-.53.17-.8.17z"/></g></svg>