<svg version="1.1" id="Genesys" xmlns="http://www.w3.org/2000/svg" x="0" y="0" viewBox="0 0 16 16" style="enable-background:new 0 0 16 16" xml:space="preserve"><style>.st0{fill:#33383d}</style><path class="st0" d="M13.25 0H2.75C1.23 0 0 1.23 0 2.75v7.5C0 11.77 1.23 13 2.75 13h4.5v1.5h-2.5c-.41 0-.75.34-.75.75s.34.75.75.75h6.5c.41 0 .75-.34.75-.75s-.34-.75-.75-.75h-2.5V13h4.5c1.52 0 2.75-1.23 2.75-2.75v-7.5C16 1.23 14.77 0 13.25 0zm1.25 10.25c0 .69-.56 1.25-1.25 1.25H2.75c-.69 0-1.25-.56-1.25-1.25v-7.5c0-.69.56-1.25 1.25-1.25h10.5c.69 0 1.25.56 1.25 1.25v7.5z"/><circle class="st0" cx="8" cy="6.5" r="1"/><path class="st0" d="M8 2.25c-.61 0-1.2.13-1.76.38-.38.17-.54.62-.37.99s.62.55.99.38a2.748 2.748 0 0 1 3.89 2.5c0 1.52-1.23 2.75-2.75 2.75a2.748 2.748 0 0 1-2.5-3.89c.17-.38 0-.82-.37-.99-.38-.17-.82 0-.99.37-.26.56-.39 1.15-.39 1.76 0 2.34 1.91 4.25 4.25 4.25s4.25-1.91 4.25-4.25S10.34 2.25 8 2.25z"/></svg>