<svg version="1.1" id="Genesys" xmlns="http://www.w3.org/2000/svg" x="0" y="0" viewBox="0 0 16 16" style="enable-background:new 0 0 16 16" xml:space="preserve"><style>.st0{fill:#33383d}</style><path class="st0" d="M15.25 3.18c-.41 0-.75.34-.75.75v6.32c0 .69-.56 1.25-1.25 1.25H6.93c-.41 0-.75.34-.75.75s.34.75.75.75h.32v1.5h-2.5c-.41 0-.75.34-.75.75s.34.75.75.75h6.5c.41 0 .75-.34.75-.75s-.34-.75-.75-.75h-2.5V13h4.5c1.52 0 2.75-1.23 2.75-2.75V3.93c0-.41-.34-.75-.75-.75zM15.78.22a.754.754 0 0 0-1.06 0l-.14.14c-.4-.23-.85-.36-1.33-.36H2.75C1.23 0 0 1.23 0 2.75v7.5c0 1.27.87 2.33 2.04 2.65L.22 14.72c-.29.29-.29.77 0 1.06.15.15.34.22.53.22s.38-.07.53-.22l14.5-14.5c.29-.29.29-.77 0-1.06zM2.75 11.5c-.69 0-1.25-.56-1.25-1.25v-7.5c0-.69.56-1.25 1.25-1.25h10.5c.06 0 .1.02.16.03l-2.2 2.2A4.21 4.21 0 0 0 8 2.25c-.61 0-1.2.13-1.76.38-.38.17-.54.62-.37.99.17.38.62.55.99.38.36-.17.74-.25 1.14-.25.85 0 1.62.4 2.14 1.05L8.88 6.05A.986.986 0 0 0 8 5.5c-.55 0-1 .45-1 1 0 .39.23.72.56.88L6.3 8.64A2.735 2.735 0 0 1 5.25 6.5c0-.4.08-.78.25-1.14.17-.38 0-.82-.37-.99-.38-.17-.82 0-.99.37a4.21 4.21 0 0 0 1.09 4.97L3.44 11.5h-.69z"/><path class="st0" d="M10.47 7.71c-.27.55-.72 1-1.27 1.27-.37.18-.53.63-.35 1a.744.744 0 0 0 1 .34c.85-.41 1.55-1.11 1.96-1.96.18-.37.03-.82-.35-1a.738.738 0 0 0-.99.35z"/></svg>