<svg xmlns="http://www.w3.org/2000/svg" viewBox="0 0 16 16" style="enable-background:new 0 0 16 16" xml:space="preserve"><style>.st0{display:none}.st8{fill:#33383d}</style><g id="Genesys"><path class="st8" d="M14.3 12.79c1.04-.74 1.7-1.84 1.7-3.07 0-2.23-2.16-4.03-4.83-4.03S6.34 7.5 6.34 9.72c0 2.23 2.16 4.03 4.83 4.03.58 0 1.13-.08 1.65-.24a.32.32 0 0 1 .27.03l1.05.61c.23.13.37.03.3-.23l-.23-.87c-.03-.09.01-.2.09-.26m-4.74-3.7a.66.66 0 1 1-.001-1.319.66.66 0 0 1 .001 1.319zm3.2 0a.66.66 0 1 1-.001-1.319.66.66 0 0 1 .001 1.319z"/><path class="st8" d="M5.8 1.24C2.6 1.24 0 3.4 0 6.07c0 1.47.79 2.78 2.02 3.67.12.08.17.23.13.37l-.27 1.02c-.08.31.08.43.35.27l1.24-.73c.11-.07.25-.08.37-.04.62.17 1.28.27 1.96.27.1 0 .21 0 .31-.01-.13-.38-.2-.78-.2-1.19 0-2.43 2.38-4.4 5.31-4.4.1 0 .2 0 .31.01-.43-2.3-2.83-4.07-5.73-4.07M3.86 5.29a.77.77 0 1 1 .77-.77c0 .42-.35.77-.77.77zm3.87 0a.77.77 0 1 1 0-1.54.77.77 0 0 1 0 1.54z"/></g></svg>