<svg xmlns="http://www.w3.org/2000/svg" viewBox="0 0 16 16" style="enable-background:new 0 0 16 16" xml:space="preserve"><style>.st0{display:none}.st8{fill:#33383d}</style><g id="Genesys"><path class="st8" d="M8.13 0C3.83 0 .34 3.49.34 7.79c0 2.02 1.02 3.85 1.12 4.03L.08 16l4.3-1.37c.16.09 1.7.95 3.74.95 4.3 0 7.79-3.49 7.79-7.79S12.42 0 8.13 0zM2.91 11.63c-.01-.01-1.26-1.77-1.26-3.84 0-3.57 2.91-6.48 6.48-6.48 3.57 0 6.48 2.91 6.48 6.48s-2.91 6.48-6.48 6.48c-1.96 0-3.55-1.06-3.57-1.07l-.01-.01-2.4.78.78-2.32-.02-.02z"/><path class="st8" d="M6.71 10.05c1.04 1.01 2.66 1.47 3.15 1.61.49.15 1.53-.08 2.03-.6.5-.52.4-1.07.39-1.25-.01-.18-.17-.21-.17-.21s-1.34-.68-1.61-.81-.42.07-.42.07-.42.51-.55.67c-.14.17-.22.32-.56.2-.34-.12-1.02-.5-1.57-1.02-.55-.51-.97-1.18-1.09-1.39-.12-.2.02-.33.02-.33s.36-.4.54-.62c.17-.22.07-.46.03-.56s-.55-1.39-.63-1.58c-.07-.18-.25-.21-.25-.21s-.53-.01-.65-.01c-.11-.01-.34.13-.34.13-.67.41-.8 1.41-.83 1.62-.02.22-.05.67.29 1.45.34.77 1.18 1.83 2.22 2.84z"/></g></svg>