<svg xmlns="http://www.w3.org/2000/svg" viewBox="0 0 16 16" style="enable-background:new 0 0 16 16" xml:space="preserve"><style>.st0{display:none}.st3{display:inline;fill:none;stroke:#33383d;stroke-width:1.5;stroke-linecap:round;stroke-linejoin:round;stroke-miterlimit:10}.st11{fill:#33383d}</style><g id="Genesys"><path class="st11" d="M7.47 10.75H1.5V1.5h9.25v5.97c0 .41.34.75.75.75s.75-.34.75-.75V.75c0-.41-.33-.75-.75-.75H.75C.34 0 0 .34 0 .75V11.5c0 .41.34.75.75.75h6.72a.749.749 0 1 0 0-1.5z"/><path class="st11" d="M15.25 10.54c-.41 0-.75.34-.75.75v2.15l-3.99-3.99c-.29-.29-.77-.29-1.06 0s-.29.77 0 1.06l3.99 3.99h-2.15c-.41 0-.75.34-.75.75s.34.75.75.75h3.96c.41 0 .75-.34.75-.75v-3.96c0-.41-.34-.75-.75-.75z"/></g></svg>