<svg xmlns="http://www.w3.org/2000/svg" viewBox="0 0 16 16" style="enable-background:new 0 0 16 16" xml:space="preserve"><style>.st0{display:none}.st6{fill:none;stroke:#33383d;stroke-width:1.5;stroke-linecap:round;stroke-linejoin:round;stroke-miterlimit:10}.st11{fill:#33383d}</style><g id="Genesys"><path class="st11" d="M5.5 6.25H.76c-.41 0-.75-.34-.75-.75s.34-.75.75-.75h3.99v-4c0-.41.34-.75.75-.75s.75.34.75.75V5.5c0 .41-.34.75-.75.75zM15.25 6.25H10.5c-.41 0-.75-.34-.75-.75V.75c0-.41.34-.75.75-.75s.75.34.75.75v3.99h3.99c.42.01.76.34.76.76s-.34.75-.75.75z"/><g><path class="st11" d="M5.5 16c-.41 0-.75-.34-.75-.75v-3.99H.76c-.41 0-.75-.34-.75-.75s.34-.75.75-.75H5.5c.41 0 .75.34.75.75v4.74c0 .41-.34.75-.75.75zM10.5 16c-.41 0-.75-.34-.75-.75V10.5c0-.41.34-.75.75-.75h4.74c.41 0 .75.34.75.75s-.34.75-.75.75h-3.99v3.99c0 .42-.33.76-.75.76z"/></g></g></svg>