<svg xmlns="http://www.w3.org/2000/svg" viewBox="0 0 16 16" style="enable-background:new 0 0 16 16" xml:space="preserve"><style>.st0{display:none}.st2{fill:none;stroke:#33383d;stroke-width:1.3;stroke-linecap:round;stroke-linejoin:round;stroke-miterlimit:10}.st2,.st3{display:inline}.st12,.st4{fill:none;stroke:#33383d;stroke-width:1.3;stroke-linecap:round;stroke-linejoin:round;stroke-miterlimit:10}.st12{stroke-width:1.5}.st19{fill:#33383d}</style><g id="Genesys"><path class="st19" d="M.75 6C.33 6 0 5.66 0 5.25V.75C0 .33.33 0 .75 0h4.5a.749.749 0 1 1 0 1.5H1.5v3.75c0 .41-.34.75-.75.75zM15.25 6c-.41 0-.75-.34-.75-.75V1.5h-3.75c-.41 0-.75-.34-.75-.75s.34-.75.75-.75h4.5c.42 0 .75.33.75.75v4.5c0 .41-.33.75-.75.75zM5.25 16.01H.75c-.42 0-.75-.34-.75-.75v-4.5c0-.41.34-.75.75-.75s.75.34.75.75v3.75h3.75c.41 0 .75.34.75.75s-.34.75-.75.75zM15.25 16.01h-4.5c-.41 0-.75-.34-.75-.75s.34-.75.75-.75h3.75v-3.75a.749.749 0 1 1 1.5 0v4.5c0 .41-.33.75-.75.75z"/></g></svg>