<svg xmlns="http://www.w3.org/2000/svg" viewBox="0 0 16 16" style="enable-background:new 0 0 16 16" xml:space="preserve"><style>.st0{display:none}.st1,.st2{fill:none;stroke:#33383d;stroke-linecap:round;stroke-linejoin:round;stroke-miterlimit:10}.st1{display:inline;stroke-width:1.5}.st2{stroke-width:1.3}.st2,.st3{display:inline}.st12{fill:none;stroke:#33383d;stroke-width:1.5;stroke-linecap:round;stroke-linejoin:round;stroke-miterlimit:10}.st19{fill:#33383d}</style><g id="Genesys"><path class="st19" d="M15.25 0H4.05c-.42 0-.75.33-.75.75V3.3H.75c-.41 0-.75.33-.75.75v11.2c0 .41.34.75.75.75h11.2c.41 0 .75-.34.75-.75V12.7h2.55c.41 0 .75-.34.75-.75V.75c0-.42-.34-.75-.75-.75zm-.75 11.2H7.67c-.41 0-.75.34-.75.75s.34.75.75.75h3.53v1.8H1.5V4.8h1.8v3.53c0 .41.34.75.75.75s.75-.34.75-.75V1.5h9.7v9.7z"/><path class="st19" d="M7.67 4.8h2.48l-6.63 6.63c-.29.29-.29.77 0 1.06.15.15.34.22.53.22s.38-.07.53-.22l6.63-6.63v2.47c0 .41.34.75.75.75s.75-.34.75-.75V4.05c0-.41-.34-.75-.75-.75H7.67a.749.749 0 1 0 0 1.5z"/></g></svg>