<svg xmlns="http://www.w3.org/2000/svg" viewBox="0 0 16 16" style="enable-background:new 0 0 16 16" xml:space="preserve"><style>.st0{display:none}.st8{fill:none;stroke:#33383d;stroke-width:1.5;stroke-linecap:round;stroke-miterlimit:10}.st10{fill:#33383d}</style><g id="Genesys"><path class="st10" d="M6.5 0C2.92 0 0 2.92 0 6.5S2.92 13 6.5 13 13 10.09 13 6.5 10.08 0 6.5 0zm0 11.5c-2.76 0-5-2.24-5-5s2.24-5 5-5 5 2.24 5 5-2.24 5-5 5zM15.78 14.72l-2.92-2.92c-.29-.29-.77-.29-1.06 0s-.29.77 0 1.06l2.92 2.92c.15.15.34.22.53.22s.38-.07.53-.22c.29-.29.29-.77 0-1.06z"/><path class="st10" d="M9.25 5.75h-2v-2a.749.749 0 1 0-1.5 0v2h-2c-.41 0-.75.34-.75.75s.34.75.75.75h2v2a.749.749 0 1 0 1.5 0v-2h2c.42 0 .75-.33.75-.75s-.33-.75-.75-.75z"/></g></svg>